<svg xmlns="http://www.w3.org/2000/svg" xmlns:v="https://svgstorm.com"
viewBox = "0 0 482 796"
width="482"
height="796">
<g fill="None" fill-opacity="0.0" stroke="#000000" stroke-opacity="0.00" stroke-width="0.3"><path d="
M 0.00 796.00 
L 482.00 796.00
L 482.00 0.00
L 0.00 0.00
L 0.00 796.00
M 407.00 26.00 
C 407.38 26.22 408.00 26.00 408.00 26.00
C 416.53 31.38 428.54 32.83 436.70 39.30 C 444.85 45.77 453.06 51.64 458.00 61.00
C 460.67 64.02 461.74 70.12 462.00 74.00
C 462.57 77.20 462.56 79.85 462.00 83.00
C 461.19 94.85 451.44 105.88 442.00 112.00
C 441.94 102.89 437.48 95.35 431.00 89.00
C 430.79 88.73 430.26 88.23 430.00 88.00
C 425.52 84.04 420.79 81.48 415.92 78.08 C 411.05 74.68 406.54 69.10 401.00 72.00
C 396.26 77.18 386.72 80.54 380.00 81.00
C 374.83 81.93 369.10 81.83 364.00 81.00
C 359.66 80.76 355.87 79.89 352.00 78.00
C 333.88 117.05 371.29 150.15 401.25 171.75 C 431.21 193.36 460.98 227.80 463.00 266.00
C 463.40 270.09 463.39 274.98 463.00 279.00
C 463.00 318.93 427.62 343.12 395.77 359.77 C 363.92 376.42 330.22 398.52 295.00 408.00
C 297.13 422.61 287.26 436.60 274.00 441.00
C 274.75 449.37 273.67 457.56 274.00 466.00 C 274.33 474.44 273.84 483.53 274.00 492.00 C 274.16 500.47 273.91 508.54 274.00 517.00 C 274.09 525.46 273.92 534.57 274.00 543.00 C 274.08 551.43 273.87 559.67 274.00 568.00 C 274.13 576.33 273.74 585.87 274.00 594.00 C 274.26 602.13 273.41 611.37 274.00 619.00 C 274.59 626.63 272.74 638.36 274.00 645.00 C 275.26 651.64 270.31 666.16 276.00 669.00
C 287.62 672.92 301.56 669.54 313.67 672.33 C 325.78 675.12 339.47 674.51 352.00 676.00
C 354.54 670.44 358.74 663.85 365.00 662.00
C 365.00 666.33 365.00 670.67 365.00 675.00
C 365.23 677.42 366.00 680.91 366.00 684.00
C 366.00 687.00 366.00 690.00 366.00 693.00
C 366.20 695.10 367.00 698.23 367.00 701.00
C 367.00 703.67 367.00 706.33 367.00 709.00
C 367.75 716.77 368.47 726.26 367.00 734.00
C 366.34 737.48 363.51 746.08 358.78 742.22 C 354.05 738.36 356.74 732.37 357.00 728.00
C 356.89 725.45 356.07 721.25 356.00 718.00
C 355.76 706.02 350.13 696.60 349.00 685.00
C 324.04 682.22 298.92 680.02 274.00 677.00
C 274.25 684.28 273.67 691.74 274.00 699.00 C 274.33 706.26 273.39 714.91 274.00 722.00 C 274.61 729.09 272.70 738.46 274.00 745.00 C 275.30 751.54 270.68 762.09 275.00 767.00
C 279.03 770.28 284.11 769.40 289.07 771.93 C 294.04 774.45 302.49 770.89 308.00 773.00 C 313.51 775.11 318.29 770.62 324.07 774.93 C 329.86 779.23 321.30 783.18 317.00 784.00
C 309.20 785.48 299.70 784.75 292.00 784.00
C 283.75 784.00 276.06 783.00 268.00 783.00
C 264.58 783.00 260.69 782.26 258.00 782.00
C 253.67 782.00 249.33 782.00 245.00 782.00
C 248.21 774.07 256.87 768.79 265.00 767.00
C 264.89 761.07 265.14 754.90 265.00 749.00 C 264.86 743.10 265.27 736.81 265.00 731.00 C 264.73 725.19 265.58 718.59 265.00 713.00 C 264.42 707.41 266.27 700.11 265.00 695.00 C 263.73 689.89 267.82 681.03 265.00 677.00
C 260.30 672.30 248.71 676.05 242.00 674.00 C 235.29 671.95 226.26 672.76 218.93 671.07 C 211.59 669.38 201.47 670.88 194.00 669.00
C 186.49 667.11 190.44 652.79 191.00 647.00
C 191.00 642.67 191.00 638.33 191.00 634.00
C 191.00 630.90 191.77 627.36 192.00 625.00
C 192.00 563.65 201.95 499.71 218.00 442.00
C 218.18 441.34 218.29 439.45 219.00 439.00
C 212.97 437.27 207.07 430.91 205.00 425.00
C 189.58 426.86 175.24 433.21 159.00 432.00
C 157.28 428.05 173.21 421.61 165.77 419.23 C 158.32 416.86 150.31 419.75 143.00 420.00 C 135.69 420.25 127.46 420.66 120.00 421.00 C 112.54 421.34 104.52 419.63 110.25 413.25 C 115.98 406.87 119.19 408.24 124.00 402.00
C 109.12 406.92 94.51 414.61 79.78 419.78 C 65.05 424.94 70.63 414.75 75.00 408.00
C 53.35 418.75 36.88 441.09 13.00 447.00
C 12.84 437.25 20.57 429.97 23.00 421.00
C 21.80 421.67 20.42 422.64 20.00 424.00
C 17.52 426.93 16.34 431.69 13.00 433.00
C 14.83 430.10 15.64 426.33 18.00 424.00
C 46.07 367.23 81.70 317.06 124.00 269.00
C 127.43 265.10 131.10 261.33 135.00 258.00
C 167.55 230.19 203.21 200.00 248.00 200.00
C 252.40 199.57 257.66 199.58 262.00 200.00
C 321.31 200.00 364.81 255.89 396.00 300.00
C 425.73 283.17 410.52 248.46 391.25 229.75 C 371.98 211.04 350.56 198.79 332.25 178.75 C 313.94 158.71 297.88 131.85 297.00 104.00
C 296.57 99.60 296.58 94.34 297.00 90.00
C 297.00 62.45 315.51 42.14 335.25 25.25 C 354.98 8.35 389.54 1.02 407.00 26.00 Z"/>
</g>
<g fill="None" fill-opacity="0.0" stroke="#FB4E80" stroke-opacity="1.00" stroke-width="0.3"><path d="
M 297.00 90.00 
C 297.00 94.67 297.00 99.33 297.00 104.00
C 297.88 131.85 313.94 158.71 332.25 178.75 C 350.56 198.79 371.98 211.04 391.25 229.75 C 410.52 248.46 425.73 283.17 396.00 300.00
C 364.81 255.89 321.31 200.00 262.00 200.00
C 257.33 200.00 252.67 200.00 248.00 200.00
C 203.21 200.00 167.55 230.19 135.00 258.00
C 131.40 261.60 127.61 265.49 124.00 269.00
C 81.70 317.06 46.07 367.23 18.00 424.00
C 18.38 423.78 19.76 424.25 20.00 424.00
C 20.42 422.64 21.80 421.67 23.00 421.00
C 20.57 429.97 12.84 437.25 13.00 447.00
C 36.88 441.09 53.35 418.75 75.00 408.00
C 70.63 414.75 65.05 424.94 79.78 419.78 C 94.51 414.61 109.12 406.92 124.00 402.00
C 119.19 408.24 115.98 406.87 110.25 413.25 C 104.52 419.63 112.54 421.34 120.00 421.00 C 127.46 420.66 135.69 420.25 143.00 420.00 C 150.31 419.75 158.32 416.86 165.77 419.23 C 173.21 421.61 157.28 428.05 159.00 432.00
C 175.24 433.21 189.58 426.86 205.00 425.00
C 207.07 430.91 212.97 437.27 219.00 439.00
C 220.56 439.45 225.93 440.96 227.00 441.00
C 234.67 441.31 243.15 434.33 248.00 429.00
C 253.15 433.95 258.65 438.74 265.00 441.00
C 266.61 438.92 271.56 439.93 273.00 441.00
C 273.32 441.24 274.00 441.00 274.00 441.00
C 287.26 436.60 297.13 422.61 295.00 408.00
C 330.22 398.52 363.92 376.42 395.77 359.77 C 427.62 343.12 463.00 318.93 463.00 279.00
C 463.00 274.67 463.00 270.33 463.00 266.00
C 460.98 227.80 431.21 193.36 401.25 171.75 C 371.29 150.15 333.88 117.05 352.00 78.00
C 355.87 79.89 359.66 80.76 364.00 81.00
C 369.20 81.28 374.81 81.35 380.00 81.00
C 386.72 80.54 396.26 77.18 401.00 72.00
C 401.10 71.89 402.10 70.00 402.00 70.00
C 399.19 69.95 397.08 66.77 396.00 65.00
C 392.72 59.59 390.34 46.60 382.75 44.25 C 375.17 41.90 365.93 30.28 377.07 28.07 C 388.22 25.86 397.46 20.54 407.00 26.00
C 389.54 1.02 354.98 8.35 335.25 25.25 C 315.51 42.14 297.00 62.45 297.00 90.00 Z"/>
</g>
<g fill="None" fill-opacity="0.0" stroke="#A61835" stroke-opacity="1.00" stroke-width="0.3"><path d="
M 396.00 65.00 
C 397.06 66.08 397.89 64.96 398.00 65.00
C 399.63 61.75 398.26 53.34 399.00 50.00
C 399.55 47.50 400.20 45.44 401.00 43.00
C 402.32 38.98 404.21 35.63 406.00 32.00
C 406.80 30.38 407.73 27.85 408.00 26.00
C 408.00 26.00 407.38 26.22 407.00 26.00
C 397.46 20.54 388.22 25.86 377.07 28.07 C 365.93 30.28 375.17 41.90 382.75 44.25 C 390.34 46.60 392.72 59.59 396.00 65.00
M 383.00 31.00 
C 387.94 33.41 383.66 42.92 378.33 39.67 C 373.00 36.42 376.95 28.05 383.00 31.00 Z"/>
</g>
<g fill="None" fill-opacity="0.0" stroke="#FAC470" stroke-opacity="0.99" stroke-width="0.3"><path d="
M 406.00 32.00 
C 404.67 36.39 403.13 39.17 401.00 43.00
C 400.20 45.44 399.55 47.50 399.00 50.00
C 398.13 58.44 400.56 62.16 403.00 69.00
C 403.09 69.24 402.34 69.98 402.00 70.00
C 402.10 70.00 401.10 71.89 401.00 72.00
C 406.54 69.10 411.05 74.68 415.92 78.08 C 420.79 81.48 425.52 84.04 430.00 88.00
C 434.95 84.05 441.58 82.34 446.25 77.25 C 450.91 72.16 453.23 66.08 457.00 61.00
C 457.18 60.76 458.00 61.00 458.00 61.00
C 453.06 51.64 444.85 45.77 436.70 39.30 C 428.54 32.83 416.53 31.38 408.00 26.00
C 407.73 27.85 406.80 30.38 406.00 32.00 Z"/>
</g>
<g fill="None" fill-opacity="0.0" stroke="#590F1C" stroke-opacity="1.00" stroke-width="0.3"><path d="
M 383.00 31.00 
C 376.95 28.05 373.00 36.42 378.33 39.67 C 383.66 42.92 387.94 33.41 383.00 31.00
M 377.00 37.00 
C 377.68 27.45 388.25 38.99 377.00 37.00 Z"/>
</g>
<g fill="None" fill-opacity="0.0" stroke="#FCA982" stroke-opacity="1.00" stroke-width="0.3"><path d="
M 401.00 43.00 
C 403.13 39.17 404.67 36.39 406.00 32.00
C 404.21 35.63 402.32 38.98 401.00 43.00 Z"/>
</g>
<g fill="None" fill-opacity="0.0" stroke="#2C1B16" stroke-opacity="1.00" stroke-width="0.3"><path d="
M 377.00 37.00 
C 388.25 38.99 377.68 27.45 377.00 37.00 Z"/>
</g>
<g fill="None" fill-opacity="0.0" stroke="#F6A47A" stroke-opacity="1.00" stroke-width="0.3"><path d="
M 398.00 65.00 
C 399.05 65.43 401.81 68.10 403.00 69.00
C 400.56 62.16 398.13 58.44 399.00 50.00
C 398.26 53.34 399.63 61.75 398.00 65.00 Z"/>
</g>
<g fill="None" fill-opacity="0.0" stroke="#5C1B18" stroke-opacity="1.00" stroke-width="0.3"><path d="
M 430.00 88.00 
C 430.26 88.23 430.79 88.73 431.00 89.00
C 437.11 90.12 438.02 82.89 444.00 84.00
C 447.73 76.17 456.56 70.82 457.00 61.00
C 453.23 66.08 450.91 72.16 446.25 77.25 C 441.58 82.34 434.95 84.05 430.00 88.00 Z"/>
</g>
<g fill="None" fill-opacity="0.0" stroke="#520D2A" stroke-opacity="0.99" stroke-width="0.3"><path d="
M 431.00 89.00 
C 437.48 95.35 441.94 102.89 442.00 112.00
C 451.44 105.88 461.19 94.85 462.00 83.00
C 462.20 80.09 462.20 76.91 462.00 74.00
C 461.74 70.12 460.67 64.02 458.00 61.00
C 458.00 61.00 457.18 60.76 457.00 61.00
C 456.56 70.82 447.73 76.17 444.00 84.00
C 438.02 82.89 437.11 90.12 431.00 89.00 Z"/>
</g>
<g fill="None" fill-opacity="0.0" stroke="#DE6E66" stroke-opacity="1.00" stroke-width="0.3"><path d="
M 402.00 70.00 
C 402.34 69.98 403.09 69.24 403.00 69.00
C 401.81 68.10 399.05 65.43 398.00 65.00
C 397.89 64.96 397.06 66.08 396.00 65.00
C 397.08 66.77 399.19 69.95 402.00 70.00 Z"/>
</g>
<g fill="None" fill-opacity="0.0" stroke="#90677B" stroke-opacity="0.95" stroke-width="0.3"><path d="
M 462.00 83.00 
C 462.56 79.85 462.57 77.20 462.00 74.00
C 462.20 76.91 462.20 80.09 462.00 83.00 Z"/>
</g>
<g fill="None" fill-opacity="0.0" stroke="#E490A7" stroke-opacity="0.89" stroke-width="0.3"><path d="
M 380.00 81.00 
C 374.81 81.35 369.20 81.28 364.00 81.00
C 369.10 81.83 374.83 81.93 380.00 81.00 Z"/>
</g>
<g fill="None" fill-opacity="0.0" stroke="#F9BCCA" stroke-opacity="0.71" stroke-width="0.3"><path d="
M 297.00 104.00 
C 297.00 99.33 297.00 94.67 297.00 90.00
C 296.58 94.34 296.57 99.60 297.00 104.00 Z"/>
</g>
<g fill="None" fill-opacity="0.0" stroke="#F9B5C7" stroke-opacity="0.52" stroke-width="0.3"><path d="
M 248.00 200.00 
C 252.67 200.00 257.33 200.00 262.00 200.00
C 257.66 199.58 252.40 199.57 248.00 200.00 Z"/>
</g>
<g fill="None" fill-opacity="0.0" stroke="#FFD0E3" stroke-opacity="0.37" stroke-width="0.3"><path d="
M 124.00 269.00 
C 127.61 265.49 131.40 261.60 135.00 258.00
C 131.10 261.33 127.43 265.10 124.00 269.00 Z"/>
</g>
<g fill="None" fill-opacity="0.0" stroke="#FEC6D7" stroke-opacity="0.58" stroke-width="0.3"><path d="
M 463.00 279.00 
C 463.39 274.98 463.40 270.09 463.00 266.00
C 463.00 270.33 463.00 274.67 463.00 279.00 Z"/>
</g>
<g fill="None" fill-opacity="0.0" stroke="#AD7F8E" stroke-opacity="0.73" stroke-width="0.3"><path d="
M 20.00 424.00 
C 19.76 424.25 18.38 423.78 18.00 424.00
C 15.64 426.33 14.83 430.10 13.00 433.00
C 16.34 431.69 17.52 426.93 20.00 424.00 Z"/>
</g>
<g fill="None" fill-opacity="0.0" stroke="#000000" stroke-opacity="0.00" stroke-width="0.3"><path d="
M 227.00 441.00 
C 222.48 446.50 224.46 457.25 221.22 464.22 C 217.99 471.20 218.41 481.23 216.02 489.02 C 213.64 496.82 213.44 506.33 211.67 514.67 C 209.91 523.02 209.22 532.26 208.00 541.00 C 206.78 549.74 205.48 558.91 205.00 568.00 C 204.52 577.09 202.14 585.70 202.01 595.01 C 201.88 604.32 200.38 613.69 200.02 623.02 C 199.67 632.36 199.00 642.61 199.00 652.00
C 199.00 655.00 199.00 658.00 199.00 661.00
C 202.55 663.49 210.62 660.38 215.00 662.00 C 219.38 663.62 225.29 662.69 230.02 663.98 C 234.76 665.26 241.07 664.04 246.00 665.00 C 250.93 665.96 255.91 666.47 261.00 667.00
C 262.30 666.80 263.69 667.15 265.00 667.00
C 265.00 592.33 265.00 517.67 265.00 443.00
C 265.00 442.50 265.24 441.31 265.00 441.00
C 258.65 438.74 253.15 433.95 248.00 429.00
C 243.15 434.33 234.67 441.31 227.00 441.00 Z"/>
</g>
<g fill="None" fill-opacity="0.0" stroke="#553035" stroke-opacity="0.95" stroke-width="0.3"><path d="
M 218.00 442.00 
C 220.27 439.86 224.26 441.58 227.00 441.00
C 225.93 440.96 220.56 439.45 219.00 439.00
C 218.29 439.45 218.18 441.34 218.00 442.00 Z"/>
</g>
<g fill="None" fill-opacity="0.0" stroke="#985B67" stroke-opacity="1.00" stroke-width="0.3"><path d="
M 265.00 441.00 
C 265.24 441.31 265.00 442.50 265.00 443.00
C 265.34 443.23 266.00 443.00 266.00 443.00
C 266.66 440.55 269.37 440.52 272.00 441.00
C 272.48 441.09 273.00 441.00 273.00 441.00
C 271.56 439.93 266.61 438.92 265.00 441.00 Z"/>
</g>
<g fill="None" fill-opacity="0.0" stroke="#252424" stroke-opacity="0.99" stroke-width="0.3"><path d="
M 218.00 442.00 
C 201.95 499.71 192.00 563.65 192.00 625.00
C 192.00 628.10 191.23 631.64 191.00 634.00
C 191.00 638.33 191.00 642.67 191.00 647.00
C 191.00 654.00 191.00 661.00 191.00 668.00
C 192.00 668.11 193.73 667.53 194.00 669.00
C 201.47 670.88 211.59 669.38 218.93 671.07 C 226.26 672.76 235.29 671.95 242.00 674.00 C 248.71 676.05 260.30 672.30 265.00 677.00
C 269.11 681.11 265.00 692.85 266.00 699.00 C 267.00 705.15 265.97 715.43 266.00 722.00 C 266.03 728.57 266.93 738.74 266.00 745.00 C 265.07 751.26 268.97 762.66 265.00 767.00
C 256.87 768.79 248.21 774.07 245.00 782.00
C 249.33 782.00 253.67 782.00 258.00 782.00
C 261.42 782.00 265.31 782.74 268.00 783.00
C 276.06 783.00 283.75 784.00 292.00 784.00
C 300.25 784.00 308.78 784.63 317.00 784.00
C 321.30 783.18 329.86 779.23 324.07 774.93 C 318.29 770.62 313.51 775.11 308.00 773.00 C 302.49 770.89 294.04 774.45 289.07 771.93 C 284.11 769.40 279.03 770.28 275.00 767.00
C 267.91 761.23 275.87 740.10 273.00 732.00 C 270.13 723.90 273.79 720.43 273.00 714.00 C 272.21 707.57 272.50 700.14 273.00 695.00 C 273.50 689.86 270.40 679.36 274.00 677.00
C 298.92 680.02 324.04 682.22 349.00 685.00
C 350.13 696.60 355.76 706.02 356.00 718.00
C 356.34 720.83 357.21 724.48 357.00 728.00
C 356.74 732.37 354.05 738.36 358.78 742.22 C 363.51 746.08 366.34 737.48 367.00 734.00
C 367.63 725.78 367.00 717.25 367.00 709.00
C 367.00 706.33 367.00 703.67 367.00 701.00
C 366.80 698.90 366.00 695.77 366.00 693.00
C 366.00 690.00 366.00 687.00 366.00 684.00
C 365.77 681.58 365.00 678.09 365.00 675.00
C 365.00 670.67 365.00 666.33 365.00 662.00
C 358.74 663.85 354.54 670.44 352.00 676.00
C 339.47 674.51 325.78 675.12 313.67 672.33 C 301.56 669.54 287.62 672.92 276.00 669.00
C 268.58 666.50 274.38 647.40 273.00 639.00 C 271.62 630.60 273.64 615.82 273.00 606.00 C 272.36 596.18 273.32 583.47 273.00 573.00 C 272.68 562.53 273.22 550.75 273.00 540.00 C 272.78 529.25 273.25 517.87 273.00 507.00 C 272.75 496.13 273.46 484.90 273.00 474.00 C 272.54 463.10 273.98 451.87 273.00 441.00
C 273.00 441.00 272.48 441.09 272.00 441.00
C 271.22 443.92 268.78 442.81 266.00 443.00
C 269.34 480.16 264.27 517.65 266.00 555.00 C 267.73 592.35 264.70 630.57 266.00 668.00
C 264.43 667.61 261.78 668.94 261.00 667.00
C 255.91 666.47 250.93 665.96 246.00 665.00 C 241.07 664.04 234.76 665.26 230.02 663.98 C 225.29 662.69 219.38 663.62 215.00 662.00 C 210.62 660.38 202.55 663.49 199.00 661.00
C 196.30 659.11 198.82 653.90 199.00 652.00
C 199.00 642.61 199.67 632.36 200.02 623.02 C 200.38 613.69 201.88 604.32 202.01 595.01 C 202.14 585.70 204.52 577.09 205.00 568.00 C 205.48 558.91 206.78 549.74 208.00 541.00 C 209.22 532.26 209.91 523.02 211.67 514.67 C 213.44 506.33 213.64 496.82 216.02 489.02 C 218.41 481.23 217.99 471.20 221.22 464.22 C 224.46 457.25 222.48 446.50 227.00 441.00
C 224.26 441.58 220.27 439.86 218.00 442.00 Z"/>
</g>
<g fill="None" fill-opacity="0.0" stroke="#301216" stroke-opacity="1.00" stroke-width="0.3"><path d="
M 266.00 443.00 
C 268.78 442.81 271.22 443.92 272.00 441.00
C 269.37 440.52 266.66 440.55 266.00 443.00 Z"/>
</g>
<g fill="None" fill-opacity="0.0" stroke="#757474" stroke-opacity="0.99" stroke-width="0.3"><path d="
M 276.00 669.00 
C 270.31 666.16 275.26 651.64 274.00 645.00 C 272.74 638.36 274.59 626.63 274.00 619.00 C 273.41 611.37 274.26 602.13 274.00 594.00 C 273.74 585.87 274.13 576.33 274.00 568.00 C 273.87 559.67 274.08 551.43 274.00 543.00 C 273.92 534.57 274.09 525.46 274.00 517.00 C 273.91 508.54 274.16 500.47 274.00 492.00 C 273.84 483.53 274.33 474.44 274.00 466.00 C 273.67 457.56 274.75 449.37 274.00 441.00
C 274.00 441.00 273.32 441.24 273.00 441.00
C 273.98 451.87 272.54 463.10 273.00 474.00 C 273.46 484.90 272.75 496.13 273.00 507.00 C 273.25 517.87 272.78 529.25 273.00 540.00 C 273.22 550.75 272.68 562.53 273.00 573.00 C 273.32 583.47 272.36 596.18 273.00 606.00 C 273.64 615.82 271.62 630.60 273.00 639.00 C 274.38 647.40 268.58 666.50 276.00 669.00 Z"/>
</g>
<g fill="None" fill-opacity="0.0" stroke="#5E5E5E" stroke-opacity="1.00" stroke-width="0.3"><path d="
M 261.00 667.00 
C 261.78 668.94 264.43 667.61 266.00 668.00
C 264.70 630.57 267.73 592.35 266.00 555.00 C 264.27 517.65 269.34 480.16 266.00 443.00
C 266.00 443.00 265.34 443.23 265.00 443.00
C 265.00 517.67 265.00 592.33 265.00 667.00
C 263.69 667.15 262.30 666.80 261.00 667.00 Z"/>
</g>
<g fill="None" fill-opacity="0.0" stroke="#959595" stroke-opacity="0.80" stroke-width="0.3"><path d="
M 191.00 634.00 
C 191.23 631.64 192.00 628.10 192.00 625.00
C 191.77 627.36 191.00 630.90 191.00 634.00 Z"/>
</g>
<g fill="None" fill-opacity="0.0" stroke="#818181" stroke-opacity="0.89" stroke-width="0.3"><path d="
M 194.00 669.00 
C 193.73 667.53 192.00 668.11 191.00 668.00
C 191.00 661.00 191.00 654.00 191.00 647.00
C 190.44 652.79 186.49 667.11 194.00 669.00 Z"/>
</g>
<g fill="None" fill-opacity="0.0" stroke="#585556" stroke-opacity="1.00" stroke-width="0.3"><path d="
M 199.00 661.00 
C 199.00 658.00 199.00 655.00 199.00 652.00
C 198.82 653.90 196.30 659.11 199.00 661.00 Z"/>
</g>
<g fill="None" fill-opacity="0.0" stroke="#9A9899" stroke-opacity="0.80" stroke-width="0.3"><path d="
M 366.00 684.00 
C 366.00 680.91 365.23 677.42 365.00 675.00
C 365.00 678.09 365.77 681.58 366.00 684.00 Z"/>
</g>
<g fill="None" fill-opacity="0.0" stroke="#626262" stroke-opacity="1.00" stroke-width="0.3"><path d="
M 265.00 767.00 
C 268.97 762.66 265.07 751.26 266.00 745.00 C 266.93 738.74 266.03 728.57 266.00 722.00 C 265.97 715.43 267.00 705.15 266.00 699.00 C 265.00 692.85 269.11 681.11 265.00 677.00
C 267.82 681.03 263.73 689.89 265.00 695.00 C 266.27 700.11 264.42 707.41 265.00 713.00 C 265.58 718.59 264.73 725.19 265.00 731.00 C 265.27 736.81 264.86 743.10 265.00 749.00 C 265.14 754.90 264.89 761.07 265.00 767.00 Z"/>
</g>
<g fill="None" fill-opacity="0.0" stroke="#717171" stroke-opacity="0.99" stroke-width="0.3"><path d="
M 275.00 767.00 
C 270.68 762.09 275.30 751.54 274.00 745.00 C 272.70 738.46 274.61 729.09 274.00 722.00 C 273.39 714.91 274.33 706.26 274.00 699.00 C 273.67 691.74 274.25 684.28 274.00 677.00
C 270.40 679.36 273.50 689.86 273.00 695.00 C 272.50 700.14 272.21 707.57 273.00 714.00 C 273.79 720.43 270.13 723.90 273.00 732.00 C 275.87 740.10 267.91 761.23 275.00 767.00 Z"/>
</g>
<g fill="None" fill-opacity="0.0" stroke="#8E8C8D" stroke-opacity="0.86" stroke-width="0.3"><path d="
M 367.00 701.00 
C 367.00 698.23 366.20 695.10 366.00 693.00
C 366.00 695.77 366.80 698.90 367.00 701.00 Z"/>
</g>
<g fill="None" fill-opacity="0.0" stroke="#716E6F" stroke-opacity="0.91" stroke-width="0.3"><path d="
M 367.00 734.00 
C 368.47 726.26 367.75 716.77 367.00 709.00
C 367.00 717.25 367.63 725.78 367.00 734.00 Z"/>
</g>
<g fill="None" fill-opacity="0.0" stroke="#B4B2B2" stroke-opacity="0.67" stroke-width="0.3"><path d="
M 357.00 728.00 
C 357.21 724.48 356.34 720.83 356.00 718.00
C 356.07 721.25 356.89 725.45 357.00 728.00 Z"/>
</g>
<g fill="None" fill-opacity="0.0" stroke="#8E8B8C" stroke-opacity="0.86" stroke-width="0.3"><path d="
M 268.00 783.00 
C 265.31 782.74 261.42 782.00 258.00 782.00
C 260.69 782.26 264.58 783.00 268.00 783.00 Z"/>
</g>
<g fill="None" fill-opacity="0.0" stroke="#6D6D6D" stroke-opacity="0.94" stroke-width="0.3"><path d="
M 317.00 784.00 
C 308.78 784.63 300.25 784.00 292.00 784.00
C 299.70 784.75 309.20 785.48 317.00 784.00 Z"/>
</g>
<g fill="#000000" fill-opacity="0.00" stroke="None">
<path d="
M 0.00 796.00 
L 482.00 796.00
L 482.00 0.00
L 0.00 0.00
L 0.00 796.00
M 407.00 26.00 
C 407.38 26.22 408.00 26.00 408.00 26.00
C 416.53 31.38 428.54 32.83 436.70 39.30 C 444.85 45.77 453.06 51.64 458.00 61.00
C 460.67 64.02 461.74 70.12 462.00 74.00
C 462.57 77.20 462.56 79.85 462.00 83.00
C 461.19 94.85 451.44 105.88 442.00 112.00
C 441.94 102.89 437.48 95.35 431.00 89.00
C 430.79 88.73 430.26 88.23 430.00 88.00
C 425.52 84.04 420.79 81.48 415.92 78.08 C 411.05 74.68 406.54 69.10 401.00 72.00
C 396.26 77.18 386.72 80.54 380.00 81.00
C 374.83 81.93 369.10 81.83 364.00 81.00
C 359.66 80.76 355.87 79.89 352.00 78.00
C 333.88 117.05 371.29 150.15 401.25 171.75 C 431.21 193.36 460.98 227.80 463.00 266.00
C 463.40 270.09 463.39 274.98 463.00 279.00
C 463.00 318.93 427.62 343.12 395.77 359.77 C 363.92 376.42 330.22 398.52 295.00 408.00
C 297.13 422.61 287.26 436.60 274.00 441.00
C 274.75 449.37 273.67 457.56 274.00 466.00 C 274.33 474.44 273.84 483.53 274.00 492.00 C 274.16 500.47 273.91 508.54 274.00 517.00 C 274.09 525.46 273.92 534.57 274.00 543.00 C 274.08 551.43 273.87 559.67 274.00 568.00 C 274.13 576.33 273.74 585.87 274.00 594.00 C 274.26 602.13 273.41 611.37 274.00 619.00 C 274.59 626.63 272.74 638.36 274.00 645.00 C 275.26 651.64 270.31 666.16 276.00 669.00
C 287.62 672.92 301.56 669.54 313.67 672.33 C 325.78 675.12 339.47 674.51 352.00 676.00
C 354.54 670.44 358.74 663.85 365.00 662.00
C 365.00 666.33 365.00 670.67 365.00 675.00
C 365.23 677.42 366.00 680.91 366.00 684.00
C 366.00 687.00 366.00 690.00 366.00 693.00
C 366.20 695.10 367.00 698.23 367.00 701.00
C 367.00 703.67 367.00 706.33 367.00 709.00
C 367.75 716.77 368.47 726.26 367.00 734.00
C 366.34 737.48 363.51 746.08 358.78 742.22 C 354.05 738.36 356.74 732.37 357.00 728.00
C 356.89 725.45 356.07 721.25 356.00 718.00
C 355.76 706.02 350.13 696.60 349.00 685.00
C 324.04 682.22 298.92 680.02 274.00 677.00
C 274.25 684.28 273.67 691.74 274.00 699.00 C 274.33 706.26 273.39 714.91 274.00 722.00 C 274.61 729.09 272.70 738.46 274.00 745.00 C 275.30 751.54 270.68 762.09 275.00 767.00
C 279.03 770.28 284.11 769.40 289.07 771.93 C 294.04 774.45 302.49 770.89 308.00 773.00 C 313.51 775.11 318.29 770.62 324.07 774.93 C 329.86 779.23 321.30 783.18 317.00 784.00
C 309.20 785.48 299.70 784.75 292.00 784.00
C 283.75 784.00 276.06 783.00 268.00 783.00
C 264.58 783.00 260.69 782.26 258.00 782.00
C 253.67 782.00 249.33 782.00 245.00 782.00
C 248.21 774.07 256.87 768.79 265.00 767.00
C 264.89 761.07 265.14 754.90 265.00 749.00 C 264.86 743.10 265.27 736.81 265.00 731.00 C 264.73 725.19 265.58 718.59 265.00 713.00 C 264.42 707.41 266.27 700.11 265.00 695.00 C 263.73 689.89 267.82 681.03 265.00 677.00
C 260.30 672.30 248.71 676.05 242.00 674.00 C 235.29 671.95 226.26 672.76 218.93 671.07 C 211.59 669.38 201.47 670.88 194.00 669.00
C 186.49 667.11 190.44 652.79 191.00 647.00
C 191.00 642.67 191.00 638.33 191.00 634.00
C 191.00 630.90 191.77 627.36 192.00 625.00
C 192.00 563.65 201.95 499.71 218.00 442.00
C 218.18 441.34 218.29 439.45 219.00 439.00
C 212.97 437.27 207.07 430.91 205.00 425.00
C 189.58 426.86 175.24 433.21 159.00 432.00
C 157.28 428.05 173.21 421.61 165.77 419.23 C 158.32 416.86 150.31 419.75 143.00 420.00 C 135.69 420.25 127.46 420.66 120.00 421.00 C 112.54 421.34 104.52 419.63 110.25 413.25 C 115.98 406.87 119.19 408.24 124.00 402.00
C 109.12 406.92 94.51 414.61 79.78 419.78 C 65.05 424.94 70.63 414.75 75.00 408.00
C 53.35 418.75 36.88 441.09 13.00 447.00
C 12.84 437.25 20.57 429.97 23.00 421.00
C 21.80 421.67 20.42 422.64 20.00 424.00
C 17.52 426.93 16.34 431.69 13.00 433.00
C 14.83 430.10 15.64 426.33 18.00 424.00
C 46.07 367.23 81.70 317.06 124.00 269.00
C 127.43 265.10 131.10 261.33 135.00 258.00
C 167.55 230.19 203.21 200.00 248.00 200.00
C 252.40 199.57 257.66 199.58 262.00 200.00
C 321.31 200.00 364.81 255.89 396.00 300.00
C 425.73 283.17 410.52 248.46 391.25 229.75 C 371.98 211.04 350.56 198.79 332.25 178.75 C 313.94 158.71 297.88 131.85 297.00 104.00
C 296.57 99.60 296.58 94.34 297.00 90.00
C 297.00 62.45 315.51 42.14 335.25 25.25 C 354.98 8.35 389.54 1.02 407.00 26.00 Z"/>
</g>
<g fill="#FB4E80" fill-opacity="1.00" stroke="None">
<path d="
M 297.00 90.00 
C 297.00 94.67 297.00 99.33 297.00 104.00
C 297.88 131.85 313.94 158.71 332.25 178.75 C 350.56 198.79 371.98 211.04 391.25 229.75 C 410.52 248.46 425.73 283.17 396.00 300.00
C 364.81 255.89 321.31 200.00 262.00 200.00
C 257.33 200.00 252.67 200.00 248.00 200.00
C 203.21 200.00 167.55 230.19 135.00 258.00
C 131.40 261.60 127.61 265.49 124.00 269.00
C 81.70 317.06 46.07 367.23 18.00 424.00
C 18.38 423.78 19.76 424.25 20.00 424.00
C 20.42 422.64 21.80 421.67 23.00 421.00
C 20.57 429.97 12.84 437.25 13.00 447.00
C 36.88 441.09 53.35 418.75 75.00 408.00
C 70.63 414.75 65.05 424.94 79.78 419.78 C 94.51 414.61 109.12 406.92 124.00 402.00
C 119.19 408.24 115.98 406.87 110.25 413.25 C 104.52 419.63 112.54 421.34 120.00 421.00 C 127.46 420.66 135.69 420.25 143.00 420.00 C 150.31 419.75 158.32 416.86 165.77 419.23 C 173.21 421.61 157.28 428.05 159.00 432.00
C 175.24 433.21 189.58 426.86 205.00 425.00
C 207.07 430.91 212.97 437.27 219.00 439.00
C 220.56 439.45 225.93 440.96 227.00 441.00
C 234.67 441.31 243.15 434.33 248.00 429.00
C 253.15 433.95 258.65 438.74 265.00 441.00
C 266.61 438.92 271.56 439.93 273.00 441.00
C 273.32 441.24 274.00 441.00 274.00 441.00
C 287.26 436.60 297.13 422.61 295.00 408.00
C 330.22 398.52 363.92 376.42 395.77 359.77 C 427.62 343.12 463.00 318.93 463.00 279.00
C 463.00 274.67 463.00 270.33 463.00 266.00
C 460.98 227.80 431.21 193.36 401.25 171.75 C 371.29 150.15 333.88 117.05 352.00 78.00
C 355.87 79.89 359.66 80.76 364.00 81.00
C 369.20 81.28 374.81 81.35 380.00 81.00
C 386.72 80.54 396.26 77.18 401.00 72.00
C 401.10 71.89 402.10 70.00 402.00 70.00
C 399.19 69.95 397.08 66.77 396.00 65.00
C 392.72 59.59 390.34 46.60 382.75 44.25 C 375.17 41.90 365.93 30.28 377.07 28.07 C 388.22 25.86 397.46 20.54 407.00 26.00
C 389.54 1.02 354.98 8.35 335.25 25.25 C 315.51 42.14 297.00 62.45 297.00 90.00 Z"/>
</g>
<g fill="#A61835" fill-opacity="1.00" stroke="None">
<path d="
M 396.00 65.00 
C 397.06 66.08 397.89 64.96 398.00 65.00
C 399.63 61.75 398.26 53.34 399.00 50.00
C 399.55 47.50 400.20 45.44 401.00 43.00
C 402.32 38.98 404.21 35.63 406.00 32.00
C 406.80 30.38 407.73 27.85 408.00 26.00
C 408.00 26.00 407.38 26.22 407.00 26.00
C 397.46 20.54 388.22 25.86 377.07 28.07 C 365.93 30.28 375.17 41.90 382.75 44.25 C 390.34 46.60 392.72 59.59 396.00 65.00
M 383.00 31.00 
C 387.94 33.41 383.66 42.92 378.33 39.67 C 373.00 36.42 376.95 28.05 383.00 31.00 Z"/>
</g>
<g fill="#FAC470" fill-opacity="0.99" stroke="None">
<path d="
M 406.00 32.00 
C 404.67 36.39 403.13 39.17 401.00 43.00
C 400.20 45.44 399.55 47.50 399.00 50.00
C 398.13 58.44 400.56 62.16 403.00 69.00
C 403.09 69.24 402.34 69.98 402.00 70.00
C 402.10 70.00 401.10 71.89 401.00 72.00
C 406.54 69.10 411.05 74.68 415.92 78.08 C 420.79 81.48 425.52 84.04 430.00 88.00
C 434.95 84.05 441.58 82.34 446.25 77.25 C 450.91 72.16 453.23 66.08 457.00 61.00
C 457.18 60.76 458.00 61.00 458.00 61.00
C 453.06 51.64 444.85 45.77 436.70 39.30 C 428.54 32.83 416.53 31.38 408.00 26.00
C 407.73 27.85 406.80 30.38 406.00 32.00 Z"/>
</g>
<g fill="#590F1C" fill-opacity="1.00" stroke="None">
<path d="
M 383.00 31.00 
C 376.95 28.05 373.00 36.42 378.33 39.67 C 383.66 42.92 387.94 33.41 383.00 31.00
M 377.00 37.00 
C 377.68 27.45 388.25 38.99 377.00 37.00 Z"/>
</g>
<g fill="#FCA982" fill-opacity="1.00" stroke="None">
<path d="
M 401.00 43.00 
C 403.13 39.17 404.67 36.39 406.00 32.00
C 404.21 35.63 402.32 38.98 401.00 43.00 Z"/>
</g>
<g fill="#2C1B16" fill-opacity="1.00" stroke="None">
<path d="
M 377.00 37.00 
C 388.25 38.99 377.68 27.45 377.00 37.00 Z"/>
</g>
<g fill="#F6A47A" fill-opacity="1.00" stroke="None">
<path d="
M 398.00 65.00 
C 399.05 65.43 401.81 68.10 403.00 69.00
C 400.56 62.16 398.13 58.44 399.00 50.00
C 398.26 53.34 399.63 61.75 398.00 65.00 Z"/>
</g>
<g fill="#5C1B18" fill-opacity="1.00" stroke="None">
<path d="
M 430.00 88.00 
C 430.26 88.23 430.79 88.73 431.00 89.00
C 437.11 90.12 438.02 82.89 444.00 84.00
C 447.73 76.17 456.56 70.82 457.00 61.00
C 453.23 66.08 450.91 72.16 446.25 77.25 C 441.58 82.34 434.95 84.05 430.00 88.00 Z"/>
</g>
<g fill="#520D2A" fill-opacity="0.99" stroke="None">
<path d="
M 431.00 89.00 
C 437.48 95.35 441.94 102.89 442.00 112.00
C 451.44 105.88 461.19 94.85 462.00 83.00
C 462.20 80.09 462.20 76.91 462.00 74.00
C 461.74 70.12 460.67 64.02 458.00 61.00
C 458.00 61.00 457.18 60.76 457.00 61.00
C 456.56 70.82 447.73 76.17 444.00 84.00
C 438.02 82.89 437.11 90.12 431.00 89.00 Z"/>
</g>
<g fill="#DE6E66" fill-opacity="1.00" stroke="None">
<path d="
M 402.00 70.00 
C 402.34 69.98 403.09 69.24 403.00 69.00
C 401.81 68.10 399.05 65.43 398.00 65.00
C 397.89 64.96 397.06 66.08 396.00 65.00
C 397.08 66.77 399.19 69.95 402.00 70.00 Z"/>
</g>
<g fill="#90677B" fill-opacity="0.95" stroke="None">
<path d="
M 462.00 83.00 
C 462.56 79.85 462.57 77.20 462.00 74.00
C 462.20 76.91 462.20 80.09 462.00 83.00 Z"/>
</g>
<g fill="#E490A7" fill-opacity="0.89" stroke="None">
<path d="
M 380.00 81.00 
C 374.81 81.35 369.20 81.28 364.00 81.00
C 369.10 81.83 374.83 81.93 380.00 81.00 Z"/>
</g>
<g fill="#F9BCCA" fill-opacity="0.71" stroke="None">
<path d="
M 297.00 104.00 
C 297.00 99.33 297.00 94.67 297.00 90.00
C 296.58 94.34 296.57 99.60 297.00 104.00 Z"/>
</g>
<g fill="#F9B5C7" fill-opacity="0.52" stroke="None">
<path d="
M 248.00 200.00 
C 252.67 200.00 257.33 200.00 262.00 200.00
C 257.66 199.58 252.40 199.57 248.00 200.00 Z"/>
</g>
<g fill="#FFD0E3" fill-opacity="0.37" stroke="None">
<path d="
M 124.00 269.00 
C 127.61 265.49 131.40 261.60 135.00 258.00
C 131.10 261.33 127.43 265.10 124.00 269.00 Z"/>
</g>
<g fill="#FEC6D7" fill-opacity="0.58" stroke="None">
<path d="
M 463.00 279.00 
C 463.39 274.98 463.40 270.09 463.00 266.00
C 463.00 270.33 463.00 274.67 463.00 279.00 Z"/>
</g>
<g fill="#AD7F8E" fill-opacity="0.73" stroke="None">
<path d="
M 20.00 424.00 
C 19.76 424.25 18.38 423.78 18.00 424.00
C 15.64 426.33 14.83 430.10 13.00 433.00
C 16.34 431.69 17.52 426.93 20.00 424.00 Z"/>
</g>
<g fill="#000000" fill-opacity="0.00" stroke="None">
<path d="
M 227.00 441.00 
C 222.48 446.50 224.46 457.25 221.22 464.22 C 217.99 471.20 218.41 481.23 216.02 489.02 C 213.64 496.82 213.44 506.33 211.67 514.67 C 209.91 523.02 209.22 532.26 208.00 541.00 C 206.78 549.74 205.48 558.91 205.00 568.00 C 204.52 577.09 202.14 585.70 202.01 595.01 C 201.88 604.32 200.38 613.69 200.02 623.02 C 199.67 632.36 199.00 642.61 199.00 652.00
C 199.00 655.00 199.00 658.00 199.00 661.00
C 202.55 663.49 210.62 660.38 215.00 662.00 C 219.38 663.62 225.29 662.69 230.02 663.98 C 234.76 665.26 241.07 664.04 246.00 665.00 C 250.93 665.96 255.91 666.47 261.00 667.00
C 262.30 666.80 263.69 667.15 265.00 667.00
C 265.00 592.33 265.00 517.67 265.00 443.00
C 265.00 442.50 265.24 441.31 265.00 441.00
C 258.65 438.74 253.15 433.95 248.00 429.00
C 243.15 434.33 234.67 441.31 227.00 441.00 Z"/>
</g>
<g fill="#553035" fill-opacity="0.95" stroke="None">
<path d="
M 218.00 442.00 
C 220.27 439.86 224.26 441.58 227.00 441.00
C 225.93 440.96 220.56 439.45 219.00 439.00
C 218.29 439.45 218.18 441.34 218.00 442.00 Z"/>
</g>
<g fill="#985B67" fill-opacity="1.00" stroke="None">
<path d="
M 265.00 441.00 
C 265.24 441.31 265.00 442.50 265.00 443.00
C 265.34 443.23 266.00 443.00 266.00 443.00
C 266.66 440.55 269.37 440.52 272.00 441.00
C 272.48 441.09 273.00 441.00 273.00 441.00
C 271.56 439.93 266.61 438.92 265.00 441.00 Z"/>
</g>
<g fill="#252424" fill-opacity="0.99" stroke="None">
<path d="
M 218.00 442.00 
C 201.95 499.71 192.00 563.65 192.00 625.00
C 192.00 628.10 191.23 631.64 191.00 634.00
C 191.00 638.33 191.00 642.67 191.00 647.00
C 191.00 654.00 191.00 661.00 191.00 668.00
C 192.00 668.11 193.73 667.53 194.00 669.00
C 201.47 670.88 211.59 669.38 218.93 671.07 C 226.26 672.76 235.29 671.95 242.00 674.00 C 248.71 676.05 260.30 672.30 265.00 677.00
C 269.11 681.11 265.00 692.85 266.00 699.00 C 267.00 705.15 265.97 715.43 266.00 722.00 C 266.03 728.57 266.93 738.74 266.00 745.00 C 265.07 751.26 268.97 762.66 265.00 767.00
C 256.87 768.79 248.21 774.07 245.00 782.00
C 249.33 782.00 253.67 782.00 258.00 782.00
C 261.42 782.00 265.31 782.74 268.00 783.00
C 276.06 783.00 283.75 784.00 292.00 784.00
C 300.25 784.00 308.78 784.63 317.00 784.00
C 321.30 783.18 329.86 779.23 324.07 774.93 C 318.29 770.62 313.51 775.11 308.00 773.00 C 302.49 770.89 294.04 774.45 289.07 771.93 C 284.11 769.40 279.03 770.28 275.00 767.00
C 267.91 761.23 275.87 740.10 273.00 732.00 C 270.13 723.90 273.79 720.43 273.00 714.00 C 272.21 707.57 272.50 700.14 273.00 695.00 C 273.50 689.86 270.40 679.36 274.00 677.00
C 298.92 680.02 324.04 682.22 349.00 685.00
C 350.13 696.60 355.76 706.02 356.00 718.00
C 356.34 720.83 357.21 724.48 357.00 728.00
C 356.74 732.37 354.05 738.36 358.78 742.22 C 363.51 746.08 366.34 737.48 367.00 734.00
C 367.63 725.78 367.00 717.25 367.00 709.00
C 367.00 706.33 367.00 703.67 367.00 701.00
C 366.80 698.90 366.00 695.77 366.00 693.00
C 366.00 690.00 366.00 687.00 366.00 684.00
C 365.77 681.58 365.00 678.09 365.00 675.00
C 365.00 670.67 365.00 666.33 365.00 662.00
C 358.74 663.85 354.54 670.44 352.00 676.00
C 339.47 674.51 325.78 675.12 313.67 672.33 C 301.56 669.54 287.62 672.92 276.00 669.00
C 268.58 666.50 274.38 647.40 273.00 639.00 C 271.62 630.60 273.64 615.82 273.00 606.00 C 272.36 596.18 273.32 583.47 273.00 573.00 C 272.68 562.53 273.22 550.75 273.00 540.00 C 272.78 529.25 273.25 517.87 273.00 507.00 C 272.75 496.13 273.46 484.90 273.00 474.00 C 272.54 463.10 273.98 451.87 273.00 441.00
C 273.00 441.00 272.48 441.09 272.00 441.00
C 271.22 443.92 268.78 442.81 266.00 443.00
C 269.34 480.16 264.27 517.65 266.00 555.00 C 267.73 592.35 264.70 630.57 266.00 668.00
C 264.43 667.61 261.78 668.94 261.00 667.00
C 255.91 666.47 250.93 665.96 246.00 665.00 C 241.07 664.04 234.76 665.26 230.02 663.98 C 225.29 662.69 219.38 663.62 215.00 662.00 C 210.62 660.38 202.55 663.49 199.00 661.00
C 196.30 659.11 198.82 653.90 199.00 652.00
C 199.00 642.61 199.67 632.36 200.02 623.02 C 200.38 613.69 201.88 604.32 202.01 595.01 C 202.14 585.70 204.52 577.09 205.00 568.00 C 205.48 558.91 206.78 549.74 208.00 541.00 C 209.22 532.26 209.91 523.02 211.67 514.67 C 213.44 506.33 213.64 496.82 216.02 489.02 C 218.41 481.23 217.99 471.20 221.22 464.22 C 224.46 457.25 222.48 446.50 227.00 441.00
C 224.26 441.58 220.27 439.86 218.00 442.00 Z"/>
</g>
<g fill="#301216" fill-opacity="1.00" stroke="None">
<path d="
M 266.00 443.00 
C 268.78 442.81 271.22 443.92 272.00 441.00
C 269.37 440.52 266.66 440.55 266.00 443.00 Z"/>
</g>
<g fill="#757474" fill-opacity="0.99" stroke="None">
<path d="
M 276.00 669.00 
C 270.31 666.16 275.26 651.64 274.00 645.00 C 272.74 638.36 274.59 626.63 274.00 619.00 C 273.41 611.37 274.26 602.13 274.00 594.00 C 273.74 585.87 274.13 576.33 274.00 568.00 C 273.87 559.67 274.08 551.43 274.00 543.00 C 273.92 534.57 274.09 525.46 274.00 517.00 C 273.91 508.54 274.16 500.47 274.00 492.00 C 273.84 483.53 274.33 474.44 274.00 466.00 C 273.67 457.56 274.75 449.37 274.00 441.00
C 274.00 441.00 273.32 441.24 273.00 441.00
C 273.98 451.87 272.54 463.10 273.00 474.00 C 273.46 484.90 272.75 496.13 273.00 507.00 C 273.25 517.87 272.78 529.25 273.00 540.00 C 273.22 550.75 272.68 562.53 273.00 573.00 C 273.32 583.47 272.36 596.18 273.00 606.00 C 273.64 615.82 271.62 630.60 273.00 639.00 C 274.38 647.40 268.58 666.50 276.00 669.00 Z"/>
</g>
<g fill="#5E5E5E" fill-opacity="1.00" stroke="None">
<path d="
M 261.00 667.00 
C 261.78 668.94 264.43 667.61 266.00 668.00
C 264.70 630.57 267.73 592.35 266.00 555.00 C 264.27 517.65 269.34 480.16 266.00 443.00
C 266.00 443.00 265.34 443.23 265.00 443.00
C 265.00 517.67 265.00 592.33 265.00 667.00
C 263.69 667.15 262.30 666.80 261.00 667.00 Z"/>
</g>
<g fill="#959595" fill-opacity="0.80" stroke="None">
<path d="
M 191.00 634.00 
C 191.23 631.64 192.00 628.10 192.00 625.00
C 191.77 627.36 191.00 630.90 191.00 634.00 Z"/>
</g>
<g fill="#818181" fill-opacity="0.89" stroke="None">
<path d="
M 194.00 669.00 
C 193.73 667.53 192.00 668.11 191.00 668.00
C 191.00 661.00 191.00 654.00 191.00 647.00
C 190.44 652.79 186.49 667.11 194.00 669.00 Z"/>
</g>
<g fill="#585556" fill-opacity="1.00" stroke="None">
<path d="
M 199.00 661.00 
C 199.00 658.00 199.00 655.00 199.00 652.00
C 198.82 653.90 196.30 659.11 199.00 661.00 Z"/>
</g>
<g fill="#9A9899" fill-opacity="0.80" stroke="None">
<path d="
M 366.00 684.00 
C 366.00 680.91 365.23 677.42 365.00 675.00
C 365.00 678.09 365.77 681.58 366.00 684.00 Z"/>
</g>
<g fill="#626262" fill-opacity="1.00" stroke="None">
<path d="
M 265.00 767.00 
C 268.97 762.66 265.07 751.26 266.00 745.00 C 266.93 738.74 266.03 728.57 266.00 722.00 C 265.97 715.43 267.00 705.15 266.00 699.00 C 265.00 692.85 269.11 681.11 265.00 677.00
C 267.82 681.03 263.73 689.89 265.00 695.00 C 266.27 700.11 264.42 707.41 265.00 713.00 C 265.58 718.59 264.73 725.19 265.00 731.00 C 265.27 736.81 264.86 743.10 265.00 749.00 C 265.14 754.90 264.89 761.07 265.00 767.00 Z"/>
</g>
<g fill="#717171" fill-opacity="0.99" stroke="None">
<path d="
M 275.00 767.00 
C 270.68 762.09 275.30 751.54 274.00 745.00 C 272.70 738.46 274.61 729.09 274.00 722.00 C 273.39 714.91 274.33 706.26 274.00 699.00 C 273.67 691.74 274.25 684.28 274.00 677.00
C 270.40 679.36 273.50 689.86 273.00 695.00 C 272.50 700.14 272.21 707.57 273.00 714.00 C 273.79 720.43 270.13 723.90 273.00 732.00 C 275.87 740.10 267.91 761.23 275.00 767.00 Z"/>
</g>
<g fill="#8E8C8D" fill-opacity="0.86" stroke="None">
<path d="
M 367.00 701.00 
C 367.00 698.23 366.20 695.10 366.00 693.00
C 366.00 695.77 366.80 698.90 367.00 701.00 Z"/>
</g>
<g fill="#716E6F" fill-opacity="0.91" stroke="None">
<path d="
M 367.00 734.00 
C 368.47 726.26 367.75 716.77 367.00 709.00
C 367.00 717.25 367.63 725.78 367.00 734.00 Z"/>
</g>
<g fill="#B4B2B2" fill-opacity="0.67" stroke="None">
<path d="
M 357.00 728.00 
C 357.21 724.48 356.34 720.83 356.00 718.00
C 356.07 721.25 356.89 725.45 357.00 728.00 Z"/>
</g>
<g fill="#8E8B8C" fill-opacity="0.86" stroke="None">
<path d="
M 268.00 783.00 
C 265.31 782.74 261.42 782.00 258.00 782.00
C 260.69 782.26 264.58 783.00 268.00 783.00 Z"/>
</g>
<g fill="#6D6D6D" fill-opacity="0.94" stroke="None">
<path d="
M 317.00 784.00 
C 308.78 784.63 300.25 784.00 292.00 784.00
C 299.70 784.75 309.20 785.48 317.00 784.00 Z"/>
</g>
</svg>