<svg xmlns="http://www.w3.org/2000/svg" xmlns:v="https://svgstorm.com"
viewBox = "0 0 482 796"
width="482"
height="796">
<g fill="None" fill-opacity="0.0" stroke="#000000" stroke-opacity="0.00" stroke-width="0.3"><path d="
M 0.00 796.00 
L 482.00 796.00
L 482.00 0.00
L 0.00 0.00
L 0.00 796.00
M 185.00 90.00 
C 185.43 94.40 185.42 99.66 185.00 104.00
C 185.00 131.63 168.00 158.20 150.25 178.25 C 132.50 198.30 110.42 210.68 91.25 229.25 C 72.07 247.82 55.78 283.07 86.00 300.00
C 117.25 253.82 160.65 202.74 220.00 200.00
C 224.40 199.57 229.66 199.58 234.00 200.00
C 278.75 200.00 314.49 230.22 347.00 258.00
C 350.95 261.38 354.62 265.16 358.00 269.00
C 402.24 311.96 436.28 367.96 463.00 422.00
C 464.74 425.52 467.59 429.06 469.00 433.00
C 465.59 431.86 464.62 426.68 462.00 424.00
C 461.13 422.97 460.52 421.29 459.00 421.00
C 461.42 429.95 469.15 437.23 469.00 447.00
C 445.13 441.10 428.64 418.74 407.00 408.00
C 411.20 414.97 417.17 424.61 402.33 419.67 C 387.48 414.73 372.93 406.90 358.00 402.00
C 363.00 408.04 365.15 406.74 371.25 412.75 C 377.35 418.76 370.94 421.38 363.00 421.00 C 355.06 420.62 347.80 420.31 340.00 420.00 C 332.20 419.69 325.29 417.12 317.00 419.00 C 308.71 420.88 323.94 428.07 323.00 432.00
C 306.77 433.20 292.47 426.87 277.00 425.00
C 275.14 431.65 268.71 436.32 263.00 439.00
C 262.76 439.18 263.00 440.00 263.00 440.00
C 272.36 457.12 270.91 477.65 276.00 497.00 C 281.09 516.35 282.31 538.37 285.00 559.00 C 287.69 579.63 289.57 603.55 290.00 625.00
C 290.17 626.75 290.95 629.60 291.00 632.00
C 291.10 637.00 291.00 642.00 291.00 647.00
C 291.75 654.79 296.07 667.59 286.00 669.00
C 280.40 669.78 274.56 670.24 268.99 670.99 C 263.43 671.74 257.17 671.48 251.93 672.93 C 246.68 674.38 239.08 672.14 234.33 674.33 C 229.58 676.52 220.87 673.06 217.00 676.00
C 217.00 706.33 217.00 736.67 217.00 767.00
C 218.00 767.11 219.73 766.53 220.00 768.00
C 226.60 771.02 234.64 774.30 237.00 782.00
C 221.17 781.99 205.91 784.28 190.00 784.00
C 182.23 784.75 172.74 785.47 165.00 784.00
C 161.49 783.34 152.09 779.83 157.26 775.26 C 162.43 770.68 167.81 775.06 173.07 773.07 C 178.34 771.09 187.08 774.34 192.00 772.00 C 196.92 769.66 202.90 770.34 207.00 767.00
C 211.25 762.17 206.80 752.53 208.00 746.00 C 209.20 739.47 207.44 730.14 208.00 723.00 C 208.56 715.86 207.71 707.39 208.00 700.00 C 208.29 692.61 207.78 684.46 208.00 677.00
C 204.41 674.64 195.89 679.91 191.00 679.00 C 186.11 678.09 179.42 681.09 173.98 680.98 C 168.53 680.86 162.41 682.08 156.78 682.78 C 151.15 683.48 143.83 683.55 138.00 684.00
C 136.91 684.18 134.76 685.88 133.00 685.00
C 132.48 687.20 134.14 690.62 132.00 692.00
C 129.69 700.90 126.19 708.33 126.00 718.00
C 125.94 721.25 125.10 725.52 125.00 728.00
C 125.23 731.88 126.58 737.33 124.00 741.00
C 122.21 743.54 121.26 742.89 119.00 742.00
C 115.03 741.30 115.60 737.18 115.00 734.00
C 113.52 726.20 114.25 716.70 115.00 709.00
C 115.00 700.40 116.00 692.44 116.00 684.00
C 116.00 680.90 116.77 677.36 117.00 675.00
C 117.00 670.67 117.00 666.33 117.00 662.00
C 123.25 663.87 127.48 670.42 130.00 676.00
C 155.58 674.67 180.41 670.33 206.00 669.00
C 211.58 666.21 206.80 652.53 208.00 646.00 C 209.20 639.47 207.48 628.65 208.00 621.00 C 208.52 613.35 207.75 603.11 208.00 595.00 C 208.25 586.89 207.88 578.33 208.00 570.00 C 208.12 561.67 207.92 552.43 208.00 544.00 C 208.08 535.57 207.91 527.47 208.00 519.00 C 208.09 510.53 207.83 501.49 208.00 493.00 C 208.17 484.51 207.64 476.50 208.00 468.00 C 208.36 459.50 207.23 450.49 208.00 442.00
C 206.04 437.03 195.85 436.80 192.75 430.25 C 189.65 423.69 185.17 416.27 187.00 408.00
C 151.57 398.60 119.12 376.70 86.92 360.08 C 54.73 343.45 19.48 319.22 19.00 279.00
C 18.60 274.91 18.61 270.02 19.00 266.00
C 19.00 228.16 51.32 193.69 80.08 172.08 C 108.85 150.47 149.38 117.40 130.00 78.00
C 114.27 85.14 94.40 82.95 81.00 72.00
C 80.71 71.79 79.00 70.00 79.00 70.00
C 70.69 76.36 60.20 80.85 52.00 88.00
C 44.79 94.29 40.24 102.66 40.00 112.00
C 29.95 105.88 21.61 94.84 20.00 83.00
C 19.43 79.80 19.44 77.15 20.00 74.00
C 20.26 70.14 21.30 66.46 23.00 63.00
C 23.30 62.38 23.65 61.56 24.00 61.00
C 29.63 51.95 36.38 46.29 44.75 39.75 C 53.11 33.20 65.27 31.50 74.00 26.00
C 74.36 25.77 75.00 26.00 75.00 26.00
C 92.47 1.01 127.00 8.34 146.75 25.25 C 166.49 42.16 185.00 62.39 185.00 90.00 Z"/>
</g>
<g fill="None" fill-opacity="0.0" stroke="#FA4E80" stroke-opacity="1.00" stroke-width="0.3"><path d="
M 75.00 26.00 
C 84.55 20.54 93.62 25.50 105.01 27.99 C 116.40 30.48 106.12 41.99 98.75 44.75 C 91.38 47.52 88.79 60.30 85.00 66.00
C 83.48 68.29 79.87 69.71 81.00 72.00
C 94.40 82.95 114.27 85.14 130.00 78.00
C 149.38 117.40 108.85 150.47 80.08 172.08 C 51.32 193.69 19.00 228.16 19.00 266.00
C 19.00 270.33 19.00 274.67 19.00 279.00
C 19.48 319.22 54.73 343.45 86.92 360.08 C 119.12 376.70 151.57 398.60 187.00 408.00
C 185.17 416.27 189.65 423.69 192.75 430.25 C 195.85 436.80 206.04 437.03 208.00 442.00
C 208.07 442.17 209.00 442.00 209.00 442.00
C 210.74 440.71 213.59 440.77 216.00 441.00
C 216.50 441.05 217.00 441.00 217.00 441.00
C 222.58 438.08 229.41 435.17 233.00 429.00
C 239.28 435.18 246.60 439.22 255.00 441.00
C 256.66 441.03 260.91 439.57 263.00 439.00
C 268.71 436.32 275.14 431.65 277.00 425.00
C 292.47 426.87 306.77 433.20 323.00 432.00
C 323.94 428.07 308.71 420.88 317.00 419.00 C 325.29 417.12 332.20 419.69 340.00 420.00 C 347.80 420.31 355.06 420.62 363.00 421.00 C 370.94 421.38 377.35 418.76 371.25 412.75 C 365.15 406.74 363.00 408.04 358.00 402.00
C 372.93 406.90 387.48 414.73 402.33 419.67 C 417.17 424.61 411.20 414.97 407.00 408.00
C 428.64 418.74 445.13 441.10 469.00 447.00
C 469.15 437.23 461.42 429.95 459.00 421.00
C 460.52 421.29 461.13 422.97 462.00 424.00
C 462.00 423.97 463.01 422.67 463.00 422.00
C 436.28 367.96 402.24 311.96 358.00 269.00
C 354.34 265.44 350.56 261.56 347.00 258.00
C 314.49 230.22 278.75 200.00 234.00 200.00
C 229.33 200.00 224.67 200.00 220.00 200.00
C 160.65 202.74 117.25 253.82 86.00 300.00
C 55.78 283.07 72.07 247.82 91.25 229.25 C 110.42 210.68 132.50 198.30 150.25 178.25 C 168.00 158.20 185.00 131.63 185.00 104.00
C 185.00 99.33 185.00 94.67 185.00 90.00
C 185.00 62.39 166.49 42.16 146.75 25.25 C 127.00 8.34 92.47 1.01 75.00 26.00 Z"/>
</g>
<g fill="None" fill-opacity="0.0" stroke="#A61736" stroke-opacity="1.00" stroke-width="0.3"><path d="
M 75.00 26.00 
C 75.00 26.00 74.36 25.77 74.00 26.00
C 74.94 32.37 78.50 36.64 80.99 43.01 C 83.49 49.37 82.97 57.86 84.00 65.00
C 84.05 65.35 85.02 65.88 85.00 66.00
C 88.79 60.30 91.38 47.52 98.75 44.75 C 106.12 41.99 116.40 30.48 105.01 27.99 C 93.62 25.50 84.55 20.54 75.00 26.00
M 104.00 31.00 
C 109.73 32.65 105.77 42.29 100.00 40.00 C 94.22 37.71 97.74 29.20 104.00 31.00 Z"/>
</g>
<g fill="None" fill-opacity="0.0" stroke="#FAC36F" stroke-opacity="0.99" stroke-width="0.3"><path d="
M 24.00 61.00 
C 26.72 60.23 29.71 70.08 31.00 72.00
C 34.39 77.04 45.46 88.47 52.00 88.00
C 60.20 80.85 70.69 76.36 79.00 70.00
C 80.56 68.80 81.74 65.30 84.00 65.00
C 82.97 57.86 83.49 49.37 80.99 43.01 C 78.50 36.64 74.94 32.37 74.00 26.00
C 65.27 31.50 53.11 33.20 44.75 39.75 C 36.38 46.29 29.63 51.95 24.00 61.00 Z"/>
</g>
<g fill="None" fill-opacity="0.0" stroke="#5C1421" stroke-opacity="1.00" stroke-width="0.3"><path d="
M 104.00 31.00 
C 97.74 29.20 94.22 37.71 100.00 40.00 C 105.77 42.29 109.73 32.65 104.00 31.00
M 105.00 33.00 
C 104.14 44.15 92.98 30.68 105.00 33.00 Z"/>
</g>
<g fill="None" fill-opacity="0.0" stroke="#2B1A17" stroke-opacity="1.00" stroke-width="0.3"><path d="
M 105.00 33.00 
C 92.98 30.68 104.14 44.15 105.00 33.00 Z"/>
</g>
<g fill="None" fill-opacity="0.0" stroke="#672920" stroke-opacity="1.00" stroke-width="0.3"><path d="
M 23.00 63.00 
C 24.08 65.23 28.96 70.02 31.00 72.00
C 29.71 70.08 26.72 60.23 24.00 61.00
C 23.65 61.56 23.30 62.38 23.00 63.00 Z"/>
</g>
<g fill="None" fill-opacity="0.0" stroke="#520D27" stroke-opacity="0.99" stroke-width="0.3"><path d="
M 20.00 74.00 
C 19.80 76.91 19.80 80.09 20.00 83.00
C 21.61 94.84 29.95 105.88 40.00 112.00
C 40.24 102.66 44.79 94.29 52.00 88.00
C 45.46 88.47 34.39 77.04 31.00 72.00
C 28.96 70.02 24.08 65.23 23.00 63.00
C 21.30 66.46 20.26 70.14 20.00 74.00 Z"/>
</g>
<g fill="None" fill-opacity="0.0" stroke="#E78670" stroke-opacity="0.87" stroke-width="0.3"><path d="
M 79.00 70.00 
C 79.00 70.00 80.71 71.79 81.00 72.00
C 79.87 69.71 83.48 68.29 85.00 66.00
C 85.02 65.88 84.05 65.35 84.00 65.00
C 81.74 65.30 80.56 68.80 79.00 70.00 Z"/>
</g>
<g fill="None" fill-opacity="0.0" stroke="#926B7C" stroke-opacity="0.95" stroke-width="0.3"><path d="
M 20.00 83.00 
C 19.80 80.09 19.80 76.91 20.00 74.00
C 19.44 77.15 19.43 79.80 20.00 83.00 Z"/>
</g>
<g fill="None" fill-opacity="0.0" stroke="#F8A1B8" stroke-opacity="0.71" stroke-width="0.3"><path d="
M 185.00 104.00 
C 185.42 99.66 185.43 94.40 185.00 90.00
C 185.00 94.67 185.00 99.33 185.00 104.00 Z"/>
</g>
<g fill="None" fill-opacity="0.0" stroke="#F9A2B9" stroke-opacity="0.52" stroke-width="0.3"><path d="
M 220.00 200.00 
C 224.67 200.00 229.33 200.00 234.00 200.00
C 229.66 199.58 224.40 199.57 220.00 200.00 Z"/>
</g>
<g fill="None" fill-opacity="0.0" stroke="#FCA5BF" stroke-opacity="0.37" stroke-width="0.3"><path d="
M 358.00 269.00 
C 354.62 265.16 350.95 261.38 347.00 258.00
C 350.56 261.56 354.34 265.44 358.00 269.00 Z"/>
</g>
<g fill="None" fill-opacity="0.0" stroke="#FBA9C3" stroke-opacity="0.58" stroke-width="0.3"><path d="
M 19.00 279.00 
C 19.00 274.67 19.00 270.33 19.00 266.00
C 18.61 270.02 18.60 274.91 19.00 279.00 Z"/>
</g>
<g fill="None" fill-opacity="0.0" stroke="#AB7787" stroke-opacity="0.76" stroke-width="0.3"><path d="
M 462.00 424.00 
C 464.62 426.68 465.59 431.86 469.00 433.00
C 467.59 429.06 464.74 425.52 463.00 422.00
C 463.01 422.67 462.00 423.97 462.00 424.00 Z"/>
</g>
<g fill="None" fill-opacity="0.0" stroke="#000000" stroke-opacity="0.00" stroke-width="0.3"><path d="
M 217.00 441.00 
C 220.39 478.36 215.23 516.49 217.00 554.00 C 218.77 591.51 215.67 629.45 217.00 667.00
C 218.00 667.00 219.00 667.00 220.00 667.00
C 225.20 666.88 230.23 666.00 235.22 665.22 C 240.21 664.44 246.20 665.12 251.00 664.00 C 255.80 662.88 261.57 663.73 266.02 662.02 C 270.47 660.32 279.28 663.60 283.00 661.00
C 283.00 658.00 283.00 655.00 283.00 652.00
C 283.00 636.55 281.00 621.53 281.00 606.00
C 280.80 603.95 280.10 600.69 280.00 598.00
C 279.65 588.78 278.00 579.84 277.22 570.78 C 276.44 561.72 275.79 552.52 274.22 543.78 C 272.65 535.04 272.69 524.49 271.00 516.00 C 269.31 507.51 268.19 498.92 266.07 490.93 C 263.96 482.93 264.49 473.09 261.02 465.98 C 257.56 458.86 259.78 446.82 255.00 441.00
C 246.60 439.22 239.28 435.18 233.00 429.00
C 229.41 435.17 222.58 438.08 217.00 441.00 Z"/>
</g>
<g fill="None" fill-opacity="0.0" stroke="#38151B" stroke-opacity="1.00" stroke-width="0.3"><path d="
M 255.00 441.00 
C 257.68 440.60 261.08 441.98 263.00 440.00
C 263.00 440.00 262.76 439.18 263.00 439.00
C 260.91 439.57 256.66 441.03 255.00 441.00 Z"/>
</g>
<g fill="None" fill-opacity="0.0" stroke="#252323" stroke-opacity="0.99" stroke-width="0.3"><path d="
M 255.00 441.00 
C 259.78 446.82 257.56 458.86 261.02 465.98 C 264.49 473.09 263.96 482.93 266.07 490.93 C 268.19 498.92 269.31 507.51 271.00 516.00 C 272.69 524.49 272.65 535.04 274.22 543.78 C 275.79 552.52 276.44 561.72 277.22 570.78 C 278.00 579.84 279.65 588.78 280.00 598.00
C 280.32 600.21 281.00 603.14 281.00 606.00
C 281.00 621.53 283.00 636.55 283.00 652.00
C 283.20 654.03 285.73 659.09 283.00 661.00
C 279.28 663.60 270.47 660.32 266.02 662.02 C 261.57 663.73 255.80 662.88 251.00 664.00 C 246.20 665.12 240.21 664.44 235.22 665.22 C 230.23 666.00 225.20 666.88 220.00 667.00
C 219.43 667.01 217.28 668.97 216.00 668.00
C 216.00 592.33 216.00 516.67 216.00 441.00
C 213.59 440.77 210.74 440.71 209.00 442.00
C 212.40 479.48 207.24 517.32 209.00 555.00 C 210.76 592.68 207.68 631.24 209.00 669.00
C 208.00 669.00 207.00 669.00 206.00 669.00
C 180.41 670.33 155.58 674.67 130.00 676.00
C 127.48 670.42 123.25 663.87 117.00 662.00
C 117.00 666.33 117.00 670.67 117.00 675.00
C 117.00 678.10 116.23 681.64 116.00 684.00
C 116.00 692.44 115.00 700.40 115.00 709.00
C 115.00 717.25 114.37 725.78 115.00 734.00
C 115.60 737.18 115.03 741.30 119.00 742.00
C 120.49 742.26 122.87 742.07 124.00 741.00
C 126.58 737.33 125.23 731.88 125.00 728.00
C 124.79 724.47 125.67 720.77 126.00 718.00
C 126.19 708.33 129.69 700.90 132.00 692.00
C 132.97 685.89 130.97 684.54 138.00 684.00
C 143.83 683.55 151.15 683.48 156.78 682.78 C 162.41 682.08 168.53 680.86 173.98 680.98 C 179.42 681.09 186.11 678.09 191.00 679.00 C 195.89 679.91 204.41 674.64 208.00 677.00
C 211.65 679.40 208.12 689.21 209.00 694.00 C 209.88 698.79 208.68 707.57 209.00 713.00 C 209.32 718.43 209.11 725.36 209.00 731.00 C 208.89 736.64 209.55 744.52 209.00 750.00 C 208.45 755.48 211.28 763.52 207.00 767.00
C 202.90 770.34 196.92 769.66 192.00 772.00 C 187.08 774.34 178.34 771.09 173.07 773.07 C 167.81 775.06 162.43 770.68 157.26 775.26 C 152.09 779.83 161.49 783.34 165.00 784.00
C 173.22 784.63 181.75 784.00 190.00 784.00
C 205.91 784.28 221.17 781.99 237.00 782.00
C 234.64 774.30 226.60 771.02 220.00 768.00
C 214.25 765.37 215.97 759.46 216.00 753.00 C 216.03 746.54 215.79 740.27 216.00 734.00 C 216.21 727.73 215.51 719.95 216.00 714.00 C 216.49 708.05 214.84 700.17 216.00 695.00 C 217.16 689.83 213.08 678.98 217.00 676.00
C 220.87 673.06 229.58 676.52 234.33 674.33 C 239.08 672.14 246.68 674.38 251.93 672.93 C 257.17 671.48 263.43 671.74 268.99 670.99 C 274.56 670.24 280.40 669.78 286.00 669.00
C 287.19 668.71 289.16 667.20 291.00 668.00
C 291.00 661.00 291.00 654.00 291.00 647.00
C 291.00 642.00 291.10 637.00 291.00 632.00
C 290.83 630.25 290.05 627.40 290.00 625.00
C 289.57 603.55 287.69 579.63 285.00 559.00 C 282.31 538.37 281.09 516.35 276.00 497.00 C 270.91 477.65 272.36 457.12 263.00 440.00
C 261.08 441.98 257.68 440.60 255.00 441.00 Z"/>
</g>
<g fill="None" fill-opacity="0.0" stroke="#626061" stroke-opacity="1.00" stroke-width="0.3"><path d="
M 220.00 667.00 
C 219.00 667.00 218.00 667.00 217.00 667.00
C 215.67 629.45 218.77 591.51 217.00 554.00 C 215.23 516.49 220.39 478.36 217.00 441.00
C 217.00 441.00 216.50 441.05 216.00 441.00
C 216.00 516.67 216.00 592.33 216.00 668.00
C 217.28 668.97 219.43 667.01 220.00 667.00 Z"/>
</g>
<g fill="None" fill-opacity="0.0" stroke="#747172" stroke-opacity="0.99" stroke-width="0.3"><path d="
M 206.00 669.00 
C 207.00 669.00 208.00 669.00 209.00 669.00
C 207.68 631.24 210.76 592.68 209.00 555.00 C 207.24 517.32 212.40 479.48 209.00 442.00
C 209.00 442.00 208.07 442.17 208.00 442.00
C 207.23 450.49 208.36 459.50 208.00 468.00 C 207.64 476.50 208.17 484.51 208.00 493.00 C 207.83 501.49 208.09 510.53 208.00 519.00 C 207.91 527.47 208.08 535.57 208.00 544.00 C 207.92 552.43 208.12 561.67 208.00 570.00 C 207.88 578.33 208.25 586.89 208.00 595.00 C 207.75 603.11 208.52 613.35 208.00 621.00 C 207.48 628.65 209.20 639.47 208.00 646.00 C 206.80 652.53 211.58 666.21 206.00 669.00 Z"/>
</g>
<g fill="None" fill-opacity="0.0" stroke="#7B7B7B" stroke-opacity="0.85" stroke-width="0.3"><path d="
M 281.00 606.00 
C 281.00 603.14 280.32 600.21 280.00 598.00
C 280.10 600.69 280.80 603.95 281.00 606.00 Z"/>
</g>
<g fill="None" fill-opacity="0.0" stroke="#929191" stroke-opacity="0.75" stroke-width="0.3"><path d="
M 291.00 632.00 
C 290.95 629.60 290.17 626.75 290.00 625.00
C 290.05 627.40 290.83 630.25 291.00 632.00 Z"/>
</g>
<g fill="None" fill-opacity="0.0" stroke="#757475" stroke-opacity="0.89" stroke-width="0.3"><path d="
M 286.00 669.00 
C 296.07 667.59 291.75 654.79 291.00 647.00
C 291.00 654.00 291.00 661.00 291.00 668.00
C 289.16 667.20 287.19 668.71 286.00 669.00 Z"/>
</g>
<g fill="None" fill-opacity="0.0" stroke="#5A5A5A" stroke-opacity="1.00" stroke-width="0.3"><path d="
M 283.00 661.00 
C 285.73 659.09 283.20 654.03 283.00 652.00
C 283.00 655.00 283.00 658.00 283.00 661.00 Z"/>
</g>
<g fill="None" fill-opacity="0.0" stroke="#8D8A8B" stroke-opacity="0.80" stroke-width="0.3"><path d="
M 116.00 684.00 
C 116.23 681.64 117.00 678.10 117.00 675.00
C 116.77 677.36 116.00 680.90 116.00 684.00 Z"/>
</g>
<g fill="None" fill-opacity="0.0" stroke="#626061" stroke-opacity="0.99" stroke-width="0.3"><path d="
M 220.00 768.00 
C 219.73 766.53 218.00 767.11 217.00 767.00
C 217.00 736.67 217.00 706.33 217.00 676.00
C 213.08 678.98 217.16 689.83 216.00 695.00 C 214.84 700.17 216.49 708.05 216.00 714.00 C 215.51 719.95 216.21 727.73 216.00 734.00 C 215.79 740.27 216.03 746.54 216.00 753.00 C 215.97 759.46 214.25 765.37 220.00 768.00 Z"/>
</g>
<g fill="None" fill-opacity="0.0" stroke="#767374" stroke-opacity="0.99" stroke-width="0.3"><path d="
M 207.00 767.00 
C 211.28 763.52 208.45 755.48 209.00 750.00 C 209.55 744.52 208.89 736.64 209.00 731.00 C 209.11 725.36 209.32 718.43 209.00 713.00 C 208.68 707.57 209.88 698.79 209.00 694.00 C 208.12 689.21 211.65 679.40 208.00 677.00
C 207.78 684.46 208.29 692.61 208.00 700.00 C 207.71 707.39 208.56 715.86 208.00 723.00 C 207.44 730.14 209.20 739.47 208.00 746.00 C 206.80 752.53 211.25 762.17 207.00 767.00 Z"/>
</g>
<g fill="None" fill-opacity="0.0" stroke="#7C7C7C" stroke-opacity="0.85" stroke-width="0.3"><path d="
M 132.00 692.00 
C 134.14 690.62 132.48 687.20 133.00 685.00
C 134.76 685.88 136.91 684.18 138.00 684.00
C 130.97 684.54 132.97 685.89 132.00 692.00 Z"/>
</g>
<g fill="None" fill-opacity="0.0" stroke="#6D6A6B" stroke-opacity="0.91" stroke-width="0.3"><path d="
M 115.00 734.00 
C 114.37 725.78 115.00 717.25 115.00 709.00
C 114.25 716.70 113.52 726.20 115.00 734.00 Z"/>
</g>
<g fill="None" fill-opacity="0.0" stroke="#9A999A" stroke-opacity="0.67" stroke-width="0.3"><path d="
M 125.00 728.00 
C 125.10 725.52 125.94 721.25 126.00 718.00
C 125.67 720.77 124.79 724.47 125.00 728.00 Z"/>
</g>
<g fill="None" fill-opacity="0.0" stroke="#7F7F7F" stroke-opacity="0.88" stroke-width="0.3"><path d="
M 119.00 742.00 
C 121.26 742.89 122.21 743.54 124.00 741.00
C 122.87 742.07 120.49 742.26 119.00 742.00 Z"/>
</g>
<g fill="None" fill-opacity="0.0" stroke="#666465" stroke-opacity="0.94" stroke-width="0.3"><path d="
M 190.00 784.00 
C 181.75 784.00 173.22 784.63 165.00 784.00
C 172.74 785.47 182.23 784.75 190.00 784.00 Z"/>
</g>
<g fill="#000000" fill-opacity="0.00" stroke="None">
<path d="
M 0.00 796.00 
L 482.00 796.00
L 482.00 0.00
L 0.00 0.00
L 0.00 796.00
M 185.00 90.00 
C 185.43 94.40 185.42 99.66 185.00 104.00
C 185.00 131.63 168.00 158.20 150.25 178.25 C 132.50 198.30 110.42 210.68 91.25 229.25 C 72.07 247.82 55.78 283.07 86.00 300.00
C 117.25 253.82 160.65 202.74 220.00 200.00
C 224.40 199.57 229.66 199.58 234.00 200.00
C 278.75 200.00 314.49 230.22 347.00 258.00
C 350.95 261.38 354.62 265.16 358.00 269.00
C 402.24 311.96 436.28 367.96 463.00 422.00
C 464.74 425.52 467.59 429.06 469.00 433.00
C 465.59 431.86 464.62 426.68 462.00 424.00
C 461.13 422.97 460.52 421.29 459.00 421.00
C 461.42 429.95 469.15 437.23 469.00 447.00
C 445.13 441.10 428.64 418.74 407.00 408.00
C 411.20 414.97 417.17 424.61 402.33 419.67 C 387.48 414.73 372.93 406.90 358.00 402.00
C 363.00 408.04 365.15 406.74 371.25 412.75 C 377.35 418.76 370.94 421.38 363.00 421.00 C 355.06 420.62 347.80 420.31 340.00 420.00 C 332.20 419.69 325.29 417.12 317.00 419.00 C 308.71 420.88 323.94 428.07 323.00 432.00
C 306.77 433.20 292.47 426.87 277.00 425.00
C 275.14 431.65 268.71 436.32 263.00 439.00
C 262.76 439.18 263.00 440.00 263.00 440.00
C 272.36 457.12 270.91 477.65 276.00 497.00 C 281.09 516.35 282.31 538.37 285.00 559.00 C 287.69 579.63 289.57 603.55 290.00 625.00
C 290.17 626.75 290.95 629.60 291.00 632.00
C 291.10 637.00 291.00 642.00 291.00 647.00
C 291.75 654.79 296.07 667.59 286.00 669.00
C 280.40 669.78 274.56 670.24 268.99 670.99 C 263.43 671.74 257.17 671.48 251.93 672.93 C 246.68 674.38 239.08 672.14 234.33 674.33 C 229.58 676.52 220.87 673.06 217.00 676.00
C 217.00 706.33 217.00 736.67 217.00 767.00
C 218.00 767.11 219.73 766.53 220.00 768.00
C 226.60 771.02 234.64 774.30 237.00 782.00
C 221.17 781.99 205.91 784.28 190.00 784.00
C 182.23 784.75 172.74 785.47 165.00 784.00
C 161.49 783.34 152.09 779.83 157.26 775.26 C 162.43 770.68 167.81 775.06 173.07 773.07 C 178.34 771.09 187.08 774.34 192.00 772.00 C 196.92 769.66 202.90 770.34 207.00 767.00
C 211.25 762.17 206.80 752.53 208.00 746.00 C 209.20 739.47 207.44 730.14 208.00 723.00 C 208.56 715.86 207.71 707.39 208.00 700.00 C 208.29 692.61 207.78 684.46 208.00 677.00
C 204.41 674.64 195.89 679.91 191.00 679.00 C 186.11 678.09 179.42 681.09 173.98 680.98 C 168.53 680.86 162.41 682.08 156.78 682.78 C 151.15 683.48 143.83 683.55 138.00 684.00
C 136.91 684.18 134.76 685.88 133.00 685.00
C 132.48 687.20 134.14 690.62 132.00 692.00
C 129.69 700.90 126.19 708.33 126.00 718.00
C 125.94 721.25 125.10 725.52 125.00 728.00
C 125.23 731.88 126.58 737.33 124.00 741.00
C 122.21 743.54 121.26 742.89 119.00 742.00
C 115.03 741.30 115.60 737.18 115.00 734.00
C 113.52 726.20 114.25 716.70 115.00 709.00
C 115.00 700.40 116.00 692.44 116.00 684.00
C 116.00 680.90 116.77 677.36 117.00 675.00
C 117.00 670.67 117.00 666.33 117.00 662.00
C 123.25 663.87 127.48 670.42 130.00 676.00
C 155.58 674.67 180.41 670.33 206.00 669.00
C 211.58 666.21 206.80 652.53 208.00 646.00 C 209.20 639.47 207.48 628.65 208.00 621.00 C 208.52 613.35 207.75 603.11 208.00 595.00 C 208.25 586.89 207.88 578.33 208.00 570.00 C 208.12 561.67 207.92 552.43 208.00 544.00 C 208.08 535.57 207.91 527.47 208.00 519.00 C 208.09 510.53 207.83 501.49 208.00 493.00 C 208.17 484.51 207.64 476.50 208.00 468.00 C 208.36 459.50 207.23 450.49 208.00 442.00
C 206.04 437.03 195.85 436.80 192.75 430.25 C 189.65 423.69 185.17 416.27 187.00 408.00
C 151.57 398.60 119.12 376.70 86.92 360.08 C 54.73 343.45 19.48 319.22 19.00 279.00
C 18.60 274.91 18.61 270.02 19.00 266.00
C 19.00 228.16 51.32 193.69 80.08 172.08 C 108.85 150.47 149.38 117.40 130.00 78.00
C 114.27 85.14 94.40 82.95 81.00 72.00
C 80.71 71.79 79.00 70.00 79.00 70.00
C 70.69 76.36 60.20 80.85 52.00 88.00
C 44.79 94.29 40.24 102.66 40.00 112.00
C 29.95 105.88 21.61 94.84 20.00 83.00
C 19.43 79.80 19.44 77.15 20.00 74.00
C 20.26 70.14 21.30 66.46 23.00 63.00
C 23.30 62.38 23.65 61.56 24.00 61.00
C 29.63 51.95 36.38 46.29 44.75 39.75 C 53.11 33.20 65.27 31.50 74.00 26.00
C 74.36 25.77 75.00 26.00 75.00 26.00
C 92.47 1.01 127.00 8.34 146.75 25.25 C 166.49 42.16 185.00 62.39 185.00 90.00 Z"/>
</g>
<g fill="#FA4E80" fill-opacity="1.00" stroke="None">
<path d="
M 75.00 26.00 
C 84.55 20.54 93.62 25.50 105.01 27.99 C 116.40 30.48 106.12 41.99 98.75 44.75 C 91.38 47.52 88.79 60.30 85.00 66.00
C 83.48 68.29 79.87 69.71 81.00 72.00
C 94.40 82.95 114.27 85.14 130.00 78.00
C 149.38 117.40 108.85 150.47 80.08 172.08 C 51.32 193.69 19.00 228.16 19.00 266.00
C 19.00 270.33 19.00 274.67 19.00 279.00
C 19.48 319.22 54.73 343.45 86.92 360.08 C 119.12 376.70 151.57 398.60 187.00 408.00
C 185.17 416.27 189.65 423.69 192.75 430.25 C 195.85 436.80 206.04 437.03 208.00 442.00
C 208.07 442.17 209.00 442.00 209.00 442.00
C 210.74 440.71 213.59 440.77 216.00 441.00
C 216.50 441.05 217.00 441.00 217.00 441.00
C 222.58 438.08 229.41 435.17 233.00 429.00
C 239.28 435.18 246.60 439.22 255.00 441.00
C 256.66 441.03 260.91 439.57 263.00 439.00
C 268.71 436.32 275.14 431.65 277.00 425.00
C 292.47 426.87 306.77 433.20 323.00 432.00
C 323.94 428.07 308.71 420.88 317.00 419.00 C 325.29 417.12 332.20 419.69 340.00 420.00 C 347.80 420.31 355.06 420.62 363.00 421.00 C 370.94 421.38 377.35 418.76 371.25 412.75 C 365.15 406.74 363.00 408.04 358.00 402.00
C 372.93 406.90 387.48 414.73 402.33 419.67 C 417.17 424.61 411.20 414.97 407.00 408.00
C 428.64 418.74 445.13 441.10 469.00 447.00
C 469.15 437.23 461.42 429.95 459.00 421.00
C 460.52 421.29 461.13 422.97 462.00 424.00
C 462.00 423.97 463.01 422.67 463.00 422.00
C 436.28 367.96 402.24 311.96 358.00 269.00
C 354.34 265.44 350.56 261.56 347.00 258.00
C 314.49 230.22 278.75 200.00 234.00 200.00
C 229.33 200.00 224.67 200.00 220.00 200.00
C 160.65 202.74 117.25 253.82 86.00 300.00
C 55.78 283.07 72.07 247.82 91.25 229.25 C 110.42 210.68 132.50 198.30 150.25 178.25 C 168.00 158.20 185.00 131.63 185.00 104.00
C 185.00 99.33 185.00 94.67 185.00 90.00
C 185.00 62.39 166.49 42.16 146.75 25.25 C 127.00 8.34 92.47 1.01 75.00 26.00 Z"/>
</g>
<g fill="#A61736" fill-opacity="1.00" stroke="None">
<path d="
M 75.00 26.00 
C 75.00 26.00 74.36 25.77 74.00 26.00
C 74.94 32.37 78.50 36.64 80.99 43.01 C 83.49 49.37 82.97 57.86 84.00 65.00
C 84.05 65.35 85.02 65.88 85.00 66.00
C 88.79 60.30 91.38 47.52 98.75 44.75 C 106.12 41.99 116.40 30.48 105.01 27.99 C 93.62 25.50 84.55 20.54 75.00 26.00
M 104.00 31.00 
C 109.73 32.65 105.77 42.29 100.00 40.00 C 94.22 37.71 97.74 29.20 104.00 31.00 Z"/>
</g>
<g fill="#FAC36F" fill-opacity="0.99" stroke="None">
<path d="
M 24.00 61.00 
C 26.72 60.23 29.71 70.08 31.00 72.00
C 34.39 77.04 45.46 88.47 52.00 88.00
C 60.20 80.85 70.69 76.36 79.00 70.00
C 80.56 68.80 81.74 65.30 84.00 65.00
C 82.97 57.86 83.49 49.37 80.99 43.01 C 78.50 36.64 74.94 32.37 74.00 26.00
C 65.27 31.50 53.11 33.20 44.75 39.75 C 36.38 46.29 29.63 51.95 24.00 61.00 Z"/>
</g>
<g fill="#5C1421" fill-opacity="1.00" stroke="None">
<path d="
M 104.00 31.00 
C 97.74 29.20 94.22 37.71 100.00 40.00 C 105.77 42.29 109.73 32.65 104.00 31.00
M 105.00 33.00 
C 104.14 44.15 92.98 30.68 105.00 33.00 Z"/>
</g>
<g fill="#2B1A17" fill-opacity="1.00" stroke="None">
<path d="
M 105.00 33.00 
C 92.98 30.68 104.14 44.15 105.00 33.00 Z"/>
</g>
<g fill="#672920" fill-opacity="1.00" stroke="None">
<path d="
M 23.00 63.00 
C 24.08 65.23 28.96 70.02 31.00 72.00
C 29.71 70.08 26.72 60.23 24.00 61.00
C 23.65 61.56 23.30 62.38 23.00 63.00 Z"/>
</g>
<g fill="#520D27" fill-opacity="0.99" stroke="None">
<path d="
M 20.00 74.00 
C 19.80 76.91 19.80 80.09 20.00 83.00
C 21.61 94.84 29.95 105.88 40.00 112.00
C 40.24 102.66 44.79 94.29 52.00 88.00
C 45.46 88.47 34.39 77.04 31.00 72.00
C 28.96 70.02 24.08 65.23 23.00 63.00
C 21.30 66.46 20.26 70.14 20.00 74.00 Z"/>
</g>
<g fill="#E78670" fill-opacity="0.87" stroke="None">
<path d="
M 79.00 70.00 
C 79.00 70.00 80.71 71.79 81.00 72.00
C 79.87 69.71 83.48 68.29 85.00 66.00
C 85.02 65.88 84.05 65.35 84.00 65.00
C 81.74 65.30 80.56 68.80 79.00 70.00 Z"/>
</g>
<g fill="#926B7C" fill-opacity="0.95" stroke="None">
<path d="
M 20.00 83.00 
C 19.80 80.09 19.80 76.91 20.00 74.00
C 19.44 77.15 19.43 79.80 20.00 83.00 Z"/>
</g>
<g fill="#F8A1B8" fill-opacity="0.71" stroke="None">
<path d="
M 185.00 104.00 
C 185.42 99.66 185.43 94.40 185.00 90.00
C 185.00 94.67 185.00 99.33 185.00 104.00 Z"/>
</g>
<g fill="#F9A2B9" fill-opacity="0.52" stroke="None">
<path d="
M 220.00 200.00 
C 224.67 200.00 229.33 200.00 234.00 200.00
C 229.66 199.58 224.40 199.57 220.00 200.00 Z"/>
</g>
<g fill="#FCA5BF" fill-opacity="0.37" stroke="None">
<path d="
M 358.00 269.00 
C 354.62 265.16 350.95 261.38 347.00 258.00
C 350.56 261.56 354.34 265.44 358.00 269.00 Z"/>
</g>
<g fill="#FBA9C3" fill-opacity="0.58" stroke="None">
<path d="
M 19.00 279.00 
C 19.00 274.67 19.00 270.33 19.00 266.00
C 18.61 270.02 18.60 274.91 19.00 279.00 Z"/>
</g>
<g fill="#AB7787" fill-opacity="0.76" stroke="None">
<path d="
M 462.00 424.00 
C 464.62 426.68 465.59 431.86 469.00 433.00
C 467.59 429.06 464.74 425.52 463.00 422.00
C 463.01 422.67 462.00 423.97 462.00 424.00 Z"/>
</g>
<g fill="#000000" fill-opacity="0.00" stroke="None">
<path d="
M 217.00 441.00 
C 220.39 478.36 215.23 516.49 217.00 554.00 C 218.77 591.51 215.67 629.45 217.00 667.00
C 218.00 667.00 219.00 667.00 220.00 667.00
C 225.20 666.88 230.23 666.00 235.22 665.22 C 240.21 664.44 246.20 665.12 251.00 664.00 C 255.80 662.88 261.57 663.73 266.02 662.02 C 270.47 660.32 279.28 663.60 283.00 661.00
C 283.00 658.00 283.00 655.00 283.00 652.00
C 283.00 636.55 281.00 621.53 281.00 606.00
C 280.80 603.95 280.10 600.69 280.00 598.00
C 279.65 588.78 278.00 579.84 277.22 570.78 C 276.44 561.72 275.79 552.52 274.22 543.78 C 272.65 535.04 272.69 524.49 271.00 516.00 C 269.31 507.51 268.19 498.92 266.07 490.93 C 263.96 482.93 264.49 473.09 261.02 465.98 C 257.56 458.86 259.78 446.82 255.00 441.00
C 246.60 439.22 239.28 435.18 233.00 429.00
C 229.41 435.17 222.58 438.08 217.00 441.00 Z"/>
</g>
<g fill="#38151B" fill-opacity="1.00" stroke="None">
<path d="
M 255.00 441.00 
C 257.68 440.60 261.08 441.98 263.00 440.00
C 263.00 440.00 262.76 439.18 263.00 439.00
C 260.91 439.57 256.66 441.03 255.00 441.00 Z"/>
</g>
<g fill="#252323" fill-opacity="0.99" stroke="None">
<path d="
M 255.00 441.00 
C 259.78 446.82 257.56 458.86 261.02 465.98 C 264.49 473.09 263.96 482.93 266.07 490.93 C 268.19 498.92 269.31 507.51 271.00 516.00 C 272.69 524.49 272.65 535.04 274.22 543.78 C 275.79 552.52 276.44 561.72 277.22 570.78 C 278.00 579.84 279.65 588.78 280.00 598.00
C 280.32 600.21 281.00 603.14 281.00 606.00
C 281.00 621.53 283.00 636.55 283.00 652.00
C 283.20 654.03 285.73 659.09 283.00 661.00
C 279.28 663.60 270.47 660.32 266.02 662.02 C 261.57 663.73 255.80 662.88 251.00 664.00 C 246.20 665.12 240.21 664.44 235.22 665.22 C 230.23 666.00 225.20 666.88 220.00 667.00
C 219.43 667.01 217.28 668.97 216.00 668.00
C 216.00 592.33 216.00 516.67 216.00 441.00
C 213.59 440.77 210.74 440.71 209.00 442.00
C 212.40 479.48 207.24 517.32 209.00 555.00 C 210.76 592.68 207.68 631.24 209.00 669.00
C 208.00 669.00 207.00 669.00 206.00 669.00
C 180.41 670.33 155.58 674.67 130.00 676.00
C 127.48 670.42 123.25 663.87 117.00 662.00
C 117.00 666.33 117.00 670.67 117.00 675.00
C 117.00 678.10 116.23 681.64 116.00 684.00
C 116.00 692.44 115.00 700.40 115.00 709.00
C 115.00 717.25 114.37 725.78 115.00 734.00
C 115.60 737.18 115.03 741.30 119.00 742.00
C 120.49 742.26 122.87 742.07 124.00 741.00
C 126.58 737.33 125.23 731.88 125.00 728.00
C 124.79 724.47 125.67 720.77 126.00 718.00
C 126.19 708.33 129.69 700.90 132.00 692.00
C 132.97 685.89 130.97 684.54 138.00 684.00
C 143.83 683.55 151.15 683.48 156.78 682.78 C 162.41 682.08 168.53 680.86 173.98 680.98 C 179.42 681.09 186.11 678.09 191.00 679.00 C 195.89 679.91 204.41 674.64 208.00 677.00
C 211.65 679.40 208.12 689.21 209.00 694.00 C 209.88 698.79 208.68 707.57 209.00 713.00 C 209.32 718.43 209.11 725.36 209.00 731.00 C 208.89 736.64 209.55 744.52 209.00 750.00 C 208.45 755.48 211.28 763.52 207.00 767.00
C 202.90 770.34 196.92 769.66 192.00 772.00 C 187.08 774.34 178.34 771.09 173.07 773.07 C 167.81 775.06 162.43 770.68 157.26 775.26 C 152.09 779.83 161.49 783.34 165.00 784.00
C 173.22 784.63 181.75 784.00 190.00 784.00
C 205.91 784.28 221.17 781.99 237.00 782.00
C 234.64 774.30 226.60 771.02 220.00 768.00
C 214.25 765.37 215.97 759.46 216.00 753.00 C 216.03 746.54 215.79 740.27 216.00 734.00 C 216.21 727.73 215.51 719.95 216.00 714.00 C 216.49 708.05 214.84 700.17 216.00 695.00 C 217.16 689.83 213.08 678.98 217.00 676.00
C 220.87 673.06 229.58 676.52 234.33 674.33 C 239.08 672.14 246.68 674.38 251.93 672.93 C 257.17 671.48 263.43 671.74 268.99 670.99 C 274.56 670.24 280.40 669.78 286.00 669.00
C 287.19 668.71 289.16 667.20 291.00 668.00
C 291.00 661.00 291.00 654.00 291.00 647.00
C 291.00 642.00 291.10 637.00 291.00 632.00
C 290.83 630.25 290.05 627.40 290.00 625.00
C 289.57 603.55 287.69 579.63 285.00 559.00 C 282.31 538.37 281.09 516.35 276.00 497.00 C 270.91 477.65 272.36 457.12 263.00 440.00
C 261.08 441.98 257.68 440.60 255.00 441.00 Z"/>
</g>
<g fill="#626061" fill-opacity="1.00" stroke="None">
<path d="
M 220.00 667.00 
C 219.00 667.00 218.00 667.00 217.00 667.00
C 215.67 629.45 218.77 591.51 217.00 554.00 C 215.23 516.49 220.39 478.36 217.00 441.00
C 217.00 441.00 216.50 441.05 216.00 441.00
C 216.00 516.67 216.00 592.33 216.00 668.00
C 217.28 668.97 219.43 667.01 220.00 667.00 Z"/>
</g>
<g fill="#747172" fill-opacity="0.99" stroke="None">
<path d="
M 206.00 669.00 
C 207.00 669.00 208.00 669.00 209.00 669.00
C 207.68 631.24 210.76 592.68 209.00 555.00 C 207.24 517.32 212.40 479.48 209.00 442.00
C 209.00 442.00 208.07 442.17 208.00 442.00
C 207.23 450.49 208.36 459.50 208.00 468.00 C 207.64 476.50 208.17 484.51 208.00 493.00 C 207.83 501.49 208.09 510.53 208.00 519.00 C 207.91 527.47 208.08 535.57 208.00 544.00 C 207.92 552.43 208.12 561.67 208.00 570.00 C 207.88 578.33 208.25 586.89 208.00 595.00 C 207.75 603.11 208.52 613.35 208.00 621.00 C 207.48 628.65 209.20 639.47 208.00 646.00 C 206.80 652.53 211.58 666.21 206.00 669.00 Z"/>
</g>
<g fill="#7B7B7B" fill-opacity="0.85" stroke="None">
<path d="
M 281.00 606.00 
C 281.00 603.14 280.32 600.21 280.00 598.00
C 280.10 600.69 280.80 603.95 281.00 606.00 Z"/>
</g>
<g fill="#929191" fill-opacity="0.75" stroke="None">
<path d="
M 291.00 632.00 
C 290.95 629.60 290.17 626.75 290.00 625.00
C 290.05 627.40 290.83 630.25 291.00 632.00 Z"/>
</g>
<g fill="#757475" fill-opacity="0.89" stroke="None">
<path d="
M 286.00 669.00 
C 296.07 667.59 291.75 654.79 291.00 647.00
C 291.00 654.00 291.00 661.00 291.00 668.00
C 289.16 667.20 287.19 668.71 286.00 669.00 Z"/>
</g>
<g fill="#5A5A5A" fill-opacity="1.00" stroke="None">
<path d="
M 283.00 661.00 
C 285.73 659.09 283.20 654.03 283.00 652.00
C 283.00 655.00 283.00 658.00 283.00 661.00 Z"/>
</g>
<g fill="#8D8A8B" fill-opacity="0.80" stroke="None">
<path d="
M 116.00 684.00 
C 116.23 681.64 117.00 678.10 117.00 675.00
C 116.77 677.36 116.00 680.90 116.00 684.00 Z"/>
</g>
<g fill="#626061" fill-opacity="0.99" stroke="None">
<path d="
M 220.00 768.00 
C 219.73 766.53 218.00 767.11 217.00 767.00
C 217.00 736.67 217.00 706.33 217.00 676.00
C 213.08 678.98 217.16 689.83 216.00 695.00 C 214.84 700.17 216.49 708.05 216.00 714.00 C 215.51 719.95 216.21 727.73 216.00 734.00 C 215.79 740.27 216.03 746.54 216.00 753.00 C 215.97 759.46 214.25 765.37 220.00 768.00 Z"/>
</g>
<g fill="#767374" fill-opacity="0.99" stroke="None">
<path d="
M 207.00 767.00 
C 211.28 763.52 208.45 755.48 209.00 750.00 C 209.55 744.52 208.89 736.64 209.00 731.00 C 209.11 725.36 209.32 718.43 209.00 713.00 C 208.68 707.57 209.88 698.79 209.00 694.00 C 208.12 689.21 211.65 679.40 208.00 677.00
C 207.78 684.46 208.29 692.61 208.00 700.00 C 207.71 707.39 208.56 715.86 208.00 723.00 C 207.44 730.14 209.20 739.47 208.00 746.00 C 206.80 752.53 211.25 762.17 207.00 767.00 Z"/>
</g>
<g fill="#7C7C7C" fill-opacity="0.85" stroke="None">
<path d="
M 132.00 692.00 
C 134.14 690.62 132.48 687.20 133.00 685.00
C 134.76 685.88 136.91 684.18 138.00 684.00
C 130.97 684.54 132.97 685.89 132.00 692.00 Z"/>
</g>
<g fill="#6D6A6B" fill-opacity="0.91" stroke="None">
<path d="
M 115.00 734.00 
C 114.37 725.78 115.00 717.25 115.00 709.00
C 114.25 716.70 113.52 726.20 115.00 734.00 Z"/>
</g>
<g fill="#9A999A" fill-opacity="0.67" stroke="None">
<path d="
M 125.00 728.00 
C 125.10 725.52 125.94 721.25 126.00 718.00
C 125.67 720.77 124.79 724.47 125.00 728.00 Z"/>
</g>
<g fill="#7F7F7F" fill-opacity="0.88" stroke="None">
<path d="
M 119.00 742.00 
C 121.26 742.89 122.21 743.54 124.00 741.00
C 122.87 742.07 120.49 742.26 119.00 742.00 Z"/>
</g>
<g fill="#666465" fill-opacity="0.94" stroke="None">
<path d="
M 190.00 784.00 
C 181.75 784.00 173.22 784.63 165.00 784.00
C 172.74 785.47 182.23 784.75 190.00 784.00 Z"/>
</g>
</svg>