<svg xmlns="http://www.w3.org/2000/svg" xmlns:v="https://svgstorm.com"
viewBox = "0 0 406 684"
width="406"
height="684">
<g fill="None" fill-opacity="0.0" stroke="#FCFCFC" stroke-opacity="1.00" stroke-width="0.3"><path d="
M 0.00 684.00 
L 406.00 684.00
L 406.00 0.00
L 0.00 0.00
L 0.00 684.00
M 375.00 86.00 
C 375.30 89.14 375.30 92.92 375.00 96.00
C 375.00 104.41 372.84 113.95 374.00 122.00
C 374.05 122.35 375.00 122.84 375.00 123.00
C 376.56 112.80 379.00 103.09 381.00 93.00
C 383.41 115.63 381.69 140.23 380.00 163.00
C 384.41 161.55 380.74 173.72 382.00 180.00 C 383.26 186.28 379.70 195.14 381.00 202.00 C 382.30 208.86 382.05 217.49 382.00 225.00 C 381.95 232.51 382.01 240.32 382.00 248.00 C 381.99 255.68 381.97 264.26 382.00 272.00 C 382.03 279.74 381.91 287.28 382.00 295.00 C 382.09 302.72 381.81 311.37 382.00 319.00 C 382.19 326.63 381.55 334.62 382.00 342.00 C 382.45 349.38 380.91 356.34 378.68 362.68 C 376.45 369.02 376.02 375.00 374.02 381.02 C 372.03 387.05 372.39 395.57 370.01 401.01 C 367.62 406.45 360.42 406.32 357.25 411.25 C 354.07 416.18 348.07 418.46 346.00 424.00
C 343.01 418.78 341.70 411.32 337.00 407.00
C 334.25 418.27 345.08 429.43 338.00 439.00
C 334.07 428.19 331.38 417.01 328.00 406.00
C 327.51 426.42 338.75 450.56 330.00 471.00
C 325.60 454.41 321.87 436.81 314.00 421.00
C 315.44 442.80 332.43 467.07 326.00 490.00
C 320.88 477.41 316.42 464.50 311.00 452.00
C 311.80 469.87 317.54 489.60 317.00 509.00
C 305.21 493.79 301.93 472.99 292.00 457.00
C 292.20 467.65 298.68 478.97 299.98 490.02 C 301.27 501.08 311.85 514.10 305.00 524.00
C 296.30 506.96 289.99 489.04 284.00 471.00
C 283.04 485.06 293.65 497.35 294.78 512.22 C 295.91 527.10 302.71 544.26 300.00 559.00
C 288.70 544.65 291.44 524.77 281.00 510.00
C 280.22 525.56 293.25 542.40 288.00 559.00
C 280.40 547.49 280.14 533.15 274.00 521.00
C 271.61 536.19 278.36 552.13 278.00 568.00
C 268.37 562.43 268.97 548.51 265.00 539.00
C 263.51 547.85 268.11 558.91 269.98 568.02 C 271.84 577.14 278.79 589.21 273.00 597.00
C 265.83 583.64 257.93 569.78 250.00 557.00
C 255.08 573.70 262.45 591.25 261.00 609.00
C 258.02 598.36 250.60 588.72 247.00 578.00
C 245.32 589.52 255.80 604.08 249.00 616.00
C 247.31 610.91 245.19 605.22 243.00 600.00
C 244.19 616.74 241.51 635.13 235.00 651.00
C 229.37 643.08 236.19 631.18 233.00 623.00
C 231.53 636.22 227.01 649.13 222.00 661.00
C 219.16 655.65 222.88 647.94 220.00 643.00
C 216.95 652.29 212.93 661.32 211.00 671.00
C 207.55 653.45 212.19 632.93 211.00 616.00
C 207.75 622.64 208.78 630.54 205.00 637.00
C 199.17 620.31 210.05 601.45 208.00 585.00
C 205.70 589.36 204.26 594.02 204.00 599.00
C 199.17 592.37 204.39 580.56 204.99 571.99 C 205.59 563.42 210.35 555.43 213.77 547.77 C 217.19 540.11 218.85 531.90 224.00 525.00
C 219.70 525.37 218.29 531.67 214.00 532.00
C 216.75 515.64 231.19 504.14 235.00 488.00
C 231.36 489.66 230.77 495.18 227.00 496.00
C 229.41 481.56 237.44 467.26 244.92 454.92 C 252.40 442.59 263.19 434.23 273.25 424.25 C 283.30 414.26 296.28 407.92 306.23 398.23 C 316.18 388.54 334.72 379.67 330.00 364.00
C 325.65 366.98 325.04 374.80 323.00 380.00
C 319.48 379.75 321.70 374.31 320.00 372.00
C 312.44 375.50 313.86 386.40 310.00 393.00
C 306.20 390.87 308.64 384.74 306.00 382.00
C 303.84 388.49 300.59 395.37 298.00 402.00
C 293.50 398.18 298.08 390.22 295.00 386.00
C 292.03 396.27 287.14 406.10 281.00 415.00
C 277.97 414.02 279.30 410.36 279.00 408.00
C 278.84 407.43 277.10 405.51 277.00 405.00
C 276.30 409.87 276.44 415.91 272.00 419.00
C 269.71 402.73 274.84 383.79 270.00 368.00
C 265.94 388.97 268.55 411.69 262.00 432.00
C 260.40 431.47 261.28 429.25 261.00 428.00
C 260.38 425.65 259.02 420.27 259.00 418.00
C 258.25 423.25 258.62 428.30 256.00 433.00
C 252.84 426.26 253.13 414.61 251.00 406.00
C 250.67 403.94 248.74 397.87 249.00 396.00
C 243.69 411.31 246.36 430.24 240.00 445.00
C 237.84 442.47 239.99 437.26 237.00 435.00
C 236.90 441.33 235.26 447.26 233.00 453.00
C 228.23 447.53 230.64 436.09 230.00 428.00
C 229.95 427.65 229.02 427.20 229.00 427.00
C 226.57 442.25 225.38 458.27 221.00 473.00
C 208.88 453.90 219.42 423.85 213.00 402.00
C 207.10 426.16 218.05 453.71 207.00 476.00
C 204.04 468.74 207.97 458.19 205.00 451.00
C 199.65 464.10 206.29 481.95 197.00 493.00
C 191.34 475.94 195.09 455.56 194.00 437.00
C 188.42 455.68 194.43 478.24 188.00 497.00
C 185.20 492.26 185.09 485.82 185.00 480.00
C 184.64 476.23 184.64 471.71 185.00 468.00
C 185.00 458.83 185.83 448.34 184.00 440.00
C 182.40 443.06 181.68 446.41 182.00 450.00
C 181.86 453.65 182.00 457.34 182.00 461.00
C 182.00 479.29 185.97 498.60 177.00 515.00
C 174.30 513.53 174.09 509.85 174.00 507.00
C 172.27 511.16 171.64 516.46 170.00 521.00
C 163.61 507.86 173.74 485.21 167.00 472.00
C 158.31 492.35 160.21 517.09 149.00 536.00
C 146.12 525.25 153.38 513.29 150.00 502.00
C 144.11 518.55 135.62 535.15 133.00 553.00
C 126.13 538.84 131.88 516.19 132.00 501.00
C 130.12 504.45 128.13 507.72 126.00 511.00
C 126.81 494.30 135.12 476.46 143.00 461.00
C 135.16 467.51 139.37 454.12 142.92 449.92 C 146.47 445.72 150.53 438.53 154.00 434.00
C 151.34 433.52 150.68 437.53 148.00 437.00
C 149.31 422.84 161.06 413.84 168.75 402.75 C 176.45 391.66 190.69 385.39 192.93 371.93 C 195.16 358.46 202.92 344.99 209.00 333.00
C 193.11 353.14 182.04 377.42 167.00 398.00
C 163.30 388.86 170.76 380.66 172.00 372.00
C 164.35 379.22 165.14 393.52 156.00 399.00
C 156.10 381.12 168.40 366.95 172.00 350.00
C 155.77 367.74 152.80 395.67 134.00 411.00
C 136.44 397.88 144.30 386.41 149.00 374.00
C 148.72 374.25 148.00 374.00 148.00 374.00
C 140.36 388.95 130.74 404.93 117.00 415.00
C 128.72 388.70 137.23 360.61 151.00 335.00
C 133.30 358.50 122.57 389.18 100.00 409.00
C 105.85 381.80 125.87 360.67 133.00 334.00
C 119.07 359.51 105.65 388.17 85.00 409.00
C 92.34 378.63 114.47 354.63 128.00 327.00
C 115.17 339.22 108.23 355.18 96.23 368.23 C 84.23 381.28 81.70 402.98 66.00 412.00
C 75.96 387.04 89.54 363.66 102.00 340.00
C 86.46 358.62 75.98 381.67 55.00 396.00
C 58.54 376.94 77.62 365.67 82.00 347.00
C 68.37 354.09 63.78 370.22 52.75 380.75 C 41.73 391.28 30.45 401.54 19.00 410.00
C 17.64 392.42 34.50 382.02 43.00 369.00
C 34.46 372.24 29.03 380.97 20.00 383.00
C 30.43 363.23 52.35 351.16 70.00 340.00
C 59.08 338.92 50.05 344.76 40.00 347.00
C 50.78 336.87 63.42 331.00 78.00 327.00 C 92.58 323.00 107.99 313.89 124.00 315.00
C 111.62 312.27 98.00 317.24 86.00 314.00
C 97.27 311.02 110.57 306.28 122.67 305.67 C 134.77 305.06 141.89 294.97 150.00 287.00
C 152.76 283.77 155.70 280.61 159.00 278.00
C 162.49 275.25 167.43 272.95 169.00 269.00
C 154.60 277.54 143.69 292.06 128.00 298.00
C 134.49 282.44 149.45 269.50 161.00 257.00
C 136.23 266.93 117.47 290.93 92.00 299.00
C 97.32 282.65 114.79 271.46 126.00 260.00
C 103.07 276.14 79.64 291.28 53.00 300.00
C 61.27 281.22 86.36 277.47 95.00 261.00
C 75.44 273.37 54.23 280.03 34.00 292.00
C 33.73 290.72 34.77 289.28 36.00 289.00
C 38.30 285.50 41.91 282.64 45.00 280.00
C 53.00 273.17 60.01 265.91 67.00 258.00
C 52.09 266.44 36.64 275.06 20.00 279.00
C 29.79 266.42 46.63 259.72 59.00 250.00
C 42.52 257.25 23.04 253.64 6.00 259.00
C 15.59 244.88 35.88 245.86 51.00 242.00
C 42.26 240.15 32.79 237.77 24.00 235.00
C 30.28 230.13 41.22 232.81 50.00 231.00 C 58.78 229.19 70.57 231.11 79.00 229.00
C 70.55 227.50 62.48 224.19 55.00 220.00
C 71.03 216.39 88.33 227.39 104.00 225.00
C 100.24 223.63 95.56 222.21 93.00 219.00
C 107.89 216.15 123.40 226.23 137.02 219.02 C 150.65 211.82 162.72 208.83 177.02 204.02 C 191.33 199.21 206.79 195.77 222.00 194.00
C 218.25 191.46 212.74 192.04 208.00 192.00
C 203.83 192.00 198.34 192.82 195.00 191.00
C 206.12 182.87 222.01 184.00 236.00 184.00
C 240.72 183.54 246.35 183.55 251.00 184.00
C 267.88 184.00 282.87 189.14 299.00 192.00
C 286.41 182.90 269.15 182.83 255.31 175.69 C 241.46 168.56 227.83 161.59 213.00 157.00
C 228.35 155.02 246.33 162.45 261.00 163.00
C 240.15 155.23 224.88 136.78 204.00 129.00
C 227.69 129.29 251.11 142.37 272.00 154.00
C 251.92 134.70 223.96 127.27 202.00 111.00
C 214.49 109.69 198.16 104.84 196.00 101.00
C 214.36 101.56 229.44 113.27 246.00 119.00
C 245.82 118.58 246.00 118.00 246.00 118.00
C 230.95 109.52 215.01 101.01 201.00 91.00
C 216.18 94.26 230.52 100.10 244.00 108.00
C 222.47 90.73 195.22 77.82 172.00 62.00
C 238.62 80.98 294.43 135.41 334.00 192.00
C 338.08 189.25 343.55 193.17 347.00 191.00
C 341.35 189.62 336.67 185.38 331.00 184.00
C 337.89 180.91 347.36 187.26 354.00 185.00
C 345.41 182.12 337.81 176.35 329.00 174.00
C 329.65 171.29 332.71 171.59 334.00 170.00
C 330.37 165.98 321.51 163.62 321.00 159.00
C 323.61 156.39 329.38 158.63 332.00 159.00
C 337.22 159.20 341.95 160.13 347.00 161.00
C 340.97 153.85 325.31 155.75 322.00 148.00
C 322.52 147.41 326.52 145.99 327.00 146.00
C 322.50 143.48 316.46 142.07 313.00 138.00
C 322.06 134.78 332.49 141.65 341.00 139.00
C 330.18 133.79 317.66 131.85 307.00 127.00
C 318.13 122.80 330.04 131.10 340.00 130.00
C 323.33 125.89 306.37 121.16 291.00 114.00
C 299.59 108.10 311.27 116.41 320.00 113.00
C 313.86 112.24 308.17 109.76 302.00 109.00
C 310.47 105.96 320.22 109.54 329.00 110.00
C 317.74 103.11 303.18 99.66 291.00 95.00
C 300.78 89.37 312.60 99.16 322.00 97.00
C 308.77 91.77 294.01 91.95 281.00 86.00
C 291.31 80.49 306.86 86.26 317.00 86.00
C 299.32 84.09 284.38 73.69 267.00 71.00
C 273.61 65.52 283.06 72.31 291.00 71.00
C 288.00 67.66 282.80 66.46 280.00 63.00
C 288.36 62.05 295.31 66.46 303.00 68.00
C 290.42 61.64 276.38 55.55 264.00 49.00
C 276.31 47.03 289.30 53.69 301.00 58.00
C 286.03 45.20 271.55 30.66 255.00 20.00
C 276.36 17.63 294.14 35.18 310.00 48.00
C 304.39 37.04 299.46 25.75 292.00 16.00
C 312.03 25.23 320.36 45.95 331.00 63.00
C 329.39 53.52 326.68 41.50 332.00 33.00
C 338.54 47.88 343.07 63.81 346.00 80.00
C 348.52 68.93 342.18 55.10 345.00 44.00
C 358.20 59.72 352.69 81.40 357.00 100.00
C 358.90 93.55 359.43 85.89 361.00 79.00
C 363.87 88.71 360.17 100.95 363.00 111.00
C 371.29 99.85 360.52 80.92 368.00 68.00
C 374.26 71.68 375.33 79.26 375.00 86.00 Z"/>
</g>
<g fill="None" fill-opacity="0.0" stroke="#000000" stroke-opacity="1.00" stroke-width="0.3"><path d="
M 327.00 146.00 
C 328.07 146.60 329.53 146.80 330.00 148.00
C 327.33 148.00 324.67 148.00 322.00 148.00
C 325.31 155.75 340.97 153.85 347.00 161.00
C 341.95 160.13 337.22 159.20 332.00 159.00
C 329.60 158.91 323.03 157.85 321.00 159.00
C 321.51 163.62 330.37 165.98 334.00 170.00
C 332.71 171.59 329.65 171.29 329.00 174.00
C 337.81 176.35 345.41 182.12 354.00 185.00
C 347.36 187.26 337.89 180.91 331.00 184.00
C 336.67 185.38 341.35 189.62 347.00 191.00
C 343.55 193.17 338.08 189.25 334.00 192.00
C 294.43 135.41 238.62 80.98 172.00 62.00
C 195.22 77.82 222.47 90.73 244.00 108.00
C 230.52 100.10 216.18 94.26 201.00 91.00
C 215.01 101.01 230.95 109.52 246.00 118.00
C 250.75 120.68 257.24 122.69 260.00 127.00
C 255.53 123.88 249.71 122.73 246.00 119.00
C 229.44 113.27 214.36 101.56 196.00 101.00
C 198.16 104.84 214.49 109.69 202.00 111.00
C 223.96 127.27 251.92 134.70 272.00 154.00
C 251.11 142.37 227.69 129.29 204.00 129.00
C 224.88 136.78 240.15 155.23 261.00 163.00
C 246.33 162.45 228.35 155.02 213.00 157.00
C 227.83 161.59 241.46 168.56 255.31 175.69 C 269.15 182.83 286.41 182.90 299.00 192.00
C 282.87 189.14 267.88 184.00 251.00 184.00
C 246.00 184.00 241.00 184.00 236.00 184.00
C 222.01 184.00 206.12 182.87 195.00 191.00
C 199.31 190.17 204.47 191.66 208.00 192.00
C 212.74 192.04 218.25 191.46 222.00 194.00
C 206.79 195.77 191.33 199.21 177.02 204.02 C 162.72 208.83 150.65 211.82 137.02 219.02 C 123.40 226.23 107.89 216.15 93.00 219.00
C 95.56 222.21 100.24 223.63 104.00 225.00
C 88.33 227.39 71.03 216.39 55.00 220.00
C 62.48 224.19 70.55 227.50 79.00 229.00
C 70.57 231.11 58.78 229.19 50.00 231.00 C 41.22 232.81 30.28 230.13 24.00 235.00
C 32.79 237.77 42.26 240.15 51.00 242.00
C 35.88 245.86 15.59 244.88 6.00 259.00
C 23.04 253.64 42.52 257.25 59.00 250.00
C 46.63 259.72 29.79 266.42 20.00 279.00
C 36.64 275.06 52.09 266.44 67.00 258.00
C 60.01 265.91 53.00 273.17 45.00 280.00
C 42.26 282.74 38.35 286.09 36.00 289.00
C 34.77 289.28 33.73 290.72 34.00 292.00
C 54.23 280.03 75.44 273.37 95.00 261.00
C 86.36 277.47 61.27 281.22 53.00 300.00
C 79.64 291.28 103.07 276.14 126.00 260.00
C 114.79 271.46 97.32 282.65 92.00 299.00
C 117.47 290.93 136.23 266.93 161.00 257.00
C 149.45 269.50 134.49 282.44 128.00 298.00
C 143.69 292.06 154.60 277.54 169.00 269.00
C 167.43 272.95 162.49 275.25 159.00 278.00
C 156.04 280.74 152.82 284.18 150.00 287.00
C 141.89 294.97 134.77 305.06 122.67 305.67 C 110.57 306.28 97.27 311.02 86.00 314.00
C 98.00 317.24 111.62 312.27 124.00 315.00
C 107.99 313.89 92.58 323.00 78.00 327.00 C 63.42 331.00 50.78 336.87 40.00 347.00
C 50.05 344.76 59.08 338.92 70.00 340.00
C 52.35 351.16 30.43 363.23 20.00 383.00
C 29.03 380.97 34.46 372.24 43.00 369.00
C 34.50 382.02 17.64 392.42 19.00 410.00
C 30.45 401.54 41.73 391.28 52.75 380.75 C 63.78 370.22 68.37 354.09 82.00 347.00
C 77.62 365.67 58.54 376.94 55.00 396.00
C 75.98 381.67 86.46 358.62 102.00 340.00
C 89.54 363.66 75.96 387.04 66.00 412.00
C 81.70 402.98 84.23 381.28 96.23 368.23 C 108.23 355.18 115.17 339.22 128.00 327.00
C 114.47 354.63 92.34 378.63 85.00 409.00
C 105.65 388.17 119.07 359.51 133.00 334.00
C 125.87 360.67 105.85 381.80 100.00 409.00
C 122.57 389.18 133.30 358.50 151.00 335.00
C 137.23 360.61 128.72 388.70 117.00 415.00
C 130.74 404.93 140.36 388.95 148.00 374.00
C 150.66 368.79 152.86 363.03 157.00 359.00
C 154.86 364.15 152.25 369.57 149.00 374.00
C 144.30 386.41 136.44 397.88 134.00 411.00
C 152.80 395.67 155.77 367.74 172.00 350.00
C 168.40 366.95 156.10 381.12 156.00 399.00
C 165.14 393.52 164.35 379.22 172.00 372.00
C 170.76 380.66 163.30 388.86 167.00 398.00
C 182.04 377.42 193.11 353.14 209.00 333.00
C 202.92 344.99 195.16 358.46 192.93 371.93 C 190.69 385.39 176.45 391.66 168.75 402.75 C 161.06 413.84 149.31 422.84 148.00 437.00
C 150.68 437.53 151.34 433.52 154.00 434.00
C 150.53 438.53 146.47 445.72 142.92 449.92 C 139.37 454.12 135.16 467.51 143.00 461.00
C 135.12 476.46 126.81 494.30 126.00 511.00
C 128.13 507.72 130.12 504.45 132.00 501.00
C 131.88 516.19 126.13 538.84 133.00 553.00
C 135.62 535.15 144.11 518.55 150.00 502.00
C 153.38 513.29 146.12 525.25 149.00 536.00
C 160.21 517.09 158.31 492.35 167.00 472.00
C 173.74 485.21 163.61 507.86 170.00 521.00
C 171.64 516.46 172.27 511.16 174.00 507.00
C 174.09 509.85 174.30 513.53 177.00 515.00
C 185.97 498.60 182.00 479.29 182.00 461.00
C 181.66 457.44 181.49 453.55 182.00 450.00
C 181.68 446.41 182.40 443.06 184.00 440.00
C 185.83 448.34 185.00 458.83 185.00 468.00
C 185.00 472.00 185.00 476.00 185.00 480.00
C 185.09 485.82 185.20 492.26 188.00 497.00
C 194.43 478.24 188.42 455.68 194.00 437.00
C 195.09 455.56 191.34 475.94 197.00 493.00
C 206.29 481.95 199.65 464.10 205.00 451.00
C 207.97 458.19 204.04 468.74 207.00 476.00
C 218.05 453.71 207.10 426.16 213.00 402.00
C 219.42 423.85 208.88 453.90 221.00 473.00
C 225.38 458.27 226.57 442.25 229.00 427.00
C 229.69 422.67 230.64 418.44 231.00 414.00
C 232.96 417.78 230.97 424.20 230.00 428.00
C 230.64 436.09 228.23 447.53 233.00 453.00
C 235.26 447.26 236.90 441.33 237.00 435.00
C 239.99 437.26 237.84 442.47 240.00 445.00
C 246.36 430.24 243.69 411.31 249.00 396.00
C 249.70 390.97 250.90 404.14 251.00 406.00
C 253.13 414.61 252.84 426.26 256.00 433.00
C 258.62 428.30 258.25 423.25 259.00 418.00
C 259.18 416.71 258.31 414.51 260.00 414.00
C 261.63 418.31 260.81 423.32 261.00 428.00
C 261.28 429.25 260.40 431.47 262.00 432.00
C 268.55 411.69 265.94 388.97 270.00 368.00
C 274.84 383.79 269.71 402.73 272.00 419.00
C 276.44 415.91 276.30 409.87 277.00 405.00
C 277.47 401.72 278.45 398.53 278.00 395.00
C 280.21 398.42 278.42 403.82 279.00 408.00
C 279.30 410.36 277.97 414.02 281.00 415.00
C 287.14 406.10 292.03 396.27 295.00 386.00
C 298.08 390.22 293.50 398.18 298.00 402.00
C 300.59 395.37 303.84 388.49 306.00 382.00
C 308.64 384.74 306.20 390.87 310.00 393.00
C 313.86 386.40 312.44 375.50 320.00 372.00
C 321.70 374.31 319.48 379.75 323.00 380.00
C 325.04 374.80 325.65 366.98 330.00 364.00
C 334.72 379.67 316.18 388.54 306.23 398.23 C 296.28 407.92 283.30 414.26 273.25 424.25 C 263.19 434.23 252.40 442.59 244.92 454.92 C 237.44 467.26 229.41 481.56 227.00 496.00
C 230.77 495.18 231.36 489.66 235.00 488.00
C 231.19 504.14 216.75 515.64 214.00 532.00
C 218.29 531.67 219.70 525.37 224.00 525.00
C 218.85 531.90 217.19 540.11 213.77 547.77 C 210.35 555.43 205.59 563.42 204.99 571.99 C 204.39 580.56 199.17 592.37 204.00 599.00
C 204.26 594.02 205.70 589.36 208.00 585.00
C 210.05 601.45 199.17 620.31 205.00 637.00
C 208.78 630.54 207.75 622.64 211.00 616.00
C 212.19 632.93 207.55 653.45 211.00 671.00
C 212.93 661.32 216.95 652.29 220.00 643.00
C 222.88 647.94 219.16 655.65 222.00 661.00
C 227.01 649.13 231.53 636.22 233.00 623.00
C 236.19 631.18 229.37 643.08 235.00 651.00
C 241.51 635.13 244.19 616.74 243.00 600.00
C 245.19 605.22 247.31 610.91 249.00 616.00
C 255.80 604.08 245.32 589.52 247.00 578.00
C 250.60 588.72 258.02 598.36 261.00 609.00
C 262.45 591.25 255.08 573.70 250.00 557.00
C 257.93 569.78 265.83 583.64 273.00 597.00
C 278.79 589.21 271.84 577.14 269.98 568.02 C 268.11 558.91 263.51 547.85 265.00 539.00
C 268.97 548.51 268.37 562.43 278.00 568.00
C 278.36 552.13 271.61 536.19 274.00 521.00
C 280.14 533.15 280.40 547.49 288.00 559.00
C 293.25 542.40 280.22 525.56 281.00 510.00
C 291.44 524.77 288.70 544.65 300.00 559.00
C 302.71 544.26 295.91 527.10 294.78 512.22 C 293.65 497.35 283.04 485.06 284.00 471.00
C 289.99 489.04 296.30 506.96 305.00 524.00
C 311.85 514.10 301.27 501.08 299.98 490.02 C 298.68 478.97 292.20 467.65 292.00 457.00
C 301.93 472.99 305.21 493.79 317.00 509.00
C 317.54 489.60 311.80 469.87 311.00 452.00
C 316.42 464.50 320.88 477.41 326.00 490.00
C 332.43 467.07 315.44 442.80 314.00 421.00
C 321.87 436.81 325.60 454.41 330.00 471.00
C 338.75 450.56 327.51 426.42 328.00 406.00
C 331.38 417.01 334.07 428.19 338.00 439.00
C 345.08 429.43 334.25 418.27 337.00 407.00
C 341.70 411.32 343.01 418.78 346.00 424.00
C 348.07 418.46 354.07 416.18 357.25 411.25 C 360.42 406.32 367.62 406.45 370.01 401.01 C 372.39 395.57 372.03 387.05 374.02 381.02 C 376.02 375.00 376.45 369.02 378.68 362.68 C 380.91 356.34 382.45 349.38 382.00 342.00 C 381.55 334.62 382.19 326.63 382.00 319.00 C 381.81 311.37 382.09 302.72 382.00 295.00 C 381.91 287.28 382.03 279.74 382.00 272.00 C 381.97 264.26 381.99 255.68 382.00 248.00 C 382.01 240.32 381.95 232.51 382.00 225.00 C 382.05 217.49 382.30 208.86 381.00 202.00 C 379.70 195.14 383.26 186.28 382.00 180.00 C 380.74 173.72 384.41 161.55 380.00 163.00
C 381.69 140.23 383.41 115.63 381.00 93.00
C 379.00 103.09 376.56 112.80 375.00 123.00
C 374.65 125.28 373.45 127.46 374.00 130.00
C 372.50 128.36 372.28 123.57 374.00 122.00
C 372.84 113.95 375.00 104.41 375.00 96.00
C 375.00 92.67 375.00 89.33 375.00 86.00
C 375.33 79.26 374.26 71.68 368.00 68.00
C 360.52 80.92 371.29 99.85 363.00 111.00
C 360.17 100.95 363.87 88.71 361.00 79.00
C 359.43 85.89 358.90 93.55 357.00 100.00
C 352.69 81.40 358.20 59.72 345.00 44.00
C 342.18 55.10 348.52 68.93 346.00 80.00
C 343.07 63.81 338.54 47.88 332.00 33.00
C 326.68 41.50 329.39 53.52 331.00 63.00
C 320.36 45.95 312.03 25.23 292.00 16.00
C 299.46 25.75 304.39 37.04 310.00 48.00
C 294.14 35.18 276.36 17.63 255.00 20.00
C 271.55 30.66 286.03 45.20 301.00 58.00
C 289.30 53.69 276.31 47.03 264.00 49.00
C 276.38 55.55 290.42 61.64 303.00 68.00
C 295.31 66.46 288.36 62.05 280.00 63.00
C 282.80 66.46 288.00 67.66 291.00 71.00
C 283.06 72.31 273.61 65.52 267.00 71.00
C 284.38 73.69 299.32 84.09 317.00 86.00
C 306.86 86.26 291.31 80.49 281.00 86.00
C 294.01 91.95 308.77 91.77 322.00 97.00
C 312.60 99.16 300.78 89.37 291.00 95.00
C 303.18 99.66 317.74 103.11 329.00 110.00
C 320.22 109.54 310.47 105.96 302.00 109.00
C 308.17 109.76 313.86 112.24 320.00 113.00
C 311.27 116.41 299.59 108.10 291.00 114.00
C 306.37 121.16 323.33 125.89 340.00 130.00
C 330.04 131.10 318.13 122.80 307.00 127.00
C 317.66 131.85 330.18 133.79 341.00 139.00
C 332.49 141.65 322.06 134.78 313.00 138.00
C 316.46 142.07 322.50 143.48 327.00 146.00
M 355.00 211.00 
C 353.25 212.60 349.70 210.04 347.00 211.00
C 345.08 207.05 342.29 203.71 340.00 200.00
C 345.68 202.24 348.91 209.15 355.00 211.00
M 191.00 205.00 
C 185.65 210.23 181.11 217.78 175.75 222.75 C 170.38 227.71 166.55 239.72 159.00 235.00
C 169.64 225.50 179.58 213.30 191.00 205.00
M 156.00 217.00 
C 151.78 221.78 150.25 233.31 142.00 228.00
C 145.60 223.10 150.60 219.07 156.00 217.00
M 210.00 241.00 
C 213.65 237.35 217.10 233.33 221.00 230.00
C 223.82 227.59 226.58 224.07 230.00 223.00
C 224.03 233.68 215.86 242.90 209.00 253.00
C 206.30 250.93 202.35 251.08 200.00 249.00
C 203.88 247.14 206.54 243.44 210.00 241.00
M 248.00 228.00 
C 245.54 234.36 239.96 241.03 234.75 245.75 C 229.54 250.47 226.58 261.77 219.00 257.00
C 227.56 247.10 236.39 234.45 248.00 228.00
M 293.00 250.00 
C 289.88 250.57 287.24 252.68 284.00 253.00
C 285.42 249.96 290.45 247.40 293.00 250.00
M 83.00 252.00 
C 81.92 255.88 76.51 257.58 73.00 259.00
C 75.56 255.93 79.04 252.89 83.00 252.00
M 251.00 257.00 
C 252.21 262.16 244.55 271.13 239.00 266.00
C 241.83 261.54 246.54 259.21 251.00 257.00
M 279.00 260.00 
C 274.84 265.85 269.27 270.67 266.00 277.00
C 262.19 276.16 258.84 273.84 255.00 273.00
C 262.38 268.40 269.91 258.60 279.00 260.00
M 301.00 265.00 
C 294.65 269.24 287.93 275.19 284.00 282.00
C 292.85 283.43 299.86 275.62 308.00 277.00
C 303.78 280.57 298.25 283.97 295.00 289.00
C 286.54 286.09 278.45 282.10 270.00 279.00
C 280.60 275.53 289.45 260.64 301.00 265.00
M 197.00 264.00 
C 184.09 276.96 164.17 284.84 155.00 301.00
C 168.91 292.84 182.07 282.72 197.00 276.00
C 192.44 289.25 174.01 290.06 168.00 302.00
C 158.50 301.99 149.16 302.60 140.00 304.00
C 159.15 291.48 175.45 272.62 197.00 264.00
M 223.00 280.00 
C 216.63 285.74 213.42 292.78 208.23 299.23 C 203.04 305.67 185.34 301.00 178.00 301.00
C 193.69 295.91 206.44 283.34 223.00 280.00
M 320.00 281.00 
C 316.95 285.27 312.26 288.30 310.00 293.00
C 317.73 290.67 324.56 293.70 332.00 295.00
C 322.19 306.32 307.67 292.27 296.00 290.00
C 303.43 286.54 312.60 285.24 320.00 281.00
M 253.00 297.00 
C 251.58 299.55 250.55 302.16 250.00 305.00
C 247.05 303.39 240.86 305.75 240.00 302.00
C 244.65 301.30 248.13 297.03 253.00 297.00
M 229.00 298.00 
C 229.95 303.79 220.66 302.55 218.00 301.00
C 221.80 300.55 225.37 299.13 229.00 298.00
M 368.00 325.00 
C 331.17 319.38 294.74 312.12 258.00 306.00
C 275.99 298.97 297.81 306.06 316.00 309.00 C 334.20 311.94 352.88 314.51 368.00 325.00
M 348.00 307.00 
C 345.43 313.79 340.38 307.68 336.00 307.00
C 339.19 304.91 344.40 306.07 348.00 307.00
M 360.00 313.00 
C 360.81 318.60 355.80 315.96 353.00 315.00
C 353.98 311.97 357.64 313.30 360.00 313.00
M 376.00 326.00 
C 372.37 325.57 369.66 322.42 366.00 322.00
C 367.64 319.41 372.43 322.66 374.00 320.00
C 375.29 321.41 376.04 323.86 376.00 326.00
M 213.00 348.00 
C 207.19 357.42 209.72 370.60 197.00 375.00
C 201.00 365.51 205.37 355.22 213.00 348.00
M 224.00 351.00 
C 223.53 355.23 220.75 359.02 217.00 361.00
C 218.31 357.29 221.94 354.20 224.00 351.00
M 354.00 383.00 
C 353.24 380.12 352.21 376.88 354.00 374.00
C 357.33 368.62 358.45 384.14 355.00 387.00
C 353.40 386.47 354.28 384.25 354.00 383.00
M 350.00 406.00 
C 348.94 403.84 346.62 399.17 349.00 397.00
C 352.29 399.15 350.21 402.92 350.00 406.00 Z"/>
</g>
<g fill="None" fill-opacity="0.0" stroke="#7E7E7E" stroke-opacity="1.00" stroke-width="0.3"><path d="
M 375.00 96.00 
C 375.30 92.92 375.30 89.14 375.00 86.00
C 375.00 89.33 375.00 92.67 375.00 96.00 Z"/>
</g>
<g fill="None" fill-opacity="0.0" stroke="#585858" stroke-opacity="1.00" stroke-width="0.3"><path d="
M 246.00 119.00 
C 249.71 122.73 255.53 123.88 260.00 127.00
C 257.24 122.69 250.75 120.68 246.00 118.00
C 246.00 118.00 245.82 118.58 246.00 119.00 Z"/>
</g>
<g fill="None" fill-opacity="0.0" stroke="#919191" stroke-opacity="1.00" stroke-width="0.3"><path d="
M 375.00 123.00 
C 375.00 122.84 374.05 122.35 374.00 122.00
C 372.28 123.57 372.50 128.36 374.00 130.00
C 373.45 127.46 374.65 125.28 375.00 123.00 Z"/>
</g>
<g fill="None" fill-opacity="0.0" stroke="#707070" stroke-opacity="1.00" stroke-width="0.3"><path d="
M 322.00 148.00 
C 324.67 148.00 327.33 148.00 330.00 148.00
C 329.53 146.80 328.07 146.60 327.00 146.00
C 326.52 145.99 322.52 147.41 322.00 148.00 Z"/>
</g>
<g fill="None" fill-opacity="0.0" stroke="#888888" stroke-opacity="1.00" stroke-width="0.3"><path d="
M 321.00 159.00 
C 323.03 157.85 329.60 158.91 332.00 159.00
C 329.38 158.63 323.61 156.39 321.00 159.00 Z"/>
</g>
<g fill="None" fill-opacity="0.0" stroke="#616161" stroke-opacity="1.00" stroke-width="0.3"><path d="
M 236.00 184.00 
C 241.00 184.00 246.00 184.00 251.00 184.00
C 246.35 183.55 240.72 183.54 236.00 184.00 Z"/>
</g>
<g fill="None" fill-opacity="0.0" stroke="#7C7C7C" stroke-opacity="1.00" stroke-width="0.3"><path d="
M 208.00 192.00 
C 204.47 191.66 199.31 190.17 195.00 191.00
C 198.34 192.82 203.83 192.00 208.00 192.00 Z"/>
</g>
<g fill="None" fill-opacity="0.0" stroke="#CFCFCF" stroke-opacity="1.00" stroke-width="0.3"><path d="
M 355.00 211.00 
C 348.91 209.15 345.68 202.24 340.00 200.00
C 342.29 203.71 345.08 207.05 347.00 211.00
C 349.70 210.04 353.25 212.60 355.00 211.00 Z"/>
</g>
<g fill="None" fill-opacity="0.0" stroke="#D8D8D8" stroke-opacity="1.00" stroke-width="0.3"><path d="
M 191.00 205.00 
C 179.58 213.30 169.64 225.50 159.00 235.00
C 166.55 239.72 170.38 227.71 175.75 222.75 C 181.11 217.78 185.65 210.23 191.00 205.00 Z"/>
</g>
<g fill="None" fill-opacity="0.0" stroke="#E7E7E7" stroke-opacity="1.00" stroke-width="0.3"><path d="
M 156.00 217.00 
C 150.60 219.07 145.60 223.10 142.00 228.00
C 150.25 233.31 151.78 221.78 156.00 217.00 Z"/>
</g>
<g fill="None" fill-opacity="0.0" stroke="#EBEBEB" stroke-opacity="1.00" stroke-width="0.3"><path d="
M 221.00 230.00 
C 217.35 233.65 213.90 237.67 210.00 241.00
C 206.54 243.44 203.88 247.14 200.00 249.00
C 202.35 251.08 206.30 250.93 209.00 253.00
C 215.86 242.90 224.03 233.68 230.00 223.00
C 226.58 224.07 223.82 227.59 221.00 230.00 Z"/>
</g>
<g fill="None" fill-opacity="0.0" stroke="#E8E8E8" stroke-opacity="1.00" stroke-width="0.3"><path d="
M 248.00 228.00 
C 236.39 234.45 227.56 247.10 219.00 257.00
C 226.58 261.77 229.54 250.47 234.75 245.75 C 239.96 241.03 245.54 234.36 248.00 228.00 Z"/>
</g>
<g fill="None" fill-opacity="0.0" stroke="#747474" stroke-opacity="1.00" stroke-width="0.3"><path d="
M 210.00 241.00 
C 213.90 237.67 217.35 233.65 221.00 230.00
C 217.10 233.33 213.65 237.35 210.00 241.00 Z"/>
</g>
<g fill="None" fill-opacity="0.0" stroke="#CCCCCC" stroke-opacity="1.00" stroke-width="0.3"><path d="
M 293.00 250.00 
C 290.45 247.40 285.42 249.96 284.00 253.00
C 287.24 252.68 289.88 250.57 293.00 250.00 Z"/>
</g>
<g fill="None" fill-opacity="0.0" stroke="#BDBDBD" stroke-opacity="1.00" stroke-width="0.3"><path d="
M 83.00 252.00 
C 79.04 252.89 75.56 255.93 73.00 259.00
C 76.51 257.58 81.92 255.88 83.00 252.00 Z"/>
</g>
<g fill="None" fill-opacity="0.0" stroke="#EBEBEB" stroke-opacity="1.00" stroke-width="0.3"><path d="
M 251.00 257.00 
C 246.54 259.21 241.83 261.54 239.00 266.00
C 244.55 271.13 252.21 262.16 251.00 257.00 Z"/>
</g>
<g fill="None" fill-opacity="0.0" stroke="#EDEDED" stroke-opacity="1.00" stroke-width="0.3"><path d="
M 279.00 260.00 
C 269.91 258.60 262.38 268.40 255.00 273.00
C 258.84 273.84 262.19 276.16 266.00 277.00
C 269.27 270.67 274.84 265.85 279.00 260.00 Z"/>
</g>
<g fill="None" fill-opacity="0.0" stroke="#EAEAEA" stroke-opacity="1.00" stroke-width="0.3"><path d="
M 301.00 265.00 
C 289.45 260.64 280.60 275.53 270.00 279.00
C 278.45 282.10 286.54 286.09 295.00 289.00
C 298.25 283.97 303.78 280.57 308.00 277.00
C 299.86 275.62 292.85 283.43 284.00 282.00
C 287.93 275.19 294.65 269.24 301.00 265.00 Z"/>
</g>
<g fill="None" fill-opacity="0.0" stroke="#E4E4E4" stroke-opacity="1.00" stroke-width="0.3"><path d="
M 197.00 264.00 
C 175.45 272.62 159.15 291.48 140.00 304.00
C 149.16 302.60 158.50 301.99 168.00 302.00
C 174.01 290.06 192.44 289.25 197.00 276.00
C 182.07 282.72 168.91 292.84 155.00 301.00
C 164.17 284.84 184.09 276.96 197.00 264.00 Z"/>
</g>
<g fill="None" fill-opacity="0.0" stroke="#7E7E7E" stroke-opacity="1.00" stroke-width="0.3"><path d="
M 150.00 287.00 
C 152.82 284.18 156.04 280.74 159.00 278.00
C 155.70 280.61 152.76 283.77 150.00 287.00 Z"/>
</g>
<g fill="None" fill-opacity="0.0" stroke="#737373" stroke-opacity="1.00" stroke-width="0.3"><path d="
M 36.00 289.00 
C 38.35 286.09 42.26 282.74 45.00 280.00
C 41.91 282.64 38.30 285.50 36.00 289.00 Z"/>
</g>
<g fill="None" fill-opacity="0.0" stroke="#F1F1F1" stroke-opacity="1.00" stroke-width="0.3"><path d="
M 223.00 280.00 
C 206.44 283.34 193.69 295.91 178.00 301.00
C 185.34 301.00 203.04 305.67 208.23 299.23 C 213.42 292.78 216.63 285.74 223.00 280.00 Z"/>
</g>
<g fill="None" fill-opacity="0.0" stroke="#EAEAEA" stroke-opacity="1.00" stroke-width="0.3"><path d="
M 320.00 281.00 
C 312.60 285.24 303.43 286.54 296.00 290.00
C 307.67 292.27 322.19 306.32 332.00 295.00
C 324.56 293.70 317.73 290.67 310.00 293.00
C 312.26 288.30 316.95 285.27 320.00 281.00 Z"/>
</g>
<g fill="None" fill-opacity="0.0" stroke="#DEDEDE" stroke-opacity="1.00" stroke-width="0.3"><path d="
M 253.00 297.00 
C 248.13 297.03 244.65 301.30 240.00 302.00
C 240.86 305.75 247.05 303.39 250.00 305.00
C 250.55 302.16 251.58 299.55 253.00 297.00 Z"/>
</g>
<g fill="None" fill-opacity="0.0" stroke="#E4E4E4" stroke-opacity="1.00" stroke-width="0.3"><path d="
M 229.00 298.00 
C 225.37 299.13 221.80 300.55 218.00 301.00
C 220.66 302.55 229.95 303.79 229.00 298.00 Z"/>
</g>
<g fill="None" fill-opacity="0.0" stroke="#EFEFEF" stroke-opacity="1.00" stroke-width="0.3"><path d="
M 368.00 325.00 
C 352.88 314.51 334.20 311.94 316.00 309.00 C 297.81 306.06 275.99 298.97 258.00 306.00
C 294.74 312.12 331.17 319.38 368.00 325.00 Z"/>
</g>
<g fill="None" fill-opacity="0.0" stroke="#E6E6E6" stroke-opacity="1.00" stroke-width="0.3"><path d="
M 348.00 307.00 
C 344.40 306.07 339.19 304.91 336.00 307.00
C 340.38 307.68 345.43 313.79 348.00 307.00 Z"/>
</g>
<g fill="None" fill-opacity="0.0" stroke="#D6D6D6" stroke-opacity="1.00" stroke-width="0.3"><path d="
M 360.00 313.00 
C 357.64 313.30 353.98 311.97 353.00 315.00
C 355.80 315.96 360.81 318.60 360.00 313.00 Z"/>
</g>
<g fill="None" fill-opacity="0.0" stroke="#DFDFDF" stroke-opacity="1.00" stroke-width="0.3"><path d="
M 376.00 326.00 
C 376.04 323.86 375.29 321.41 374.00 320.00
C 372.43 322.66 367.64 319.41 366.00 322.00
C 369.66 322.42 372.37 325.57 376.00 326.00 Z"/>
</g>
<g fill="None" fill-opacity="0.0" stroke="#E1E1E1" stroke-opacity="1.00" stroke-width="0.3"><path d="
M 213.00 348.00 
C 205.37 355.22 201.00 365.51 197.00 375.00
C 209.72 370.60 207.19 357.42 213.00 348.00 Z"/>
</g>
<g fill="None" fill-opacity="0.0" stroke="#A1A1A1" stroke-opacity="1.00" stroke-width="0.3"><path d="
M 224.00 351.00 
C 221.94 354.20 218.31 357.29 217.00 361.00
C 220.75 359.02 223.53 355.23 224.00 351.00 Z"/>
</g>
<g fill="None" fill-opacity="0.0" stroke="#7E7E7E" stroke-opacity="1.00" stroke-width="0.3"><path d="
M 148.00 374.00 
C 148.00 374.00 148.72 374.25 149.00 374.00
C 152.25 369.57 154.86 364.15 157.00 359.00
C 152.86 363.03 150.66 368.79 148.00 374.00 Z"/>
</g>
<g fill="None" fill-opacity="0.0" stroke="#E6E6E6" stroke-opacity="1.00" stroke-width="0.3"><path d="
M 354.00 374.00 
C 353.26 376.09 353.75 380.77 354.00 383.00
C 354.28 384.25 353.40 386.47 355.00 387.00
C 358.45 384.14 357.33 368.62 354.00 374.00 Z"/>
</g>
<g fill="None" fill-opacity="0.0" stroke="#6A6A6A" stroke-opacity="1.00" stroke-width="0.3"><path d="
M 354.00 383.00 
C 353.75 380.77 353.26 376.09 354.00 374.00
C 352.21 376.88 353.24 380.12 354.00 383.00 Z"/>
</g>
<g fill="None" fill-opacity="0.0" stroke="#6B6B6B" stroke-opacity="1.00" stroke-width="0.3"><path d="
M 249.00 396.00 
C 248.74 397.87 250.67 403.94 251.00 406.00
C 250.90 404.14 249.70 390.97 249.00 396.00 Z"/>
</g>
<g fill="None" fill-opacity="0.0" stroke="#868686" stroke-opacity="1.00" stroke-width="0.3"><path d="
M 277.00 405.00 
C 277.10 405.51 278.84 407.43 279.00 408.00
C 278.42 403.82 280.21 398.42 278.00 395.00
C 278.45 398.53 277.47 401.72 277.00 405.00 Z"/>
</g>
<g fill="None" fill-opacity="0.0" stroke="#BCBCBC" stroke-opacity="1.00" stroke-width="0.3"><path d="
M 350.00 406.00 
C 350.21 402.92 352.29 399.15 349.00 397.00
C 346.62 399.17 348.94 403.84 350.00 406.00 Z"/>
</g>
<g fill="None" fill-opacity="0.0" stroke="#A7A7A7" stroke-opacity="1.00" stroke-width="0.3"><path d="
M 229.00 427.00 
C 229.02 427.20 229.95 427.65 230.00 428.00
C 230.97 424.20 232.96 417.78 231.00 414.00
C 230.64 418.44 229.69 422.67 229.00 427.00 Z"/>
</g>
<g fill="None" fill-opacity="0.0" stroke="#5D5D5D" stroke-opacity="1.00" stroke-width="0.3"><path d="
M 259.00 418.00 
C 259.02 420.27 260.38 425.65 261.00 428.00
C 260.81 423.32 261.63 418.31 260.00 414.00
C 258.31 414.51 259.18 416.71 259.00 418.00 Z"/>
</g>
<g fill="None" fill-opacity="0.0" stroke="#949494" stroke-opacity="1.00" stroke-width="0.3"><path d="
M 182.00 461.00 
C 182.00 457.34 181.86 453.65 182.00 450.00
C 181.49 453.55 181.66 457.44 182.00 461.00 Z"/>
</g>
<g fill="None" fill-opacity="0.0" stroke="#787878" stroke-opacity="1.00" stroke-width="0.3"><path d="
M 185.00 480.00 
C 185.00 476.00 185.00 472.00 185.00 468.00
C 184.64 471.71 184.64 476.23 185.00 480.00 Z"/>
</g>
<g fill="#FCFCFC" fill-opacity="1.00" stroke="None">
<path d="
M 0.00 684.00 
L 406.00 684.00
L 406.00 0.00
L 0.00 0.00
L 0.00 684.00
M 375.00 86.00 
C 375.30 89.14 375.30 92.92 375.00 96.00
C 375.00 104.41 372.84 113.95 374.00 122.00
C 374.05 122.35 375.00 122.84 375.00 123.00
C 376.56 112.80 379.00 103.09 381.00 93.00
C 383.41 115.63 381.69 140.23 380.00 163.00
C 384.41 161.55 380.74 173.72 382.00 180.00 C 383.26 186.28 379.70 195.14 381.00 202.00 C 382.30 208.86 382.05 217.49 382.00 225.00 C 381.95 232.51 382.01 240.32 382.00 248.00 C 381.99 255.68 381.97 264.26 382.00 272.00 C 382.03 279.74 381.91 287.28 382.00 295.00 C 382.09 302.72 381.81 311.37 382.00 319.00 C 382.19 326.63 381.55 334.62 382.00 342.00 C 382.45 349.38 380.91 356.34 378.68 362.68 C 376.45 369.02 376.02 375.00 374.02 381.02 C 372.03 387.05 372.39 395.57 370.01 401.01 C 367.62 406.45 360.42 406.32 357.25 411.25 C 354.07 416.18 348.07 418.46 346.00 424.00
C 343.01 418.78 341.70 411.32 337.00 407.00
C 334.25 418.27 345.08 429.43 338.00 439.00
C 334.07 428.19 331.38 417.01 328.00 406.00
C 327.51 426.42 338.75 450.56 330.00 471.00
C 325.60 454.41 321.87 436.81 314.00 421.00
C 315.44 442.80 332.43 467.07 326.00 490.00
C 320.88 477.41 316.42 464.50 311.00 452.00
C 311.80 469.87 317.54 489.60 317.00 509.00
C 305.21 493.79 301.93 472.99 292.00 457.00
C 292.20 467.65 298.68 478.97 299.98 490.02 C 301.27 501.08 311.85 514.10 305.00 524.00
C 296.30 506.96 289.99 489.04 284.00 471.00
C 283.04 485.06 293.65 497.35 294.78 512.22 C 295.91 527.10 302.71 544.26 300.00 559.00
C 288.70 544.65 291.44 524.77 281.00 510.00
C 280.22 525.56 293.25 542.40 288.00 559.00
C 280.40 547.49 280.14 533.15 274.00 521.00
C 271.61 536.19 278.36 552.13 278.00 568.00
C 268.37 562.43 268.97 548.51 265.00 539.00
C 263.51 547.85 268.11 558.91 269.98 568.02 C 271.84 577.14 278.79 589.21 273.00 597.00
C 265.83 583.64 257.93 569.78 250.00 557.00
C 255.08 573.70 262.45 591.25 261.00 609.00
C 258.02 598.36 250.60 588.72 247.00 578.00
C 245.32 589.52 255.80 604.08 249.00 616.00
C 247.31 610.91 245.19 605.22 243.00 600.00
C 244.19 616.74 241.51 635.13 235.00 651.00
C 229.37 643.08 236.19 631.18 233.00 623.00
C 231.53 636.22 227.01 649.13 222.00 661.00
C 219.16 655.65 222.88 647.94 220.00 643.00
C 216.95 652.29 212.93 661.32 211.00 671.00
C 207.55 653.45 212.19 632.93 211.00 616.00
C 207.75 622.64 208.78 630.54 205.00 637.00
C 199.17 620.31 210.05 601.45 208.00 585.00
C 205.70 589.36 204.26 594.02 204.00 599.00
C 199.17 592.37 204.39 580.56 204.99 571.99 C 205.59 563.42 210.35 555.43 213.77 547.77 C 217.19 540.11 218.85 531.90 224.00 525.00
C 219.70 525.37 218.29 531.67 214.00 532.00
C 216.75 515.64 231.19 504.14 235.00 488.00
C 231.36 489.66 230.77 495.18 227.00 496.00
C 229.41 481.56 237.44 467.26 244.92 454.92 C 252.40 442.59 263.19 434.23 273.25 424.25 C 283.30 414.26 296.28 407.92 306.23 398.23 C 316.18 388.54 334.72 379.67 330.00 364.00
C 325.65 366.98 325.04 374.80 323.00 380.00
C 319.48 379.75 321.70 374.31 320.00 372.00
C 312.44 375.50 313.86 386.40 310.00 393.00
C 306.20 390.87 308.64 384.74 306.00 382.00
C 303.84 388.49 300.59 395.37 298.00 402.00
C 293.50 398.18 298.08 390.22 295.00 386.00
C 292.03 396.27 287.14 406.10 281.00 415.00
C 277.97 414.02 279.30 410.36 279.00 408.00
C 278.84 407.43 277.10 405.51 277.00 405.00
C 276.30 409.87 276.44 415.91 272.00 419.00
C 269.71 402.73 274.84 383.79 270.00 368.00
C 265.94 388.97 268.55 411.69 262.00 432.00
C 260.40 431.47 261.28 429.25 261.00 428.00
C 260.38 425.65 259.02 420.27 259.00 418.00
C 258.25 423.25 258.62 428.30 256.00 433.00
C 252.84 426.26 253.13 414.61 251.00 406.00
C 250.67 403.94 248.74 397.87 249.00 396.00
C 243.69 411.31 246.36 430.24 240.00 445.00
C 237.84 442.47 239.99 437.26 237.00 435.00
C 236.90 441.33 235.26 447.26 233.00 453.00
C 228.23 447.53 230.64 436.09 230.00 428.00
C 229.95 427.65 229.02 427.20 229.00 427.00
C 226.57 442.25 225.38 458.27 221.00 473.00
C 208.88 453.90 219.42 423.85 213.00 402.00
C 207.10 426.16 218.05 453.71 207.00 476.00
C 204.04 468.74 207.97 458.19 205.00 451.00
C 199.65 464.10 206.29 481.95 197.00 493.00
C 191.34 475.94 195.09 455.56 194.00 437.00
C 188.42 455.68 194.43 478.24 188.00 497.00
C 185.20 492.26 185.09 485.82 185.00 480.00
C 184.64 476.23 184.64 471.71 185.00 468.00
C 185.00 458.83 185.83 448.34 184.00 440.00
C 182.40 443.06 181.68 446.41 182.00 450.00
C 181.86 453.65 182.00 457.34 182.00 461.00
C 182.00 479.29 185.97 498.60 177.00 515.00
C 174.30 513.53 174.09 509.85 174.00 507.00
C 172.27 511.16 171.64 516.46 170.00 521.00
C 163.61 507.86 173.74 485.21 167.00 472.00
C 158.31 492.35 160.21 517.09 149.00 536.00
C 146.12 525.25 153.38 513.29 150.00 502.00
C 144.11 518.55 135.62 535.15 133.00 553.00
C 126.13 538.84 131.88 516.19 132.00 501.00
C 130.12 504.45 128.13 507.72 126.00 511.00
C 126.81 494.30 135.12 476.46 143.00 461.00
C 135.16 467.51 139.37 454.12 142.92 449.92 C 146.47 445.72 150.53 438.53 154.00 434.00
C 151.34 433.52 150.68 437.53 148.00 437.00
C 149.31 422.84 161.06 413.84 168.75 402.75 C 176.45 391.66 190.69 385.39 192.93 371.93 C 195.16 358.46 202.92 344.99 209.00 333.00
C 193.11 353.14 182.04 377.42 167.00 398.00
C 163.30 388.86 170.76 380.66 172.00 372.00
C 164.35 379.22 165.14 393.52 156.00 399.00
C 156.10 381.12 168.40 366.95 172.00 350.00
C 155.77 367.74 152.80 395.67 134.00 411.00
C 136.44 397.88 144.30 386.41 149.00 374.00
C 148.72 374.25 148.00 374.00 148.00 374.00
C 140.36 388.95 130.74 404.93 117.00 415.00
C 128.72 388.70 137.23 360.61 151.00 335.00
C 133.30 358.50 122.57 389.18 100.00 409.00
C 105.85 381.80 125.87 360.67 133.00 334.00
C 119.07 359.51 105.65 388.17 85.00 409.00
C 92.34 378.63 114.47 354.63 128.00 327.00
C 115.17 339.22 108.23 355.18 96.23 368.23 C 84.23 381.28 81.70 402.98 66.00 412.00
C 75.96 387.04 89.54 363.66 102.00 340.00
C 86.46 358.62 75.98 381.67 55.00 396.00
C 58.54 376.94 77.62 365.67 82.00 347.00
C 68.37 354.09 63.78 370.22 52.75 380.75 C 41.73 391.28 30.45 401.54 19.00 410.00
C 17.64 392.42 34.50 382.02 43.00 369.00
C 34.46 372.24 29.03 380.97 20.00 383.00
C 30.43 363.23 52.35 351.16 70.00 340.00
C 59.08 338.92 50.05 344.76 40.00 347.00
C 50.78 336.87 63.42 331.00 78.00 327.00 C 92.58 323.00 107.99 313.89 124.00 315.00
C 111.62 312.27 98.00 317.24 86.00 314.00
C 97.27 311.02 110.57 306.28 122.67 305.67 C 134.77 305.06 141.89 294.97 150.00 287.00
C 152.76 283.77 155.70 280.61 159.00 278.00
C 162.49 275.25 167.43 272.95 169.00 269.00
C 154.60 277.54 143.69 292.06 128.00 298.00
C 134.49 282.44 149.45 269.50 161.00 257.00
C 136.23 266.93 117.47 290.93 92.00 299.00
C 97.32 282.65 114.79 271.46 126.00 260.00
C 103.07 276.14 79.64 291.28 53.00 300.00
C 61.27 281.22 86.36 277.47 95.00 261.00
C 75.44 273.37 54.23 280.03 34.00 292.00
C 33.73 290.72 34.77 289.28 36.00 289.00
C 38.30 285.50 41.91 282.64 45.00 280.00
C 53.00 273.17 60.01 265.91 67.00 258.00
C 52.09 266.44 36.64 275.06 20.00 279.00
C 29.79 266.42 46.63 259.72 59.00 250.00
C 42.52 257.25 23.04 253.64 6.00 259.00
C 15.59 244.88 35.88 245.86 51.00 242.00
C 42.26 240.15 32.79 237.77 24.00 235.00
C 30.28 230.13 41.22 232.81 50.00 231.00 C 58.78 229.19 70.57 231.11 79.00 229.00
C 70.55 227.50 62.48 224.19 55.00 220.00
C 71.03 216.39 88.33 227.39 104.00 225.00
C 100.24 223.63 95.56 222.21 93.00 219.00
C 107.89 216.15 123.40 226.23 137.02 219.02 C 150.65 211.82 162.72 208.83 177.02 204.02 C 191.33 199.21 206.79 195.77 222.00 194.00
C 218.25 191.46 212.74 192.04 208.00 192.00
C 203.83 192.00 198.34 192.82 195.00 191.00
C 206.12 182.87 222.01 184.00 236.00 184.00
C 240.72 183.54 246.35 183.55 251.00 184.00
C 267.88 184.00 282.87 189.14 299.00 192.00
C 286.41 182.90 269.15 182.83 255.31 175.69 C 241.46 168.56 227.83 161.59 213.00 157.00
C 228.35 155.02 246.33 162.45 261.00 163.00
C 240.15 155.23 224.88 136.78 204.00 129.00
C 227.69 129.29 251.11 142.37 272.00 154.00
C 251.92 134.70 223.96 127.27 202.00 111.00
C 214.49 109.69 198.16 104.84 196.00 101.00
C 214.36 101.56 229.44 113.27 246.00 119.00
C 245.82 118.58 246.00 118.00 246.00 118.00
C 230.95 109.52 215.01 101.01 201.00 91.00
C 216.18 94.26 230.52 100.10 244.00 108.00
C 222.47 90.73 195.22 77.82 172.00 62.00
C 238.62 80.98 294.43 135.41 334.00 192.00
C 338.08 189.25 343.55 193.17 347.00 191.00
C 341.35 189.62 336.67 185.38 331.00 184.00
C 337.89 180.91 347.36 187.26 354.00 185.00
C 345.41 182.12 337.81 176.35 329.00 174.00
C 329.65 171.29 332.71 171.59 334.00 170.00
C 330.37 165.98 321.51 163.62 321.00 159.00
C 323.61 156.39 329.38 158.63 332.00 159.00
C 337.22 159.20 341.95 160.13 347.00 161.00
C 340.97 153.85 325.31 155.75 322.00 148.00
C 322.52 147.41 326.52 145.99 327.00 146.00
C 322.50 143.48 316.46 142.07 313.00 138.00
C 322.06 134.78 332.49 141.65 341.00 139.00
C 330.18 133.79 317.66 131.85 307.00 127.00
C 318.13 122.80 330.04 131.10 340.00 130.00
C 323.33 125.89 306.37 121.16 291.00 114.00
C 299.59 108.10 311.27 116.41 320.00 113.00
C 313.86 112.24 308.17 109.76 302.00 109.00
C 310.47 105.96 320.22 109.54 329.00 110.00
C 317.74 103.11 303.18 99.66 291.00 95.00
C 300.78 89.37 312.60 99.16 322.00 97.00
C 308.77 91.77 294.01 91.95 281.00 86.00
C 291.31 80.49 306.86 86.26 317.00 86.00
C 299.32 84.09 284.38 73.69 267.00 71.00
C 273.61 65.52 283.06 72.31 291.00 71.00
C 288.00 67.66 282.80 66.46 280.00 63.00
C 288.36 62.05 295.31 66.46 303.00 68.00
C 290.42 61.64 276.38 55.55 264.00 49.00
C 276.31 47.03 289.30 53.69 301.00 58.00
C 286.03 45.20 271.55 30.66 255.00 20.00
C 276.36 17.63 294.14 35.18 310.00 48.00
C 304.39 37.04 299.46 25.75 292.00 16.00
C 312.03 25.23 320.36 45.95 331.00 63.00
C 329.39 53.52 326.68 41.50 332.00 33.00
C 338.54 47.88 343.07 63.81 346.00 80.00
C 348.52 68.93 342.18 55.10 345.00 44.00
C 358.20 59.72 352.69 81.40 357.00 100.00
C 358.90 93.55 359.43 85.89 361.00 79.00
C 363.87 88.71 360.17 100.95 363.00 111.00
C 371.29 99.85 360.52 80.92 368.00 68.00
C 374.26 71.68 375.33 79.26 375.00 86.00 Z"/>
</g>
<g fill="#000000" fill-opacity="1.00" stroke="None">
<path d="
M 327.00 146.00 
C 328.07 146.60 329.53 146.80 330.00 148.00
C 327.33 148.00 324.67 148.00 322.00 148.00
C 325.31 155.75 340.97 153.85 347.00 161.00
C 341.95 160.13 337.22 159.20 332.00 159.00
C 329.60 158.91 323.03 157.85 321.00 159.00
C 321.51 163.62 330.37 165.98 334.00 170.00
C 332.71 171.59 329.65 171.29 329.00 174.00
C 337.81 176.35 345.41 182.12 354.00 185.00
C 347.36 187.26 337.89 180.91 331.00 184.00
C 336.67 185.38 341.35 189.62 347.00 191.00
C 343.55 193.17 338.08 189.25 334.00 192.00
C 294.43 135.41 238.62 80.98 172.00 62.00
C 195.22 77.82 222.47 90.73 244.00 108.00
C 230.52 100.10 216.18 94.26 201.00 91.00
C 215.01 101.01 230.95 109.52 246.00 118.00
C 250.75 120.68 257.24 122.69 260.00 127.00
C 255.53 123.88 249.71 122.73 246.00 119.00
C 229.44 113.27 214.36 101.56 196.00 101.00
C 198.16 104.84 214.49 109.69 202.00 111.00
C 223.96 127.27 251.92 134.70 272.00 154.00
C 251.11 142.37 227.69 129.29 204.00 129.00
C 224.88 136.78 240.15 155.23 261.00 163.00
C 246.33 162.45 228.35 155.02 213.00 157.00
C 227.83 161.59 241.46 168.56 255.31 175.69 C 269.15 182.83 286.41 182.90 299.00 192.00
C 282.87 189.14 267.88 184.00 251.00 184.00
C 246.00 184.00 241.00 184.00 236.00 184.00
C 222.01 184.00 206.12 182.87 195.00 191.00
C 199.31 190.17 204.47 191.66 208.00 192.00
C 212.74 192.04 218.25 191.46 222.00 194.00
C 206.79 195.77 191.33 199.21 177.02 204.02 C 162.72 208.83 150.65 211.82 137.02 219.02 C 123.40 226.23 107.89 216.15 93.00 219.00
C 95.56 222.21 100.24 223.63 104.00 225.00
C 88.33 227.39 71.03 216.39 55.00 220.00
C 62.48 224.19 70.55 227.50 79.00 229.00
C 70.57 231.11 58.78 229.19 50.00 231.00 C 41.22 232.81 30.28 230.13 24.00 235.00
C 32.79 237.77 42.26 240.15 51.00 242.00
C 35.88 245.86 15.59 244.88 6.00 259.00
C 23.04 253.64 42.52 257.25 59.00 250.00
C 46.63 259.72 29.79 266.42 20.00 279.00
C 36.64 275.06 52.09 266.44 67.00 258.00
C 60.01 265.91 53.00 273.17 45.00 280.00
C 42.26 282.74 38.35 286.09 36.00 289.00
C 34.77 289.28 33.73 290.72 34.00 292.00
C 54.23 280.03 75.44 273.37 95.00 261.00
C 86.36 277.47 61.27 281.22 53.00 300.00
C 79.64 291.28 103.07 276.14 126.00 260.00
C 114.79 271.46 97.32 282.65 92.00 299.00
C 117.47 290.93 136.23 266.93 161.00 257.00
C 149.45 269.50 134.49 282.44 128.00 298.00
C 143.69 292.06 154.60 277.54 169.00 269.00
C 167.43 272.95 162.49 275.25 159.00 278.00
C 156.04 280.74 152.82 284.18 150.00 287.00
C 141.89 294.97 134.77 305.06 122.67 305.67 C 110.57 306.28 97.27 311.02 86.00 314.00
C 98.00 317.24 111.62 312.27 124.00 315.00
C 107.99 313.89 92.58 323.00 78.00 327.00 C 63.42 331.00 50.78 336.87 40.00 347.00
C 50.05 344.76 59.08 338.92 70.00 340.00
C 52.35 351.16 30.43 363.23 20.00 383.00
C 29.03 380.97 34.46 372.24 43.00 369.00
C 34.50 382.02 17.64 392.42 19.00 410.00
C 30.45 401.54 41.73 391.28 52.75 380.75 C 63.78 370.22 68.37 354.09 82.00 347.00
C 77.62 365.67 58.54 376.94 55.00 396.00
C 75.98 381.67 86.46 358.62 102.00 340.00
C 89.54 363.66 75.96 387.04 66.00 412.00
C 81.70 402.98 84.23 381.28 96.23 368.23 C 108.23 355.18 115.17 339.22 128.00 327.00
C 114.47 354.63 92.34 378.63 85.00 409.00
C 105.65 388.17 119.07 359.51 133.00 334.00
C 125.87 360.67 105.85 381.80 100.00 409.00
C 122.57 389.18 133.30 358.50 151.00 335.00
C 137.23 360.61 128.72 388.70 117.00 415.00
C 130.74 404.93 140.36 388.95 148.00 374.00
C 150.66 368.79 152.86 363.03 157.00 359.00
C 154.86 364.15 152.25 369.57 149.00 374.00
C 144.30 386.41 136.44 397.88 134.00 411.00
C 152.80 395.67 155.77 367.74 172.00 350.00
C 168.40 366.95 156.10 381.12 156.00 399.00
C 165.14 393.52 164.35 379.22 172.00 372.00
C 170.76 380.66 163.30 388.86 167.00 398.00
C 182.04 377.42 193.11 353.14 209.00 333.00
C 202.92 344.99 195.16 358.46 192.93 371.93 C 190.69 385.39 176.45 391.66 168.75 402.75 C 161.06 413.84 149.31 422.84 148.00 437.00
C 150.68 437.53 151.34 433.52 154.00 434.00
C 150.53 438.53 146.47 445.72 142.92 449.92 C 139.37 454.12 135.16 467.51 143.00 461.00
C 135.12 476.46 126.81 494.30 126.00 511.00
C 128.13 507.72 130.12 504.45 132.00 501.00
C 131.88 516.19 126.13 538.84 133.00 553.00
C 135.62 535.15 144.11 518.55 150.00 502.00
C 153.38 513.29 146.12 525.25 149.00 536.00
C 160.21 517.09 158.31 492.35 167.00 472.00
C 173.74 485.21 163.61 507.86 170.00 521.00
C 171.64 516.46 172.27 511.16 174.00 507.00
C 174.09 509.85 174.30 513.53 177.00 515.00
C 185.97 498.60 182.00 479.29 182.00 461.00
C 181.66 457.44 181.49 453.55 182.00 450.00
C 181.68 446.41 182.40 443.06 184.00 440.00
C 185.83 448.34 185.00 458.83 185.00 468.00
C 185.00 472.00 185.00 476.00 185.00 480.00
C 185.09 485.82 185.20 492.26 188.00 497.00
C 194.43 478.24 188.42 455.68 194.00 437.00
C 195.09 455.56 191.34 475.94 197.00 493.00
C 206.29 481.95 199.65 464.10 205.00 451.00
C 207.97 458.19 204.04 468.74 207.00 476.00
C 218.05 453.71 207.10 426.16 213.00 402.00
C 219.42 423.85 208.88 453.90 221.00 473.00
C 225.38 458.27 226.57 442.25 229.00 427.00
C 229.69 422.67 230.64 418.44 231.00 414.00
C 232.96 417.78 230.97 424.20 230.00 428.00
C 230.64 436.09 228.23 447.53 233.00 453.00
C 235.26 447.26 236.90 441.33 237.00 435.00
C 239.99 437.26 237.84 442.47 240.00 445.00
C 246.36 430.24 243.69 411.31 249.00 396.00
C 249.70 390.97 250.90 404.14 251.00 406.00
C 253.13 414.61 252.84 426.26 256.00 433.00
C 258.62 428.30 258.25 423.25 259.00 418.00
C 259.18 416.71 258.31 414.51 260.00 414.00
C 261.63 418.31 260.81 423.32 261.00 428.00
C 261.28 429.25 260.40 431.47 262.00 432.00
C 268.55 411.69 265.94 388.97 270.00 368.00
C 274.84 383.79 269.71 402.73 272.00 419.00
C 276.44 415.91 276.30 409.87 277.00 405.00
C 277.47 401.72 278.45 398.53 278.00 395.00
C 280.21 398.42 278.42 403.82 279.00 408.00
C 279.30 410.36 277.97 414.02 281.00 415.00
C 287.14 406.10 292.03 396.27 295.00 386.00
C 298.08 390.22 293.50 398.18 298.00 402.00
C 300.59 395.37 303.84 388.49 306.00 382.00
C 308.64 384.74 306.20 390.87 310.00 393.00
C 313.86 386.40 312.44 375.50 320.00 372.00
C 321.70 374.31 319.48 379.75 323.00 380.00
C 325.04 374.80 325.65 366.98 330.00 364.00
C 334.72 379.67 316.18 388.54 306.23 398.23 C 296.28 407.92 283.30 414.26 273.25 424.25 C 263.19 434.23 252.40 442.59 244.92 454.92 C 237.44 467.26 229.41 481.56 227.00 496.00
C 230.77 495.18 231.36 489.66 235.00 488.00
C 231.19 504.14 216.75 515.64 214.00 532.00
C 218.29 531.67 219.70 525.37 224.00 525.00
C 218.85 531.90 217.19 540.11 213.77 547.77 C 210.35 555.43 205.59 563.42 204.99 571.99 C 204.39 580.56 199.17 592.37 204.00 599.00
C 204.26 594.02 205.70 589.36 208.00 585.00
C 210.05 601.45 199.17 620.31 205.00 637.00
C 208.78 630.54 207.75 622.64 211.00 616.00
C 212.19 632.93 207.55 653.45 211.00 671.00
C 212.93 661.32 216.95 652.29 220.00 643.00
C 222.88 647.94 219.16 655.65 222.00 661.00
C 227.01 649.13 231.53 636.22 233.00 623.00
C 236.19 631.18 229.37 643.08 235.00 651.00
C 241.51 635.13 244.19 616.74 243.00 600.00
C 245.19 605.22 247.31 610.91 249.00 616.00
C 255.80 604.08 245.32 589.52 247.00 578.00
C 250.60 588.72 258.02 598.36 261.00 609.00
C 262.45 591.25 255.08 573.70 250.00 557.00
C 257.93 569.78 265.83 583.64 273.00 597.00
C 278.79 589.21 271.84 577.14 269.98 568.02 C 268.11 558.91 263.51 547.85 265.00 539.00
C 268.97 548.51 268.37 562.43 278.00 568.00
C 278.36 552.13 271.61 536.19 274.00 521.00
C 280.14 533.15 280.40 547.49 288.00 559.00
C 293.25 542.40 280.22 525.56 281.00 510.00
C 291.44 524.77 288.70 544.65 300.00 559.00
C 302.71 544.26 295.91 527.10 294.78 512.22 C 293.65 497.35 283.04 485.06 284.00 471.00
C 289.99 489.04 296.30 506.96 305.00 524.00
C 311.85 514.10 301.27 501.08 299.98 490.02 C 298.68 478.97 292.20 467.65 292.00 457.00
C 301.93 472.99 305.21 493.79 317.00 509.00
C 317.54 489.60 311.80 469.87 311.00 452.00
C 316.42 464.50 320.88 477.41 326.00 490.00
C 332.43 467.07 315.44 442.80 314.00 421.00
C 321.87 436.81 325.60 454.41 330.00 471.00
C 338.75 450.56 327.51 426.42 328.00 406.00
C 331.38 417.01 334.07 428.19 338.00 439.00
C 345.08 429.43 334.25 418.27 337.00 407.00
C 341.70 411.32 343.01 418.78 346.00 424.00
C 348.07 418.46 354.07 416.18 357.25 411.25 C 360.42 406.32 367.62 406.45 370.01 401.01 C 372.39 395.57 372.03 387.05 374.02 381.02 C 376.02 375.00 376.45 369.02 378.68 362.68 C 380.91 356.34 382.45 349.38 382.00 342.00 C 381.55 334.62 382.19 326.63 382.00 319.00 C 381.81 311.37 382.09 302.72 382.00 295.00 C 381.91 287.28 382.03 279.74 382.00 272.00 C 381.97 264.26 381.99 255.68 382.00 248.00 C 382.01 240.32 381.95 232.51 382.00 225.00 C 382.05 217.49 382.30 208.86 381.00 202.00 C 379.70 195.14 383.26 186.28 382.00 180.00 C 380.74 173.72 384.41 161.55 380.00 163.00
C 381.69 140.23 383.41 115.63 381.00 93.00
C 379.00 103.09 376.56 112.80 375.00 123.00
C 374.65 125.28 373.45 127.46 374.00 130.00
C 372.50 128.36 372.28 123.57 374.00 122.00
C 372.84 113.95 375.00 104.41 375.00 96.00
C 375.00 92.67 375.00 89.33 375.00 86.00
C 375.33 79.26 374.26 71.68 368.00 68.00
C 360.52 80.92 371.29 99.85 363.00 111.00
C 360.17 100.95 363.87 88.71 361.00 79.00
C 359.43 85.89 358.90 93.55 357.00 100.00
C 352.69 81.40 358.20 59.72 345.00 44.00
C 342.18 55.10 348.52 68.93 346.00 80.00
C 343.07 63.81 338.54 47.88 332.00 33.00
C 326.68 41.50 329.39 53.52 331.00 63.00
C 320.36 45.95 312.03 25.23 292.00 16.00
C 299.46 25.75 304.39 37.04 310.00 48.00
C 294.14 35.18 276.36 17.63 255.00 20.00
C 271.55 30.66 286.03 45.20 301.00 58.00
C 289.30 53.69 276.31 47.03 264.00 49.00
C 276.38 55.55 290.42 61.64 303.00 68.00
C 295.31 66.46 288.36 62.05 280.00 63.00
C 282.80 66.46 288.00 67.66 291.00 71.00
C 283.06 72.31 273.61 65.52 267.00 71.00
C 284.38 73.69 299.32 84.09 317.00 86.00
C 306.86 86.26 291.31 80.49 281.00 86.00
C 294.01 91.95 308.77 91.77 322.00 97.00
C 312.60 99.16 300.78 89.37 291.00 95.00
C 303.18 99.66 317.74 103.11 329.00 110.00
C 320.22 109.54 310.47 105.96 302.00 109.00
C 308.17 109.76 313.86 112.24 320.00 113.00
C 311.27 116.41 299.59 108.10 291.00 114.00
C 306.37 121.16 323.33 125.89 340.00 130.00
C 330.04 131.10 318.13 122.80 307.00 127.00
C 317.66 131.85 330.18 133.79 341.00 139.00
C 332.49 141.65 322.06 134.78 313.00 138.00
C 316.46 142.07 322.50 143.48 327.00 146.00
M 355.00 211.00 
C 353.25 212.60 349.70 210.04 347.00 211.00
C 345.08 207.05 342.29 203.71 340.00 200.00
C 345.68 202.24 348.91 209.15 355.00 211.00
M 191.00 205.00 
C 185.65 210.23 181.11 217.78 175.75 222.75 C 170.38 227.71 166.55 239.72 159.00 235.00
C 169.64 225.50 179.58 213.30 191.00 205.00
M 156.00 217.00 
C 151.78 221.78 150.25 233.31 142.00 228.00
C 145.60 223.10 150.60 219.07 156.00 217.00
M 210.00 241.00 
C 213.65 237.35 217.10 233.33 221.00 230.00
C 223.82 227.59 226.58 224.07 230.00 223.00
C 224.03 233.68 215.86 242.90 209.00 253.00
C 206.30 250.93 202.35 251.08 200.00 249.00
C 203.88 247.14 206.54 243.44 210.00 241.00
M 248.00 228.00 
C 245.54 234.36 239.96 241.03 234.75 245.75 C 229.54 250.47 226.58 261.77 219.00 257.00
C 227.56 247.10 236.39 234.45 248.00 228.00
M 293.00 250.00 
C 289.88 250.57 287.24 252.68 284.00 253.00
C 285.42 249.96 290.45 247.40 293.00 250.00
M 83.00 252.00 
C 81.92 255.88 76.51 257.58 73.00 259.00
C 75.56 255.93 79.04 252.89 83.00 252.00
M 251.00 257.00 
C 252.21 262.16 244.55 271.13 239.00 266.00
C 241.83 261.54 246.54 259.21 251.00 257.00
M 279.00 260.00 
C 274.84 265.85 269.27 270.67 266.00 277.00
C 262.19 276.16 258.84 273.84 255.00 273.00
C 262.38 268.40 269.91 258.60 279.00 260.00
M 301.00 265.00 
C 294.65 269.24 287.93 275.19 284.00 282.00
C 292.85 283.43 299.86 275.62 308.00 277.00
C 303.78 280.57 298.25 283.97 295.00 289.00
C 286.54 286.09 278.45 282.10 270.00 279.00
C 280.60 275.53 289.45 260.64 301.00 265.00
M 197.00 264.00 
C 184.09 276.96 164.17 284.84 155.00 301.00
C 168.91 292.84 182.07 282.72 197.00 276.00
C 192.44 289.25 174.01 290.06 168.00 302.00
C 158.50 301.99 149.16 302.60 140.00 304.00
C 159.15 291.48 175.45 272.62 197.00 264.00
M 223.00 280.00 
C 216.63 285.74 213.42 292.78 208.23 299.23 C 203.04 305.67 185.34 301.00 178.00 301.00
C 193.69 295.91 206.44 283.34 223.00 280.00
M 320.00 281.00 
C 316.95 285.27 312.26 288.30 310.00 293.00
C 317.73 290.67 324.56 293.70 332.00 295.00
C 322.19 306.32 307.67 292.27 296.00 290.00
C 303.43 286.54 312.60 285.24 320.00 281.00
M 253.00 297.00 
C 251.58 299.55 250.55 302.16 250.00 305.00
C 247.05 303.39 240.86 305.75 240.00 302.00
C 244.65 301.30 248.13 297.03 253.00 297.00
M 229.00 298.00 
C 229.95 303.79 220.66 302.55 218.00 301.00
C 221.80 300.55 225.37 299.13 229.00 298.00
M 368.00 325.00 
C 331.17 319.38 294.74 312.12 258.00 306.00
C 275.99 298.97 297.81 306.06 316.00 309.00 C 334.20 311.94 352.88 314.51 368.00 325.00
M 348.00 307.00 
C 345.43 313.79 340.38 307.68 336.00 307.00
C 339.19 304.91 344.40 306.07 348.00 307.00
M 360.00 313.00 
C 360.81 318.60 355.80 315.96 353.00 315.00
C 353.98 311.97 357.64 313.30 360.00 313.00
M 376.00 326.00 
C 372.37 325.57 369.66 322.42 366.00 322.00
C 367.64 319.41 372.43 322.66 374.00 320.00
C 375.29 321.41 376.04 323.86 376.00 326.00
M 213.00 348.00 
C 207.19 357.42 209.72 370.60 197.00 375.00
C 201.00 365.51 205.37 355.22 213.00 348.00
M 224.00 351.00 
C 223.53 355.23 220.75 359.02 217.00 361.00
C 218.31 357.29 221.94 354.20 224.00 351.00
M 354.00 383.00 
C 353.24 380.12 352.21 376.88 354.00 374.00
C 357.33 368.62 358.45 384.14 355.00 387.00
C 353.40 386.47 354.28 384.25 354.00 383.00
M 350.00 406.00 
C 348.94 403.84 346.62 399.17 349.00 397.00
C 352.29 399.15 350.21 402.92 350.00 406.00 Z"/>
</g>
<g fill="#7E7E7E" fill-opacity="1.00" stroke="None">
<path d="
M 375.00 96.00 
C 375.30 92.92 375.30 89.14 375.00 86.00
C 375.00 89.33 375.00 92.67 375.00 96.00 Z"/>
</g>
<g fill="#585858" fill-opacity="1.00" stroke="None">
<path d="
M 246.00 119.00 
C 249.71 122.73 255.53 123.88 260.00 127.00
C 257.24 122.69 250.75 120.68 246.00 118.00
C 246.00 118.00 245.82 118.58 246.00 119.00 Z"/>
</g>
<g fill="#919191" fill-opacity="1.00" stroke="None">
<path d="
M 375.00 123.00 
C 375.00 122.84 374.05 122.35 374.00 122.00
C 372.28 123.57 372.50 128.36 374.00 130.00
C 373.45 127.46 374.65 125.28 375.00 123.00 Z"/>
</g>
<g fill="#707070" fill-opacity="1.00" stroke="None">
<path d="
M 322.00 148.00 
C 324.67 148.00 327.33 148.00 330.00 148.00
C 329.53 146.80 328.07 146.60 327.00 146.00
C 326.52 145.99 322.52 147.41 322.00 148.00 Z"/>
</g>
<g fill="#888888" fill-opacity="1.00" stroke="None">
<path d="
M 321.00 159.00 
C 323.03 157.85 329.60 158.91 332.00 159.00
C 329.38 158.63 323.61 156.39 321.00 159.00 Z"/>
</g>
<g fill="#616161" fill-opacity="1.00" stroke="None">
<path d="
M 236.00 184.00 
C 241.00 184.00 246.00 184.00 251.00 184.00
C 246.35 183.55 240.72 183.54 236.00 184.00 Z"/>
</g>
<g fill="#7C7C7C" fill-opacity="1.00" stroke="None">
<path d="
M 208.00 192.00 
C 204.47 191.66 199.31 190.17 195.00 191.00
C 198.34 192.82 203.83 192.00 208.00 192.00 Z"/>
</g>
<g fill="#CFCFCF" fill-opacity="1.00" stroke="None">
<path d="
M 355.00 211.00 
C 348.91 209.15 345.68 202.24 340.00 200.00
C 342.29 203.71 345.08 207.05 347.00 211.00
C 349.70 210.04 353.25 212.60 355.00 211.00 Z"/>
</g>
<g fill="#D8D8D8" fill-opacity="1.00" stroke="None">
<path d="
M 191.00 205.00 
C 179.58 213.30 169.64 225.50 159.00 235.00
C 166.55 239.72 170.38 227.71 175.75 222.75 C 181.11 217.78 185.65 210.23 191.00 205.00 Z"/>
</g>
<g fill="#E7E7E7" fill-opacity="1.00" stroke="None">
<path d="
M 156.00 217.00 
C 150.60 219.07 145.60 223.10 142.00 228.00
C 150.25 233.31 151.78 221.78 156.00 217.00 Z"/>
</g>
<g fill="#EBEBEB" fill-opacity="1.00" stroke="None">
<path d="
M 221.00 230.00 
C 217.35 233.65 213.90 237.67 210.00 241.00
C 206.54 243.44 203.88 247.14 200.00 249.00
C 202.35 251.08 206.30 250.93 209.00 253.00
C 215.86 242.90 224.03 233.68 230.00 223.00
C 226.58 224.07 223.82 227.59 221.00 230.00 Z"/>
</g>
<g fill="#E8E8E8" fill-opacity="1.00" stroke="None">
<path d="
M 248.00 228.00 
C 236.39 234.45 227.56 247.10 219.00 257.00
C 226.58 261.77 229.54 250.47 234.75 245.75 C 239.96 241.03 245.54 234.36 248.00 228.00 Z"/>
</g>
<g fill="#747474" fill-opacity="1.00" stroke="None">
<path d="
M 210.00 241.00 
C 213.90 237.67 217.35 233.65 221.00 230.00
C 217.10 233.33 213.65 237.35 210.00 241.00 Z"/>
</g>
<g fill="#CCCCCC" fill-opacity="1.00" stroke="None">
<path d="
M 293.00 250.00 
C 290.45 247.40 285.42 249.96 284.00 253.00
C 287.24 252.68 289.88 250.57 293.00 250.00 Z"/>
</g>
<g fill="#BDBDBD" fill-opacity="1.00" stroke="None">
<path d="
M 83.00 252.00 
C 79.04 252.89 75.56 255.93 73.00 259.00
C 76.51 257.58 81.92 255.88 83.00 252.00 Z"/>
</g>
<g fill="#EBEBEB" fill-opacity="1.00" stroke="None">
<path d="
M 251.00 257.00 
C 246.54 259.21 241.83 261.54 239.00 266.00
C 244.55 271.13 252.21 262.16 251.00 257.00 Z"/>
</g>
<g fill="#EDEDED" fill-opacity="1.00" stroke="None">
<path d="
M 279.00 260.00 
C 269.91 258.60 262.38 268.40 255.00 273.00
C 258.84 273.84 262.19 276.16 266.00 277.00
C 269.27 270.67 274.84 265.85 279.00 260.00 Z"/>
</g>
<g fill="#EAEAEA" fill-opacity="1.00" stroke="None">
<path d="
M 301.00 265.00 
C 289.45 260.64 280.60 275.53 270.00 279.00
C 278.45 282.10 286.54 286.09 295.00 289.00
C 298.25 283.97 303.78 280.57 308.00 277.00
C 299.86 275.62 292.85 283.43 284.00 282.00
C 287.93 275.19 294.65 269.24 301.00 265.00 Z"/>
</g>
<g fill="#E4E4E4" fill-opacity="1.00" stroke="None">
<path d="
M 197.00 264.00 
C 175.45 272.62 159.15 291.48 140.00 304.00
C 149.16 302.60 158.50 301.99 168.00 302.00
C 174.01 290.06 192.44 289.25 197.00 276.00
C 182.07 282.72 168.91 292.84 155.00 301.00
C 164.17 284.84 184.09 276.96 197.00 264.00 Z"/>
</g>
<g fill="#7E7E7E" fill-opacity="1.00" stroke="None">
<path d="
M 150.00 287.00 
C 152.82 284.18 156.04 280.74 159.00 278.00
C 155.70 280.61 152.76 283.77 150.00 287.00 Z"/>
</g>
<g fill="#737373" fill-opacity="1.00" stroke="None">
<path d="
M 36.00 289.00 
C 38.35 286.09 42.26 282.74 45.00 280.00
C 41.91 282.64 38.30 285.50 36.00 289.00 Z"/>
</g>
<g fill="#F1F1F1" fill-opacity="1.00" stroke="None">
<path d="
M 223.00 280.00 
C 206.44 283.34 193.69 295.91 178.00 301.00
C 185.34 301.00 203.04 305.67 208.23 299.23 C 213.42 292.78 216.63 285.74 223.00 280.00 Z"/>
</g>
<g fill="#EAEAEA" fill-opacity="1.00" stroke="None">
<path d="
M 320.00 281.00 
C 312.60 285.24 303.43 286.54 296.00 290.00
C 307.67 292.27 322.19 306.32 332.00 295.00
C 324.56 293.70 317.73 290.67 310.00 293.00
C 312.26 288.30 316.95 285.27 320.00 281.00 Z"/>
</g>
<g fill="#DEDEDE" fill-opacity="1.00" stroke="None">
<path d="
M 253.00 297.00 
C 248.13 297.03 244.65 301.30 240.00 302.00
C 240.86 305.75 247.05 303.39 250.00 305.00
C 250.55 302.16 251.58 299.55 253.00 297.00 Z"/>
</g>
<g fill="#E4E4E4" fill-opacity="1.00" stroke="None">
<path d="
M 229.00 298.00 
C 225.37 299.13 221.80 300.55 218.00 301.00
C 220.66 302.55 229.95 303.79 229.00 298.00 Z"/>
</g>
<g fill="#EFEFEF" fill-opacity="1.00" stroke="None">
<path d="
M 368.00 325.00 
C 352.88 314.51 334.20 311.94 316.00 309.00 C 297.81 306.06 275.99 298.97 258.00 306.00
C 294.74 312.12 331.17 319.38 368.00 325.00 Z"/>
</g>
<g fill="#E6E6E6" fill-opacity="1.00" stroke="None">
<path d="
M 348.00 307.00 
C 344.40 306.07 339.19 304.91 336.00 307.00
C 340.38 307.68 345.43 313.79 348.00 307.00 Z"/>
</g>
<g fill="#D6D6D6" fill-opacity="1.00" stroke="None">
<path d="
M 360.00 313.00 
C 357.64 313.30 353.98 311.97 353.00 315.00
C 355.80 315.96 360.81 318.60 360.00 313.00 Z"/>
</g>
<g fill="#DFDFDF" fill-opacity="1.00" stroke="None">
<path d="
M 376.00 326.00 
C 376.04 323.86 375.29 321.41 374.00 320.00
C 372.43 322.66 367.64 319.41 366.00 322.00
C 369.66 322.42 372.37 325.57 376.00 326.00 Z"/>
</g>
<g fill="#E1E1E1" fill-opacity="1.00" stroke="None">
<path d="
M 213.00 348.00 
C 205.37 355.22 201.00 365.51 197.00 375.00
C 209.72 370.60 207.19 357.42 213.00 348.00 Z"/>
</g>
<g fill="#A1A1A1" fill-opacity="1.00" stroke="None">
<path d="
M 224.00 351.00 
C 221.94 354.20 218.31 357.29 217.00 361.00
C 220.75 359.02 223.53 355.23 224.00 351.00 Z"/>
</g>
<g fill="#7E7E7E" fill-opacity="1.00" stroke="None">
<path d="
M 148.00 374.00 
C 148.00 374.00 148.72 374.25 149.00 374.00
C 152.25 369.57 154.86 364.15 157.00 359.00
C 152.86 363.03 150.66 368.79 148.00 374.00 Z"/>
</g>
<g fill="#E6E6E6" fill-opacity="1.00" stroke="None">
<path d="
M 354.00 374.00 
C 353.26 376.09 353.75 380.77 354.00 383.00
C 354.28 384.25 353.40 386.47 355.00 387.00
C 358.45 384.14 357.33 368.62 354.00 374.00 Z"/>
</g>
<g fill="#6A6A6A" fill-opacity="1.00" stroke="None">
<path d="
M 354.00 383.00 
C 353.75 380.77 353.26 376.09 354.00 374.00
C 352.21 376.88 353.24 380.12 354.00 383.00 Z"/>
</g>
<g fill="#6B6B6B" fill-opacity="1.00" stroke="None">
<path d="
M 249.00 396.00 
C 248.74 397.87 250.67 403.94 251.00 406.00
C 250.90 404.14 249.70 390.97 249.00 396.00 Z"/>
</g>
<g fill="#868686" fill-opacity="1.00" stroke="None">
<path d="
M 277.00 405.00 
C 277.10 405.51 278.84 407.43 279.00 408.00
C 278.42 403.82 280.21 398.42 278.00 395.00
C 278.45 398.53 277.47 401.72 277.00 405.00 Z"/>
</g>
<g fill="#BCBCBC" fill-opacity="1.00" stroke="None">
<path d="
M 350.00 406.00 
C 350.21 402.92 352.29 399.15 349.00 397.00
C 346.62 399.17 348.94 403.84 350.00 406.00 Z"/>
</g>
<g fill="#A7A7A7" fill-opacity="1.00" stroke="None">
<path d="
M 229.00 427.00 
C 229.02 427.20 229.95 427.65 230.00 428.00
C 230.97 424.20 232.96 417.78 231.00 414.00
C 230.64 418.44 229.69 422.67 229.00 427.00 Z"/>
</g>
<g fill="#5D5D5D" fill-opacity="1.00" stroke="None">
<path d="
M 259.00 418.00 
C 259.02 420.27 260.38 425.65 261.00 428.00
C 260.81 423.32 261.63 418.31 260.00 414.00
C 258.31 414.51 259.18 416.71 259.00 418.00 Z"/>
</g>
<g fill="#949494" fill-opacity="1.00" stroke="None">
<path d="
M 182.00 461.00 
C 182.00 457.34 181.86 453.65 182.00 450.00
C 181.49 453.55 181.66 457.44 182.00 461.00 Z"/>
</g>
<g fill="#787878" fill-opacity="1.00" stroke="None">
<path d="
M 185.00 480.00 
C 185.00 476.00 185.00 472.00 185.00 468.00
C 184.64 471.71 184.64 476.23 185.00 480.00 Z"/>
</g>
</svg>