<svg xmlns="http://www.w3.org/2000/svg" xmlns:v="https://svgstorm.com"
viewBox = "0 0 372 622"
width="372"
height="622">
<g fill="None" fill-opacity="0.0" stroke="#FCFCFC" stroke-opacity="1.00" stroke-width="0.3"><path d="
M 0.00 622.00 
L 372.00 622.00
L 372.00 0.00
L 0.00 0.00
L 0.00 622.00
M 94.00 164.00 
C 93.87 164.04 94.00 165.00 94.00 165.00
C 101.77 165.52 111.23 164.62 118.00 162.00
C 117.29 165.89 112.34 167.89 112.00 172.00
C 119.71 168.02 124.81 159.09 132.00 154.00
C 134.99 151.01 137.81 147.73 141.00 145.00
C 149.29 137.92 156.35 125.79 168.00 126.00
C 158.91 135.48 148.85 146.05 141.00 157.00
C 161.41 146.47 175.79 120.31 202.00 122.00
C 199.04 125.32 194.29 126.77 191.00 130.00
C 188.29 132.51 185.81 135.60 183.00 138.00
C 180.63 140.02 177.86 141.86 177.00 145.00
C 196.42 138.54 214.48 121.70 236.00 126.00
C 222.60 129.36 209.94 135.24 199.00 144.00
C 211.84 144.08 223.52 137.28 237.67 136.67 C 251.82 136.06 270.00 133.19 284.00 136.00
C 277.66 141.75 268.86 141.97 261.00 144.00
C 276.78 146.48 297.58 147.12 313.01 150.99 C 328.44 154.86 345.30 157.70 356.00 166.00
C 353.24 168.76 346.79 166.27 344.00 166.00
C 325.77 166.00 308.56 160.87 291.00 158.00
C 298.45 164.83 310.51 165.32 318.00 172.00
C 299.27 173.29 282.86 158.43 265.00 161.00
C 285.67 176.43 310.57 185.99 332.00 200.00
C 317.04 205.33 301.91 191.74 287.00 189.00
C 289.40 192.16 292.53 194.92 293.00 199.00
C 272.45 193.21 257.64 173.96 236.00 171.00
C 248.96 181.08 268.88 185.37 276.00 202.00
C 246.79 189.66 220.19 168.73 188.00 164.00
C 205.09 177.48 229.38 185.12 241.00 205.00
C 238.76 204.01 236.54 202.98 234.00 203.00
C 242.21 208.73 250.42 215.02 256.75 223.25 C 263.08 231.48 275.84 232.26 284.00 239.00
C 277.63 242.11 270.95 235.27 264.00 236.00
C 261.64 235.84 257.40 237.14 256.00 237.00
C 280.45 245.15 306.17 251.75 328.00 267.00
C 315.55 268.02 302.82 259.05 290.00 257.00
C 311.55 269.98 336.47 283.88 348.00 308.00
C 333.76 298.04 320.09 286.28 303.00 282.00
C 320.55 298.26 342.83 314.01 349.00 338.00
C 340.69 330.66 333.23 321.80 323.00 318.00
C 335.82 333.54 343.73 351.64 348.00 371.00
C 338.16 361.12 331.70 348.47 324.00 337.00
C 324.32 355.79 336.74 375.63 332.00 396.00
C 328.36 376.16 313.81 359.19 310.00 339.00
C 308.75 348.88 314.67 363.43 308.00 373.00
C 300.82 354.32 297.34 333.58 289.00 315.00
C 289.00 326.17 292.00 339.66 292.00 352.00
C 292.31 355.20 292.38 358.83 292.00 362.00
C 291.92 366.24 291.88 370.24 290.00 374.00
C 276.29 356.69 279.21 331.60 273.00 311.00
C 273.07 311.69 272.04 315.50 272.00 317.00
C 271.65 329.34 271.70 342.02 273.00 354.00
C 264.59 340.65 265.24 321.28 256.00 308.00
C 258.09 315.88 256.51 324.72 257.00 333.00
C 257.30 336.07 257.70 338.86 257.00 342.00
C 256.55 344.02 256.22 345.90 256.00 348.00
C 240.88 326.61 244.78 294.46 234.00 271.00
C 228.48 291.99 240.24 318.28 229.00 337.00
C 223.21 325.39 224.69 311.65 219.00 300.00
C 214.85 306.40 217.42 316.18 215.00 323.00
C 206.39 309.77 206.95 292.03 202.00 277.00
C 201.98 277.17 201.08 278.32 201.00 279.00
C 199.55 290.76 204.46 303.49 200.00 315.00
C 189.30 306.22 191.30 288.47 186.00 276.00
C 185.99 276.18 185.26 276.88 185.00 277.00
C 184.49 280.52 184.42 285.06 184.00 288.00
C 183.78 293.72 182.86 299.05 180.00 304.00
C 171.87 292.96 173.24 276.13 163.00 266.00
C 164.08 273.62 167.09 283.00 163.00 290.00
C 155.02 278.33 150.47 263.69 141.00 253.00
C 144.52 268.11 153.05 283.89 152.00 299.00
C 144.97 291.13 142.11 280.44 135.00 273.00
C 139.48 279.58 139.35 287.90 139.00 296.00
C 128.39 289.10 127.93 270.10 113.00 267.00
C 117.23 276.48 123.66 285.29 124.00 296.00
C 112.69 284.42 98.38 278.44 86.00 268.00
C 92.06 280.90 96.84 295.91 112.00 297.00 C 127.16 298.08 141.31 305.57 155.08 309.92 C 168.84 314.28 180.31 321.94 192.75 328.25 C 205.18 334.57 215.11 343.47 227.08 349.92 C 239.04 356.38 251.33 362.23 261.25 371.75 C 271.16 381.28 279.97 389.91 290.00 399.00
C 293.60 402.07 296.97 405.45 300.00 409.00
C 312.34 423.44 324.45 437.90 330.00 456.00
C 325.70 453.30 324.80 447.34 320.00 445.00
C 328.60 465.75 346.36 485.65 347.00 508.00
C 343.13 499.08 338.21 488.36 330.00 483.00
C 338.58 501.43 342.97 523.15 342.00 543.00
C 337.06 517.18 326.04 491.91 312.00 470.00
C 314.10 486.04 317.98 503.64 318.00 519.00
C 310.99 492.63 300.70 467.40 291.00 442.00
C 289.91 455.35 296.31 471.33 299.33 484.67 C 302.34 498.01 311.49 514.87 301.00 526.00
C 297.68 501.35 289.15 477.58 280.00 455.00
C 275.84 468.77 275.81 484.27 273.00 498.00
C 264.87 474.42 267.20 448.11 261.00 424.00
C 258.27 439.24 257.74 456.57 256.00 472.00
C 250.97 463.49 252.82 452.21 249.00 443.00
C 246.36 452.09 249.62 465.22 241.00 472.00
C 232.49 451.05 229.38 428.44 226.00 406.00
C 225.99 406.13 225.08 407.35 225.00 408.00
C 224.68 410.58 225.00 413.40 225.00 416.00
C 225.43 420.40 225.42 425.66 225.00 430.00
C 225.00 435.47 225.56 441.91 222.00 446.00
C 218.37 434.10 215.69 421.87 212.00 410.00
C 207.74 421.18 210.62 435.71 207.00 447.00
C 200.73 431.59 196.52 415.52 194.00 399.00
C 190.82 409.82 195.86 426.09 190.00 435.00
C 186.52 424.20 183.64 413.13 181.00 402.00
C 178.20 404.94 181.84 411.13 179.00 414.00
C 171.28 396.25 172.61 375.14 165.00 357.00
C 163.61 357.26 164.22 359.05 164.00 360.00
C 163.45 363.11 164.00 366.84 164.00 370.00
C 164.00 379.35 164.69 391.39 171.00 398.00
C 167.36 398.77 169.43 404.08 166.00 406.00
C 164.30 400.42 161.91 394.44 156.00 392.00
C 153.12 402.93 169.58 407.50 173.00 417.00
C 148.45 408.72 129.52 383.45 104.00 381.00
C 129.93 399.42 162.24 413.47 179.00 442.00
C 167.37 432.28 153.65 425.93 140.00 420.00
C 151.16 432.13 169.29 439.07 176.00 455.00
C 160.25 445.28 146.91 431.48 130.00 424.00
C 141.93 440.97 162.77 452.21 172.00 471.00
C 163.72 466.50 169.18 475.07 171.00 479.00
C 157.52 473.23 148.54 458.63 134.00 455.00
C 148.45 468.76 164.94 487.25 165.00 507.00
C 154.24 489.31 140.29 472.15 123.00 460.00
C 134.86 486.32 166.71 506.34 165.00 537.00
C 161.49 532.44 159.14 526.83 155.00 523.00
C 156.39 530.40 161.81 538.71 159.00 546.00
C 151.99 533.83 149.01 519.79 141.00 508.00
C 142.68 528.73 158.99 553.30 147.00 575.00
C 145.06 560.31 141.05 546.15 137.00 532.00
C 138.63 556.43 139.60 585.45 123.00 606.00
C 119.42 592.16 124.72 575.56 122.00 562.00
C 121.58 567.48 119.19 572.55 116.00 577.00
C 112.48 566.77 120.25 554.35 116.00 544.00
C 109.80 556.85 107.97 572.88 97.00 583.00
C 94.12 567.08 108.51 553.87 105.00 539.00
C 102.34 546.76 100.80 555.92 95.00 562.00
C 89.74 548.44 101.56 535.23 100.00 523.00
C 91.44 538.10 84.27 553.90 74.00 568.00
C 68.33 550.75 83.22 536.65 90.30 521.31 C 97.39 505.96 108.46 489.21 107.00 471.00
C 89.13 486.73 88.53 517.14 69.00 532.00
C 68.01 512.60 81.10 494.95 81.00 477.00
C 72.57 491.75 70.10 512.11 55.00 522.00
C 59.36 508.69 58.76 491.79 63.93 478.93 C 69.09 466.06 77.57 454.49 76.00 441.00
C 70.84 454.19 62.98 466.25 55.00 478.00
C 50.20 456.81 70.21 437.46 68.00 417.00
C 62.59 431.72 51.70 444.10 45.00 458.00
C 42.43 456.20 44.75 451.78 45.00 450.00
C 45.30 442.15 48.46 433.77 48.00 427.00
C 44.76 435.93 42.44 446.40 35.00 453.00
C 30.07 443.26 39.83 433.40 39.00 423.00
C 34.55 426.28 34.94 432.61 32.00 437.00
C 27.64 411.76 51.52 387.11 43.00 362.00
C 39.87 378.96 31.57 393.70 24.00 409.00
C 17.91 384.62 38.17 362.12 33.00 338.00
C 31.97 346.29 26.52 353.18 24.00 361.00
C 20.24 344.44 25.58 329.69 23.00 312.00 C 20.42 294.31 42.82 297.41 55.00 294.00
C 45.08 287.65 30.80 289.38 23.00 299.00
C 21.32 263.06 26.15 228.80 33.00 195.00
C 35.20 193.93 36.65 199.15 38.00 197.00
C 39.09 195.08 38.00 189.27 38.00 187.00
C 38.00 184.00 38.00 181.00 38.00 178.00
C 40.98 178.05 42.70 181.44 43.00 184.00
C 43.00 183.99 43.93 182.55 44.00 182.00
C 45.36 170.94 42.86 158.19 45.00 148.00
C 48.95 153.72 47.34 161.86 51.00 168.00
C 51.62 153.35 48.29 136.67 54.00 122.00
C 58.00 131.47 55.58 144.40 58.00 155.00
C 61.78 144.66 58.05 131.78 61.00 121.00 C 63.95 110.21 67.76 101.11 69.00 90.00
C 75.54 97.11 65.88 110.47 70.00 119.00
C 69.98 115.48 71.20 111.65 73.00 109.00
C 75.53 112.14 72.03 115.45 73.00 119.00
C 73.26 118.75 74.00 119.00 74.00 119.00
C 76.42 106.90 80.33 94.77 84.00 83.00
C 88.09 93.71 80.51 109.53 83.00 121.00
C 86.24 99.06 96.84 79.40 105.00 59.00
C 110.03 73.73 94.40 88.20 95.00 104.00
C 100.64 91.78 103.68 76.96 112.00 66.00
C 111.76 72.44 110.63 78.64 110.00 85.00
C 119.93 70.48 117.16 49.82 130.00 36.00
C 135.14 42.13 128.62 50.94 131.00 57.00
C 137.93 45.67 142.80 32.69 151.00 22.00
C 154.66 28.16 146.46 36.16 149.00 42.00
C 155.86 32.91 166.22 15.89 179.00 19.00
C 166.25 30.04 153.47 43.63 147.00 59.00
C 154.31 51.24 163.03 45.73 173.00 43.00
C 161.54 57.04 150.45 69.72 135.00 79.00
C 146.37 80.67 157.30 66.23 169.00 68.00
C 157.77 80.37 136.01 82.94 127.00 99.00
C 137.68 94.97 148.07 90.29 159.00 87.00
C 150.64 103.21 131.79 103.17 121.00 116.00
C 125.44 114.21 130.48 115.09 135.00 116.00
C 126.65 126.79 115.44 134.71 105.00 142.00
C 111.24 139.29 120.85 133.79 127.00 139.00
C 118.58 147.93 106.74 148.42 96.00 152.00
C 107.68 156.12 120.19 144.16 132.00 149.00
C 121.33 158.57 106.63 158.67 94.00 164.00 Z"/>
</g>
<g fill="None" fill-opacity="0.0" stroke="#000000" stroke-opacity="1.00" stroke-width="0.3"><path d="
M 74.00 119.00 
C 73.29 122.55 72.67 126.17 73.00 130.00
C 71.44 127.39 71.28 121.54 73.00 119.00
C 72.03 115.45 75.53 112.14 73.00 109.00
C 71.20 111.65 69.98 115.48 70.00 119.00
C 65.88 110.47 75.54 97.11 69.00 90.00
C 67.76 101.11 63.95 110.21 61.00 121.00 C 58.05 131.78 61.78 144.66 58.00 155.00
C 55.58 144.40 58.00 131.47 54.00 122.00
C 48.29 136.67 51.62 153.35 51.00 168.00
C 47.34 161.86 48.95 153.72 45.00 148.00
C 42.86 158.19 45.36 170.94 44.00 182.00
C 44.10 183.27 45.97 186.02 45.00 188.00
C 43.65 187.27 44.04 185.17 43.00 184.00
C 42.70 181.44 40.98 178.05 38.00 178.00
C 38.00 181.00 38.00 184.00 38.00 187.00
C 38.25 189.61 40.57 194.43 38.00 197.00
C 36.65 199.15 35.20 193.93 33.00 195.00
C 26.15 228.80 21.32 263.06 23.00 299.00
C 30.80 289.38 45.08 287.65 55.00 294.00
C 42.82 297.41 20.42 294.31 23.00 312.00 C 25.58 329.69 20.24 344.44 24.00 361.00
C 26.52 353.18 31.97 346.29 33.00 338.00
C 38.17 362.12 17.91 384.62 24.00 409.00
C 31.57 393.70 39.87 378.96 43.00 362.00
C 51.52 387.11 27.64 411.76 32.00 437.00
C 34.94 432.61 34.55 426.28 39.00 423.00
C 39.83 433.40 30.07 443.26 35.00 453.00
C 42.44 446.40 44.76 435.93 48.00 427.00
C 48.46 433.77 45.30 442.15 45.00 450.00
C 44.90 452.66 45.08 455.34 45.00 458.00
C 51.70 444.10 62.59 431.72 68.00 417.00
C 70.21 437.46 50.20 456.81 55.00 478.00
C 62.98 466.25 70.84 454.19 76.00 441.00
C 77.57 454.49 69.09 466.06 63.93 478.93 C 58.76 491.79 59.36 508.69 55.00 522.00
C 70.10 512.11 72.57 491.75 81.00 477.00
C 81.10 494.95 68.01 512.60 69.00 532.00
C 88.53 517.14 89.13 486.73 107.00 471.00
C 108.46 489.21 97.39 505.96 90.30 521.31 C 83.22 536.65 68.33 550.75 74.00 568.00
C 84.27 553.90 91.44 538.10 100.00 523.00
C 101.56 535.23 89.74 548.44 95.00 562.00
C 100.80 555.92 102.34 546.76 105.00 539.00
C 108.51 553.87 94.12 567.08 97.00 583.00
C 107.97 572.88 109.80 556.85 116.00 544.00
C 120.25 554.35 112.48 566.77 116.00 577.00
C 119.19 572.55 121.58 567.48 122.00 562.00
C 124.72 575.56 119.42 592.16 123.00 606.00
C 139.60 585.45 138.63 556.43 137.00 532.00
C 141.05 546.15 145.06 560.31 147.00 575.00
C 158.99 553.30 142.68 528.73 141.00 508.00
C 149.01 519.79 151.99 533.83 159.00 546.00
C 161.81 538.71 156.39 530.40 155.00 523.00
C 159.14 526.83 161.49 532.44 165.00 537.00
C 166.71 506.34 134.86 486.32 123.00 460.00
C 140.29 472.15 154.24 489.31 165.00 507.00
C 164.94 487.25 148.45 468.76 134.00 455.00
C 148.54 458.63 157.52 473.23 171.00 479.00
C 169.18 475.07 163.72 466.50 172.00 471.00
C 162.77 452.21 141.93 440.97 130.00 424.00
C 146.91 431.48 160.25 445.28 176.00 455.00
C 169.29 439.07 151.16 432.13 140.00 420.00
C 153.65 425.93 167.37 432.28 179.00 442.00
C 162.24 413.47 129.93 399.42 104.00 381.00
C 129.52 383.45 148.45 408.72 173.00 417.00
C 169.58 407.50 153.12 402.93 156.00 392.00
C 161.91 394.44 164.30 400.42 166.00 406.00
C 169.43 404.08 167.36 398.77 171.00 398.00
C 164.69 391.39 164.00 379.35 164.00 370.00
C 163.67 366.60 162.68 363.53 164.00 360.00
C 164.22 359.05 163.61 357.26 165.00 357.00
C 172.61 375.14 171.28 396.25 179.00 414.00
C 181.84 411.13 178.20 404.94 181.00 402.00
C 183.64 413.13 186.52 424.20 190.00 435.00
C 195.86 426.09 190.82 409.82 194.00 399.00
C 196.52 415.52 200.73 431.59 207.00 447.00
C 210.62 435.71 207.74 421.18 212.00 410.00
C 215.69 421.87 218.37 434.10 222.00 446.00
C 225.56 441.91 225.00 435.47 225.00 430.00
C 225.00 425.33 225.00 420.67 225.00 416.00
C 225.00 413.40 224.68 410.58 225.00 408.00
C 224.90 406.73 223.03 403.98 224.00 402.00
C 225.11 402.84 226.04 404.46 226.00 406.00
C 229.38 428.44 232.49 451.05 241.00 472.00
C 249.62 465.22 246.36 452.09 249.00 443.00
C 252.82 452.21 250.97 463.49 256.00 472.00
C 257.74 456.57 258.27 439.24 261.00 424.00
C 267.20 448.11 264.87 474.42 273.00 498.00
C 275.81 484.27 275.84 468.77 280.00 455.00
C 289.15 477.58 297.68 501.35 301.00 526.00
C 311.49 514.87 302.34 498.01 299.33 484.67 C 296.31 471.33 289.91 455.35 291.00 442.00
C 300.70 467.40 310.99 492.63 318.00 519.00
C 317.98 503.64 314.10 486.04 312.00 470.00
C 326.04 491.91 337.06 517.18 342.00 543.00
C 342.97 523.15 338.58 501.43 330.00 483.00
C 338.21 488.36 343.13 499.08 347.00 508.00
C 346.36 485.65 328.60 465.75 320.00 445.00
C 324.80 447.34 325.70 453.30 330.00 456.00
C 324.45 437.90 312.34 423.44 300.00 409.00
C 296.75 405.75 293.21 402.21 290.00 399.00
C 279.97 389.91 271.16 381.28 261.25 371.75 C 251.33 362.23 239.04 356.38 227.08 349.92 C 215.11 343.47 205.18 334.57 192.75 328.25 C 180.31 321.94 168.84 314.28 155.08 309.92 C 141.31 305.57 127.16 298.08 112.00 297.00 C 96.84 295.91 92.06 280.90 86.00 268.00
C 98.38 278.44 112.69 284.42 124.00 296.00
C 123.66 285.29 117.23 276.48 113.00 267.00
C 127.93 270.10 128.39 289.10 139.00 296.00
C 139.35 287.90 139.48 279.58 135.00 273.00
C 142.11 280.44 144.97 291.13 152.00 299.00
C 153.05 283.89 144.52 268.11 141.00 253.00
C 150.47 263.69 155.02 278.33 163.00 290.00
C 167.09 283.00 164.08 273.62 163.00 266.00
C 173.24 276.13 171.87 292.96 180.00 304.00
C 182.86 299.05 183.78 293.72 184.00 288.00
C 184.14 284.34 183.78 280.65 184.00 277.00
C 184.10 275.34 183.92 273.66 184.00 272.00
C 185.11 272.84 186.04 274.46 186.00 276.00
C 191.30 288.47 189.30 306.22 200.00 315.00
C 204.46 303.49 199.55 290.76 201.00 279.00
C 200.80 276.91 198.30 271.98 201.00 270.00
C 200.53 272.57 201.54 274.65 202.00 277.00
C 206.95 292.03 206.39 309.77 215.00 323.00
C 217.42 316.18 214.85 306.40 219.00 300.00
C 224.69 311.65 223.21 325.39 229.00 337.00
C 240.24 318.28 228.48 291.99 234.00 271.00
C 244.78 294.46 240.88 326.61 256.00 348.00
C 256.22 345.90 256.55 344.02 257.00 342.00
C 257.30 339.07 257.00 335.95 257.00 333.00
C 256.51 324.72 258.09 315.88 256.00 308.00
C 265.24 321.28 264.59 340.65 273.00 354.00
C 271.70 342.02 271.65 329.34 272.00 317.00
C 271.81 315.05 270.07 311.66 271.00 309.00
C 272.40 308.49 273.15 309.81 273.00 311.00
C 279.21 331.60 276.29 356.69 290.00 374.00
C 291.88 370.24 291.92 366.24 292.00 362.00
C 292.07 358.67 292.00 355.33 292.00 352.00
C 292.00 339.66 289.00 326.17 289.00 315.00
C 297.34 333.58 300.82 354.32 308.00 373.00
C 314.67 363.43 308.75 348.88 310.00 339.00
C 313.81 359.19 328.36 376.16 332.00 396.00
C 336.74 375.63 324.32 355.79 324.00 337.00
C 331.70 348.47 338.16 361.12 348.00 371.00
C 343.73 351.64 335.82 333.54 323.00 318.00
C 333.23 321.80 340.69 330.66 349.00 338.00
C 342.83 314.01 320.55 298.26 303.00 282.00
C 320.09 286.28 333.76 298.04 348.00 308.00
C 336.47 283.88 311.55 269.98 290.00 257.00
C 302.82 259.05 315.55 268.02 328.00 267.00
C 306.17 251.75 280.45 245.15 256.00 237.00
C 254.93 236.64 253.12 236.70 253.00 235.00
C 256.50 235.62 261.32 233.73 264.00 236.00
C 270.95 235.27 277.63 242.11 284.00 239.00
C 275.84 232.26 263.08 231.48 256.75 223.25 C 250.42 215.02 242.21 208.73 234.00 203.00
C 236.54 202.98 238.76 204.01 241.00 205.00
C 229.38 185.12 205.09 177.48 188.00 164.00
C 220.19 168.73 246.79 189.66 276.00 202.00
C 268.88 185.37 248.96 181.08 236.00 171.00
C 257.64 173.96 272.45 193.21 293.00 199.00
C 292.53 194.92 289.40 192.16 287.00 189.00
C 301.91 191.74 317.04 205.33 332.00 200.00
C 310.57 185.99 285.67 176.43 265.00 161.00
C 282.86 158.43 299.27 173.29 318.00 172.00
C 310.51 165.32 298.45 164.83 291.00 158.00
C 308.56 160.87 325.77 166.00 344.00 166.00
C 346.84 166.00 353.55 167.29 356.00 166.00
C 345.30 157.70 328.44 154.86 313.01 150.99 C 297.58 147.12 276.78 146.48 261.00 144.00
C 268.86 141.97 277.66 141.75 284.00 136.00
C 270.00 133.19 251.82 136.06 237.67 136.67 C 223.52 137.28 211.84 144.08 199.00 144.00
C 209.94 135.24 222.60 129.36 236.00 126.00
C 214.48 121.70 196.42 138.54 177.00 145.00
C 177.86 141.86 180.63 140.02 183.00 138.00
C 185.67 135.33 188.04 132.34 191.00 130.00
C 194.29 126.77 199.04 125.32 202.00 122.00
C 175.79 120.31 161.41 146.47 141.00 157.00
C 148.85 146.05 158.91 135.48 168.00 126.00
C 156.35 125.79 149.29 137.92 141.00 145.00
C 138.01 147.99 135.19 151.27 132.00 154.00
C 124.81 159.09 119.71 168.02 112.00 172.00
C 112.34 167.89 117.29 165.89 118.00 162.00
C 111.23 164.62 101.77 165.52 94.00 165.00
C 93.01 166.12 89.04 168.03 88.00 166.00
C 90.25 166.14 91.71 163.84 94.00 164.00
C 106.63 158.67 121.33 158.57 132.00 149.00
C 120.19 144.16 107.68 156.12 96.00 152.00
C 106.74 148.42 118.58 147.93 127.00 139.00
C 120.85 133.79 111.24 139.29 105.00 142.00
C 115.44 134.71 126.65 126.79 135.00 116.00
C 130.48 115.09 125.44 114.21 121.00 116.00
C 131.79 103.17 150.64 103.21 159.00 87.00
C 148.07 90.29 137.68 94.97 127.00 99.00
C 136.01 82.94 157.77 80.37 169.00 68.00
C 157.30 66.23 146.37 80.67 135.00 79.00
C 150.45 69.72 161.54 57.04 173.00 43.00
C 163.03 45.73 154.31 51.24 147.00 59.00
C 153.47 43.63 166.25 30.04 179.00 19.00
C 166.22 15.89 155.86 32.91 149.00 42.00
C 146.46 36.16 154.66 28.16 151.00 22.00
C 142.80 32.69 137.93 45.67 131.00 57.00
C 128.62 50.94 135.14 42.13 130.00 36.00
C 117.16 49.82 119.93 70.48 110.00 85.00
C 110.63 78.64 111.76 72.44 112.00 66.00
C 103.68 76.96 100.64 91.78 95.00 104.00
C 94.40 88.20 110.03 73.73 105.00 59.00
C 96.84 79.40 86.24 99.06 83.00 121.00
C 80.51 109.53 88.09 93.71 84.00 83.00
C 80.33 94.77 76.42 106.90 74.00 119.00
M 110.00 166.00 
C 107.36 173.32 99.82 174.07 93.00 174.00
C 97.52 169.92 103.88 167.02 110.00 166.00
M 100.00 179.00 
C 95.41 193.95 79.50 193.85 67.00 198.00
C 74.45 187.71 87.30 180.72 100.00 179.00
M 256.00 225.00 
C 241.12 225.83 226.94 216.50 215.77 206.23 C 204.60 195.96 190.67 190.80 179.00 182.00
C 206.86 191.41 231.90 208.08 256.00 225.00
M 222.00 217.00 
C 213.37 218.79 207.78 207.98 199.92 204.08 C 192.06 200.18 182.93 195.15 176.00 190.00
C 192.57 196.51 206.97 207.52 222.00 217.00
M 177.00 214.00 
C 161.75 212.73 150.47 198.50 135.00 196.00
C 150.03 194.25 164.62 206.07 177.00 214.00
M 160.00 214.00 
C 146.72 222.95 132.52 204.25 120.00 199.00
C 133.95 202.03 146.36 210.04 160.00 214.00
M 85.00 200.00 
C 78.50 211.68 67.41 218.00 56.00 224.00
C 64.52 214.63 73.38 204.41 85.00 200.00
M 200.00 214.00 
C 195.42 217.02 194.20 210.96 200.00 214.00
M 72.00 218.00 
C 67.23 231.32 55.32 237.76 42.00 239.00
C 49.90 230.43 64.31 228.82 72.00 218.00
M 119.00 226.00 
C 113.91 228.78 113.82 220.94 119.00 226.00
M 32.00 278.00 
C 31.13 279.45 30.16 281.00 29.00 282.00
C 28.86 280.19 29.44 277.92 31.00 277.00
C 33.14 272.43 35.97 267.30 40.00 264.00
C 38.53 269.14 33.46 272.85 32.00 278.00
M 94.00 294.00 
C 78.38 298.99 77.33 282.84 72.00 273.00
C 81.40 276.88 86.71 287.13 94.00 294.00
M 72.00 293.00 
C 69.73 293.64 67.29 294.92 65.00 293.00
C 62.75 291.11 63.13 284.81 60.00 283.00
C 66.05 284.46 71.96 288.19 76.00 293.00
C 74.67 293.00 73.33 293.00 72.00 293.00
M 113.00 348.00 
C 110.49 347.78 107.20 346.17 108.00 343.00
C 110.80 342.89 112.02 345.94 113.00 348.00
M 132.00 358.00 
C 128.23 356.44 122.37 354.56 124.00 349.00
C 128.63 349.30 130.03 354.53 132.00 358.00
M 139.00 351.00 
C 141.51 354.60 140.73 361.09 143.00 365.00
C 141.03 362.70 136.23 362.92 137.00 359.00
C 136.24 355.85 137.57 352.20 137.00 349.00
C 137.83 349.41 138.87 349.97 139.00 351.00
M 105.00 355.00 
C 102.08 354.87 98.56 353.56 97.00 351.00
C 99.53 352.84 105.82 350.10 105.00 355.00
M 119.00 360.00 
C 115.02 358.85 107.15 358.64 108.00 353.00
C 112.62 353.63 117.21 355.20 119.00 360.00
M 134.00 366.00 
C 139.69 360.91 145.77 368.79 146.00 375.00
C 139.28 369.50 126.30 367.21 124.00 359.00
C 127.87 359.48 134.43 360.74 134.00 366.00
M 157.00 368.00 
C 158.71 374.54 159.84 381.27 161.00 388.00
C 153.60 384.49 155.60 373.87 157.00 368.00
M 151.00 394.00 
C 143.85 387.45 135.31 382.69 128.00 377.00
C 136.17 380.90 149.82 383.42 151.00 394.00 Z"/>
</g>
<g fill="None" fill-opacity="0.0" stroke="#9A9A9A" stroke-opacity="1.00" stroke-width="0.3"><path d="
M 74.00 119.00 
C 74.00 119.00 73.26 118.75 73.00 119.00
C 71.28 121.54 71.44 127.39 73.00 130.00
C 72.67 126.17 73.29 122.55 74.00 119.00 Z"/>
</g>
<g fill="None" fill-opacity="0.0" stroke="#7C7C7C" stroke-opacity="1.00" stroke-width="0.3"><path d="
M 183.00 138.00 
C 185.81 135.60 188.29 132.51 191.00 130.00
C 188.04 132.34 185.67 135.33 183.00 138.00 Z"/>
</g>
<g fill="None" fill-opacity="0.0" stroke="#757575" stroke-opacity="1.00" stroke-width="0.3"><path d="
M 132.00 154.00 
C 135.19 151.27 138.01 147.99 141.00 145.00
C 137.81 147.73 134.99 151.01 132.00 154.00 Z"/>
</g>
<g fill="None" fill-opacity="0.0" stroke="#929292" stroke-opacity="1.00" stroke-width="0.3"><path d="
M 94.00 165.00 
C 94.00 165.00 93.87 164.04 94.00 164.00
C 91.71 163.84 90.25 166.14 88.00 166.00
C 89.04 168.03 93.01 166.12 94.00 165.00 Z"/>
</g>
<g fill="None" fill-opacity="0.0" stroke="#DDDDDD" stroke-opacity="1.00" stroke-width="0.3"><path d="
M 110.00 166.00 
C 103.88 167.02 97.52 169.92 93.00 174.00
C 99.82 174.07 107.36 173.32 110.00 166.00 Z"/>
</g>
<g fill="None" fill-opacity="0.0" stroke="#707070" stroke-opacity="1.00" stroke-width="0.3"><path d="
M 356.00 166.00 
C 353.55 167.29 346.84 166.00 344.00 166.00
C 346.79 166.27 353.24 168.76 356.00 166.00 Z"/>
</g>
<g fill="None" fill-opacity="0.0" stroke="#EEEEEE" stroke-opacity="1.00" stroke-width="0.3"><path d="
M 100.00 179.00 
C 87.30 180.72 74.45 187.71 67.00 198.00
C 79.50 193.85 95.41 193.95 100.00 179.00 Z"/>
</g>
<g fill="None" fill-opacity="0.0" stroke="#9D9D9D" stroke-opacity="1.00" stroke-width="0.3"><path d="
M 43.00 184.00 
C 44.04 185.17 43.65 187.27 45.00 188.00
C 45.97 186.02 44.10 183.27 44.00 182.00
C 43.93 182.55 43.00 183.99 43.00 184.00 Z"/>
</g>
<g fill="None" fill-opacity="0.0" stroke="#E9E9E9" stroke-opacity="1.00" stroke-width="0.3"><path d="
M 256.00 225.00 
C 231.90 208.08 206.86 191.41 179.00 182.00
C 190.67 190.80 204.60 195.96 215.77 206.23 C 226.94 216.50 241.12 225.83 256.00 225.00 Z"/>
</g>
<g fill="None" fill-opacity="0.0" stroke="#5D5D5D" stroke-opacity="1.00" stroke-width="0.3"><path d="
M 38.00 197.00 
C 40.57 194.43 38.25 189.61 38.00 187.00
C 38.00 189.27 39.09 195.08 38.00 197.00 Z"/>
</g>
<g fill="None" fill-opacity="0.0" stroke="#B9B9B9" stroke-opacity="1.00" stroke-width="0.3"><path d="
M 222.00 217.00 
C 206.97 207.52 192.57 196.51 176.00 190.00
C 182.93 195.15 192.06 200.18 199.92 204.08 C 207.78 207.98 213.37 218.79 222.00 217.00 Z"/>
</g>
<g fill="None" fill-opacity="0.0" stroke="#E2E2E2" stroke-opacity="1.00" stroke-width="0.3"><path d="
M 177.00 214.00 
C 164.62 206.07 150.03 194.25 135.00 196.00
C 150.47 198.50 161.75 212.73 177.00 214.00 Z"/>
</g>
<g fill="None" fill-opacity="0.0" stroke="#E4E4E4" stroke-opacity="1.00" stroke-width="0.3"><path d="
M 160.00 214.00 
C 146.36 210.04 133.95 202.03 120.00 199.00
C 132.52 204.25 146.72 222.95 160.00 214.00 Z"/>
</g>
<g fill="None" fill-opacity="0.0" stroke="#E9E9E9" stroke-opacity="1.00" stroke-width="0.3"><path d="
M 85.00 200.00 
C 73.38 204.41 64.52 214.63 56.00 224.00
C 67.41 218.00 78.50 211.68 85.00 200.00 Z"/>
</g>
<g fill="None" fill-opacity="0.0" stroke="#BEBEBE" stroke-opacity="1.00" stroke-width="0.3"><path d="
M 200.00 214.00 
C 194.20 210.96 195.42 217.02 200.00 214.00 Z"/>
</g>
<g fill="None" fill-opacity="0.0" stroke="#E8E8E8" stroke-opacity="1.00" stroke-width="0.3"><path d="
M 72.00 218.00 
C 64.31 228.82 49.90 230.43 42.00 239.00
C 55.32 237.76 67.23 231.32 72.00 218.00 Z"/>
</g>
<g fill="None" fill-opacity="0.0" stroke="#B1B1B1" stroke-opacity="1.00" stroke-width="0.3"><path d="
M 119.00 226.00 
C 113.82 220.94 113.91 228.78 119.00 226.00 Z"/>
</g>
<g fill="None" fill-opacity="0.0" stroke="#6F6F6F" stroke-opacity="1.00" stroke-width="0.3"><path d="
M 256.00 237.00 
C 257.40 237.14 261.64 235.84 264.00 236.00
C 261.32 233.73 256.50 235.62 253.00 235.00
C 253.12 236.70 254.93 236.64 256.00 237.00 Z"/>
</g>
<g fill="None" fill-opacity="0.0" stroke="#787878" stroke-opacity="1.00" stroke-width="0.3"><path d="
M 31.00 277.00 
C 30.99 277.33 32.02 277.89 32.00 278.00
C 33.46 272.85 38.53 269.14 40.00 264.00
C 35.97 267.30 33.14 272.43 31.00 277.00 Z"/>
</g>
<g fill="None" fill-opacity="0.0" stroke="#8F8F8F" stroke-opacity="1.00" stroke-width="0.3"><path d="
M 201.00 279.00 
C 201.08 278.32 201.98 277.17 202.00 277.00
C 201.54 274.65 200.53 272.57 201.00 270.00
C 198.30 271.98 200.80 276.91 201.00 279.00 Z"/>
</g>
<g fill="None" fill-opacity="0.0" stroke="#A4A4A4" stroke-opacity="1.00" stroke-width="0.3"><path d="
M 184.00 277.00 
C 184.00 276.96 185.00 277.00 185.00 277.00
C 185.26 276.88 185.99 276.18 186.00 276.00
C 186.04 274.46 185.11 272.84 184.00 272.00
C 183.92 273.66 184.10 275.34 184.00 277.00 Z"/>
</g>
<g fill="None" fill-opacity="0.0" stroke="#E7E7E7" stroke-opacity="1.00" stroke-width="0.3"><path d="
M 94.00 294.00 
C 86.71 287.13 81.40 276.88 72.00 273.00
C 77.33 282.84 78.38 298.99 94.00 294.00 Z"/>
</g>
<g fill="None" fill-opacity="0.0" stroke="#474747" stroke-opacity="1.00" stroke-width="0.3"><path d="
M 32.00 278.00 
C 32.02 277.89 30.99 277.33 31.00 277.00
C 29.44 277.92 28.86 280.19 29.00 282.00
C 30.16 281.00 31.13 279.45 32.00 278.00 Z"/>
</g>
<g fill="None" fill-opacity="0.0" stroke="#6C6C6C" stroke-opacity="1.00" stroke-width="0.3"><path d="
M 184.00 288.00 
C 184.42 285.06 184.49 280.52 185.00 277.00
C 185.00 277.00 184.00 276.96 184.00 277.00
C 183.78 280.65 184.14 284.34 184.00 288.00 Z"/>
</g>
<g fill="None" fill-opacity="0.0" stroke="#EAEAEA" stroke-opacity="1.00" stroke-width="0.3"><path d="
M 65.00 293.00 
C 67.31 292.79 69.70 293.27 72.00 293.00
C 73.33 293.00 74.67 293.00 76.00 293.00
C 71.96 288.19 66.05 284.46 60.00 283.00
C 63.13 284.81 62.75 291.11 65.00 293.00 Z"/>
</g>
<g fill="None" fill-opacity="0.0" stroke="#5B5B5B" stroke-opacity="1.00" stroke-width="0.3"><path d="
M 72.00 293.00 
C 69.70 293.27 67.31 292.79 65.00 293.00
C 67.29 294.92 69.73 293.64 72.00 293.00 Z"/>
</g>
<g fill="None" fill-opacity="0.0" stroke="#8E8E8E" stroke-opacity="1.00" stroke-width="0.3"><path d="
M 272.00 317.00 
C 272.04 315.50 273.07 311.69 273.00 311.00
C 273.15 309.81 272.40 308.49 271.00 309.00
C 270.07 311.66 271.81 315.05 272.00 317.00 Z"/>
</g>
<g fill="None" fill-opacity="0.0" stroke="#6F6F6F" stroke-opacity="1.00" stroke-width="0.3"><path d="
M 257.00 342.00 
C 257.70 338.86 257.30 336.07 257.00 333.00
C 257.00 335.95 257.30 339.07 257.00 342.00 Z"/>
</g>
<g fill="None" fill-opacity="0.0" stroke="#DDDDDD" stroke-opacity="1.00" stroke-width="0.3"><path d="
M 113.00 348.00 
C 112.02 345.94 110.80 342.89 108.00 343.00
C 107.20 346.17 110.49 347.78 113.00 348.00 Z"/>
</g>
<g fill="None" fill-opacity="0.0" stroke="#E1E1E1" stroke-opacity="1.00" stroke-width="0.3"><path d="
M 132.00 358.00 
C 130.03 354.53 128.63 349.30 124.00 349.00
C 122.37 354.56 128.23 356.44 132.00 358.00 Z"/>
</g>
<g fill="None" fill-opacity="0.0" stroke="#5C5C5C" stroke-opacity="1.00" stroke-width="0.3"><path d="
M 137.00 359.00 
C 136.82 357.80 139.19 352.11 139.00 351.00
C 138.87 349.97 137.83 349.41 137.00 349.00
C 137.57 352.20 136.24 355.85 137.00 359.00 Z"/>
</g>
<g fill="None" fill-opacity="0.0" stroke="#C2C2C2" stroke-opacity="1.00" stroke-width="0.3"><path d="
M 105.00 355.00 
C 105.82 350.10 99.53 352.84 97.00 351.00
C 98.56 353.56 102.08 354.87 105.00 355.00 Z"/>
</g>
<g fill="None" fill-opacity="0.0" stroke="#DFDFDF" stroke-opacity="1.00" stroke-width="0.3"><path d="
M 137.00 359.00 
C 136.23 362.92 141.03 362.70 143.00 365.00
C 140.73 361.09 141.51 354.60 139.00 351.00
C 139.19 352.11 136.82 357.80 137.00 359.00 Z"/>
</g>
<g fill="None" fill-opacity="0.0" stroke="#8F8F8F" stroke-opacity="1.00" stroke-width="0.3"><path d="
M 292.00 362.00 
C 292.38 358.83 292.31 355.20 292.00 352.00
C 292.00 355.33 292.07 358.67 292.00 362.00 Z"/>
</g>
<g fill="None" fill-opacity="0.0" stroke="#DBDBDB" stroke-opacity="1.00" stroke-width="0.3"><path d="
M 119.00 360.00 
C 117.21 355.20 112.62 353.63 108.00 353.00
C 107.15 358.64 115.02 358.85 119.00 360.00 Z"/>
</g>
<g fill="None" fill-opacity="0.0" stroke="#E3E3E3" stroke-opacity="1.00" stroke-width="0.3"><path d="
M 134.00 366.00 
C 134.43 360.74 127.87 359.48 124.00 359.00
C 126.30 367.21 139.28 369.50 146.00 375.00
C 145.77 368.79 139.69 360.91 134.00 366.00 Z"/>
</g>
<g fill="None" fill-opacity="0.0" stroke="#777777" stroke-opacity="1.00" stroke-width="0.3"><path d="
M 164.00 370.00 
C 164.00 366.84 163.45 363.11 164.00 360.00
C 162.68 363.53 163.67 366.60 164.00 370.00 Z"/>
</g>
<g fill="None" fill-opacity="0.0" stroke="#E0E0E0" stroke-opacity="1.00" stroke-width="0.3"><path d="
M 157.00 368.00 
C 155.60 373.87 153.60 384.49 161.00 388.00
C 159.84 381.27 158.71 374.54 157.00 368.00 Z"/>
</g>
<g fill="None" fill-opacity="0.0" stroke="#D2D2D2" stroke-opacity="1.00" stroke-width="0.3"><path d="
M 151.00 394.00 
C 149.82 383.42 136.17 380.90 128.00 377.00
C 135.31 382.69 143.85 387.45 151.00 394.00 Z"/>
</g>
<g fill="None" fill-opacity="0.0" stroke="#777777" stroke-opacity="1.00" stroke-width="0.3"><path d="
M 300.00 409.00 
C 296.97 405.45 293.60 402.07 290.00 399.00
C 293.21 402.21 296.75 405.75 300.00 409.00 Z"/>
</g>
<g fill="None" fill-opacity="0.0" stroke="#525252" stroke-opacity="1.00" stroke-width="0.3"><path d="
M 225.00 408.00 
C 225.08 407.35 225.99 406.13 226.00 406.00
C 226.04 404.46 225.11 402.84 224.00 402.00
C 223.03 403.98 224.90 406.73 225.00 408.00 Z"/>
</g>
<g fill="None" fill-opacity="0.0" stroke="#7A7A7A" stroke-opacity="1.00" stroke-width="0.3"><path d="
M 225.00 430.00 
C 225.42 425.66 225.43 420.40 225.00 416.00
C 225.00 420.67 225.00 425.33 225.00 430.00 Z"/>
</g>
<g fill="None" fill-opacity="0.0" stroke="#797979" stroke-opacity="1.00" stroke-width="0.3"><path d="
M 45.00 458.00 
C 45.08 455.34 44.90 452.66 45.00 450.00
C 44.75 451.78 42.43 456.20 45.00 458.00 Z"/>
</g>
<g fill="#FCFCFC" fill-opacity="1.00" stroke="None">
<path d="
M 0.00 622.00 
L 372.00 622.00
L 372.00 0.00
L 0.00 0.00
L 0.00 622.00
M 94.00 164.00 
C 93.87 164.04 94.00 165.00 94.00 165.00
C 101.77 165.52 111.23 164.62 118.00 162.00
C 117.29 165.89 112.34 167.89 112.00 172.00
C 119.71 168.02 124.81 159.09 132.00 154.00
C 134.99 151.01 137.81 147.73 141.00 145.00
C 149.29 137.92 156.35 125.79 168.00 126.00
C 158.91 135.48 148.85 146.05 141.00 157.00
C 161.41 146.47 175.79 120.31 202.00 122.00
C 199.04 125.32 194.29 126.77 191.00 130.00
C 188.29 132.51 185.81 135.60 183.00 138.00
C 180.63 140.02 177.86 141.86 177.00 145.00
C 196.42 138.54 214.48 121.70 236.00 126.00
C 222.60 129.36 209.94 135.24 199.00 144.00
C 211.84 144.08 223.52 137.28 237.67 136.67 C 251.82 136.06 270.00 133.19 284.00 136.00
C 277.66 141.75 268.86 141.97 261.00 144.00
C 276.78 146.48 297.58 147.12 313.01 150.99 C 328.44 154.86 345.30 157.70 356.00 166.00
C 353.24 168.76 346.79 166.27 344.00 166.00
C 325.77 166.00 308.56 160.87 291.00 158.00
C 298.45 164.83 310.51 165.32 318.00 172.00
C 299.27 173.29 282.86 158.43 265.00 161.00
C 285.67 176.43 310.57 185.99 332.00 200.00
C 317.04 205.33 301.91 191.74 287.00 189.00
C 289.40 192.16 292.53 194.92 293.00 199.00
C 272.45 193.21 257.64 173.96 236.00 171.00
C 248.96 181.08 268.88 185.37 276.00 202.00
C 246.79 189.66 220.19 168.73 188.00 164.00
C 205.09 177.48 229.38 185.12 241.00 205.00
C 238.76 204.01 236.54 202.98 234.00 203.00
C 242.21 208.73 250.42 215.02 256.75 223.25 C 263.08 231.48 275.84 232.26 284.00 239.00
C 277.63 242.11 270.95 235.27 264.00 236.00
C 261.64 235.84 257.40 237.14 256.00 237.00
C 280.45 245.15 306.17 251.75 328.00 267.00
C 315.55 268.02 302.82 259.05 290.00 257.00
C 311.55 269.98 336.47 283.88 348.00 308.00
C 333.76 298.04 320.09 286.28 303.00 282.00
C 320.55 298.26 342.83 314.01 349.00 338.00
C 340.69 330.66 333.23 321.80 323.00 318.00
C 335.82 333.54 343.73 351.64 348.00 371.00
C 338.16 361.12 331.70 348.47 324.00 337.00
C 324.32 355.79 336.74 375.63 332.00 396.00
C 328.36 376.16 313.81 359.19 310.00 339.00
C 308.75 348.88 314.67 363.43 308.00 373.00
C 300.82 354.32 297.34 333.58 289.00 315.00
C 289.00 326.17 292.00 339.66 292.00 352.00
C 292.31 355.20 292.38 358.83 292.00 362.00
C 291.92 366.24 291.88 370.24 290.00 374.00
C 276.29 356.69 279.21 331.60 273.00 311.00
C 273.07 311.69 272.04 315.50 272.00 317.00
C 271.65 329.34 271.70 342.02 273.00 354.00
C 264.59 340.65 265.24 321.28 256.00 308.00
C 258.09 315.88 256.51 324.72 257.00 333.00
C 257.30 336.07 257.70 338.86 257.00 342.00
C 256.55 344.02 256.22 345.90 256.00 348.00
C 240.88 326.61 244.78 294.46 234.00 271.00
C 228.48 291.99 240.24 318.28 229.00 337.00
C 223.21 325.39 224.69 311.65 219.00 300.00
C 214.85 306.40 217.42 316.18 215.00 323.00
C 206.39 309.77 206.95 292.03 202.00 277.00
C 201.98 277.17 201.08 278.32 201.00 279.00
C 199.55 290.76 204.46 303.49 200.00 315.00
C 189.30 306.22 191.30 288.47 186.00 276.00
C 185.99 276.18 185.26 276.88 185.00 277.00
C 184.49 280.52 184.42 285.06 184.00 288.00
C 183.78 293.72 182.86 299.05 180.00 304.00
C 171.87 292.96 173.24 276.13 163.00 266.00
C 164.08 273.62 167.09 283.00 163.00 290.00
C 155.02 278.33 150.47 263.69 141.00 253.00
C 144.52 268.11 153.05 283.89 152.00 299.00
C 144.97 291.13 142.11 280.44 135.00 273.00
C 139.48 279.58 139.35 287.90 139.00 296.00
C 128.39 289.10 127.93 270.10 113.00 267.00
C 117.23 276.48 123.66 285.29 124.00 296.00
C 112.69 284.42 98.38 278.44 86.00 268.00
C 92.06 280.90 96.84 295.91 112.00 297.00 C 127.16 298.08 141.31 305.57 155.08 309.92 C 168.84 314.28 180.31 321.94 192.75 328.25 C 205.18 334.57 215.11 343.47 227.08 349.92 C 239.04 356.38 251.33 362.23 261.25 371.75 C 271.16 381.28 279.97 389.91 290.00 399.00
C 293.60 402.07 296.97 405.45 300.00 409.00
C 312.34 423.44 324.45 437.90 330.00 456.00
C 325.70 453.30 324.80 447.34 320.00 445.00
C 328.60 465.75 346.36 485.65 347.00 508.00
C 343.13 499.08 338.21 488.36 330.00 483.00
C 338.58 501.43 342.97 523.15 342.00 543.00
C 337.06 517.18 326.04 491.91 312.00 470.00
C 314.10 486.04 317.98 503.64 318.00 519.00
C 310.99 492.63 300.70 467.40 291.00 442.00
C 289.91 455.35 296.31 471.33 299.33 484.67 C 302.34 498.01 311.49 514.87 301.00 526.00
C 297.68 501.35 289.15 477.58 280.00 455.00
C 275.84 468.77 275.81 484.27 273.00 498.00
C 264.87 474.42 267.20 448.11 261.00 424.00
C 258.27 439.24 257.74 456.57 256.00 472.00
C 250.97 463.49 252.82 452.21 249.00 443.00
C 246.36 452.09 249.62 465.22 241.00 472.00
C 232.49 451.05 229.38 428.44 226.00 406.00
C 225.99 406.13 225.08 407.35 225.00 408.00
C 224.68 410.58 225.00 413.40 225.00 416.00
C 225.43 420.40 225.42 425.66 225.00 430.00
C 225.00 435.47 225.56 441.91 222.00 446.00
C 218.37 434.10 215.69 421.87 212.00 410.00
C 207.74 421.18 210.62 435.71 207.00 447.00
C 200.73 431.59 196.52 415.52 194.00 399.00
C 190.82 409.82 195.86 426.09 190.00 435.00
C 186.52 424.20 183.64 413.13 181.00 402.00
C 178.20 404.94 181.84 411.13 179.00 414.00
C 171.28 396.25 172.61 375.14 165.00 357.00
C 163.61 357.26 164.22 359.05 164.00 360.00
C 163.45 363.11 164.00 366.84 164.00 370.00
C 164.00 379.35 164.69 391.39 171.00 398.00
C 167.36 398.77 169.43 404.08 166.00 406.00
C 164.30 400.42 161.91 394.44 156.00 392.00
C 153.12 402.93 169.58 407.50 173.00 417.00
C 148.45 408.72 129.52 383.45 104.00 381.00
C 129.93 399.42 162.24 413.47 179.00 442.00
C 167.37 432.28 153.65 425.93 140.00 420.00
C 151.16 432.13 169.29 439.07 176.00 455.00
C 160.25 445.28 146.91 431.48 130.00 424.00
C 141.93 440.97 162.77 452.21 172.00 471.00
C 163.72 466.50 169.18 475.07 171.00 479.00
C 157.52 473.23 148.54 458.63 134.00 455.00
C 148.45 468.76 164.94 487.25 165.00 507.00
C 154.24 489.31 140.29 472.15 123.00 460.00
C 134.86 486.32 166.71 506.34 165.00 537.00
C 161.49 532.44 159.14 526.83 155.00 523.00
C 156.39 530.40 161.81 538.71 159.00 546.00
C 151.99 533.83 149.01 519.79 141.00 508.00
C 142.68 528.73 158.99 553.30 147.00 575.00
C 145.06 560.31 141.05 546.15 137.00 532.00
C 138.63 556.43 139.60 585.45 123.00 606.00
C 119.42 592.16 124.72 575.56 122.00 562.00
C 121.58 567.48 119.19 572.55 116.00 577.00
C 112.48 566.77 120.25 554.35 116.00 544.00
C 109.80 556.85 107.97 572.88 97.00 583.00
C 94.12 567.08 108.51 553.87 105.00 539.00
C 102.34 546.76 100.80 555.92 95.00 562.00
C 89.74 548.44 101.56 535.23 100.00 523.00
C 91.44 538.10 84.27 553.90 74.00 568.00
C 68.33 550.75 83.22 536.65 90.30 521.31 C 97.39 505.96 108.46 489.21 107.00 471.00
C 89.13 486.73 88.53 517.14 69.00 532.00
C 68.01 512.60 81.10 494.95 81.00 477.00
C 72.57 491.75 70.10 512.11 55.00 522.00
C 59.36 508.69 58.76 491.79 63.93 478.93 C 69.09 466.06 77.57 454.49 76.00 441.00
C 70.84 454.19 62.98 466.25 55.00 478.00
C 50.20 456.81 70.21 437.46 68.00 417.00
C 62.59 431.72 51.70 444.10 45.00 458.00
C 42.43 456.20 44.75 451.78 45.00 450.00
C 45.30 442.15 48.46 433.77 48.00 427.00
C 44.76 435.93 42.44 446.40 35.00 453.00
C 30.07 443.26 39.83 433.40 39.00 423.00
C 34.55 426.28 34.94 432.61 32.00 437.00
C 27.64 411.76 51.52 387.11 43.00 362.00
C 39.87 378.96 31.57 393.70 24.00 409.00
C 17.91 384.62 38.17 362.12 33.00 338.00
C 31.97 346.29 26.52 353.18 24.00 361.00
C 20.24 344.44 25.58 329.69 23.00 312.00 C 20.42 294.31 42.82 297.41 55.00 294.00
C 45.08 287.65 30.80 289.38 23.00 299.00
C 21.32 263.06 26.15 228.80 33.00 195.00
C 35.20 193.93 36.65 199.15 38.00 197.00
C 39.09 195.08 38.00 189.27 38.00 187.00
C 38.00 184.00 38.00 181.00 38.00 178.00
C 40.98 178.05 42.70 181.44 43.00 184.00
C 43.00 183.99 43.93 182.55 44.00 182.00
C 45.36 170.94 42.86 158.19 45.00 148.00
C 48.95 153.72 47.34 161.86 51.00 168.00
C 51.62 153.35 48.29 136.67 54.00 122.00
C 58.00 131.47 55.58 144.40 58.00 155.00
C 61.78 144.66 58.05 131.78 61.00 121.00 C 63.95 110.21 67.76 101.11 69.00 90.00
C 75.54 97.11 65.88 110.47 70.00 119.00
C 69.98 115.48 71.20 111.65 73.00 109.00
C 75.53 112.14 72.03 115.45 73.00 119.00
C 73.26 118.75 74.00 119.00 74.00 119.00
C 76.42 106.90 80.33 94.77 84.00 83.00
C 88.09 93.71 80.51 109.53 83.00 121.00
C 86.24 99.06 96.84 79.40 105.00 59.00
C 110.03 73.73 94.40 88.20 95.00 104.00
C 100.64 91.78 103.68 76.96 112.00 66.00
C 111.76 72.44 110.63 78.64 110.00 85.00
C 119.93 70.48 117.16 49.82 130.00 36.00
C 135.14 42.13 128.62 50.94 131.00 57.00
C 137.93 45.67 142.80 32.69 151.00 22.00
C 154.66 28.16 146.46 36.16 149.00 42.00
C 155.86 32.91 166.22 15.89 179.00 19.00
C 166.25 30.04 153.47 43.63 147.00 59.00
C 154.31 51.24 163.03 45.73 173.00 43.00
C 161.54 57.04 150.45 69.72 135.00 79.00
C 146.37 80.67 157.30 66.23 169.00 68.00
C 157.77 80.37 136.01 82.94 127.00 99.00
C 137.68 94.97 148.07 90.29 159.00 87.00
C 150.64 103.21 131.79 103.17 121.00 116.00
C 125.44 114.21 130.48 115.09 135.00 116.00
C 126.65 126.79 115.44 134.71 105.00 142.00
C 111.24 139.29 120.85 133.79 127.00 139.00
C 118.58 147.93 106.74 148.42 96.00 152.00
C 107.68 156.12 120.19 144.16 132.00 149.00
C 121.33 158.57 106.63 158.67 94.00 164.00 Z"/>
</g>
<g fill="#000000" fill-opacity="1.00" stroke="None">
<path d="
M 74.00 119.00 
C 73.29 122.55 72.67 126.17 73.00 130.00
C 71.44 127.39 71.28 121.54 73.00 119.00
C 72.03 115.45 75.53 112.14 73.00 109.00
C 71.20 111.65 69.98 115.48 70.00 119.00
C 65.88 110.47 75.54 97.11 69.00 90.00
C 67.76 101.11 63.95 110.21 61.00 121.00 C 58.05 131.78 61.78 144.66 58.00 155.00
C 55.58 144.40 58.00 131.47 54.00 122.00
C 48.29 136.67 51.62 153.35 51.00 168.00
C 47.34 161.86 48.95 153.72 45.00 148.00
C 42.86 158.19 45.36 170.94 44.00 182.00
C 44.10 183.27 45.97 186.02 45.00 188.00
C 43.65 187.27 44.04 185.17 43.00 184.00
C 42.70 181.44 40.98 178.05 38.00 178.00
C 38.00 181.00 38.00 184.00 38.00 187.00
C 38.25 189.61 40.57 194.43 38.00 197.00
C 36.65 199.15 35.20 193.93 33.00 195.00
C 26.15 228.80 21.32 263.06 23.00 299.00
C 30.80 289.38 45.08 287.65 55.00 294.00
C 42.82 297.41 20.42 294.31 23.00 312.00 C 25.58 329.69 20.24 344.44 24.00 361.00
C 26.52 353.18 31.97 346.29 33.00 338.00
C 38.17 362.12 17.91 384.62 24.00 409.00
C 31.57 393.70 39.87 378.96 43.00 362.00
C 51.52 387.11 27.64 411.76 32.00 437.00
C 34.94 432.61 34.55 426.28 39.00 423.00
C 39.83 433.40 30.07 443.26 35.00 453.00
C 42.44 446.40 44.76 435.93 48.00 427.00
C 48.46 433.77 45.30 442.15 45.00 450.00
C 44.90 452.66 45.08 455.34 45.00 458.00
C 51.70 444.10 62.59 431.72 68.00 417.00
C 70.21 437.46 50.20 456.81 55.00 478.00
C 62.98 466.25 70.84 454.19 76.00 441.00
C 77.57 454.49 69.09 466.06 63.93 478.93 C 58.76 491.79 59.36 508.69 55.00 522.00
C 70.10 512.11 72.57 491.75 81.00 477.00
C 81.10 494.95 68.01 512.60 69.00 532.00
C 88.53 517.14 89.13 486.73 107.00 471.00
C 108.46 489.21 97.39 505.96 90.30 521.31 C 83.22 536.65 68.33 550.75 74.00 568.00
C 84.27 553.90 91.44 538.10 100.00 523.00
C 101.56 535.23 89.74 548.44 95.00 562.00
C 100.80 555.92 102.34 546.76 105.00 539.00
C 108.51 553.87 94.12 567.08 97.00 583.00
C 107.97 572.88 109.80 556.85 116.00 544.00
C 120.25 554.35 112.48 566.77 116.00 577.00
C 119.19 572.55 121.58 567.48 122.00 562.00
C 124.72 575.56 119.42 592.16 123.00 606.00
C 139.60 585.45 138.63 556.43 137.00 532.00
C 141.05 546.15 145.06 560.31 147.00 575.00
C 158.99 553.30 142.68 528.73 141.00 508.00
C 149.01 519.79 151.99 533.83 159.00 546.00
C 161.81 538.71 156.39 530.40 155.00 523.00
C 159.14 526.83 161.49 532.44 165.00 537.00
C 166.71 506.34 134.86 486.32 123.00 460.00
C 140.29 472.15 154.24 489.31 165.00 507.00
C 164.94 487.25 148.45 468.76 134.00 455.00
C 148.54 458.63 157.52 473.23 171.00 479.00
C 169.18 475.07 163.72 466.50 172.00 471.00
C 162.77 452.21 141.93 440.97 130.00 424.00
C 146.91 431.48 160.25 445.28 176.00 455.00
C 169.29 439.07 151.16 432.13 140.00 420.00
C 153.65 425.93 167.37 432.28 179.00 442.00
C 162.24 413.47 129.93 399.42 104.00 381.00
C 129.52 383.45 148.45 408.72 173.00 417.00
C 169.58 407.50 153.12 402.93 156.00 392.00
C 161.91 394.44 164.30 400.42 166.00 406.00
C 169.43 404.08 167.36 398.77 171.00 398.00
C 164.69 391.39 164.00 379.35 164.00 370.00
C 163.67 366.60 162.68 363.53 164.00 360.00
C 164.22 359.05 163.61 357.26 165.00 357.00
C 172.61 375.14 171.28 396.25 179.00 414.00
C 181.84 411.13 178.20 404.94 181.00 402.00
C 183.64 413.13 186.52 424.20 190.00 435.00
C 195.86 426.09 190.82 409.82 194.00 399.00
C 196.52 415.52 200.73 431.59 207.00 447.00
C 210.62 435.71 207.74 421.18 212.00 410.00
C 215.69 421.87 218.37 434.10 222.00 446.00
C 225.56 441.91 225.00 435.47 225.00 430.00
C 225.00 425.33 225.00 420.67 225.00 416.00
C 225.00 413.40 224.68 410.58 225.00 408.00
C 224.90 406.73 223.03 403.98 224.00 402.00
C 225.11 402.84 226.04 404.46 226.00 406.00
C 229.38 428.44 232.49 451.05 241.00 472.00
C 249.62 465.22 246.36 452.09 249.00 443.00
C 252.82 452.21 250.97 463.49 256.00 472.00
C 257.74 456.57 258.27 439.24 261.00 424.00
C 267.20 448.11 264.87 474.42 273.00 498.00
C 275.81 484.27 275.84 468.77 280.00 455.00
C 289.15 477.58 297.68 501.35 301.00 526.00
C 311.49 514.87 302.34 498.01 299.33 484.67 C 296.31 471.33 289.91 455.35 291.00 442.00
C 300.70 467.40 310.99 492.63 318.00 519.00
C 317.98 503.64 314.10 486.04 312.00 470.00
C 326.04 491.91 337.06 517.18 342.00 543.00
C 342.97 523.15 338.58 501.43 330.00 483.00
C 338.21 488.36 343.13 499.08 347.00 508.00
C 346.36 485.65 328.60 465.75 320.00 445.00
C 324.80 447.34 325.70 453.30 330.00 456.00
C 324.45 437.90 312.34 423.44 300.00 409.00
C 296.75 405.75 293.21 402.21 290.00 399.00
C 279.97 389.91 271.16 381.28 261.25 371.75 C 251.33 362.23 239.04 356.38 227.08 349.92 C 215.11 343.47 205.18 334.57 192.75 328.25 C 180.31 321.94 168.84 314.28 155.08 309.92 C 141.31 305.57 127.16 298.08 112.00 297.00 C 96.84 295.91 92.06 280.90 86.00 268.00
C 98.38 278.44 112.69 284.42 124.00 296.00
C 123.66 285.29 117.23 276.48 113.00 267.00
C 127.93 270.10 128.39 289.10 139.00 296.00
C 139.35 287.90 139.48 279.58 135.00 273.00
C 142.11 280.44 144.97 291.13 152.00 299.00
C 153.05 283.89 144.52 268.11 141.00 253.00
C 150.47 263.69 155.02 278.33 163.00 290.00
C 167.09 283.00 164.08 273.62 163.00 266.00
C 173.24 276.13 171.87 292.96 180.00 304.00
C 182.86 299.05 183.78 293.72 184.00 288.00
C 184.14 284.34 183.78 280.65 184.00 277.00
C 184.10 275.34 183.92 273.66 184.00 272.00
C 185.11 272.84 186.04 274.46 186.00 276.00
C 191.30 288.47 189.30 306.22 200.00 315.00
C 204.46 303.49 199.55 290.76 201.00 279.00
C 200.80 276.91 198.30 271.98 201.00 270.00
C 200.53 272.57 201.54 274.65 202.00 277.00
C 206.95 292.03 206.39 309.77 215.00 323.00
C 217.42 316.18 214.85 306.40 219.00 300.00
C 224.69 311.65 223.21 325.39 229.00 337.00
C 240.24 318.28 228.48 291.99 234.00 271.00
C 244.78 294.46 240.88 326.61 256.00 348.00
C 256.22 345.90 256.55 344.02 257.00 342.00
C 257.30 339.07 257.00 335.95 257.00 333.00
C 256.51 324.72 258.09 315.88 256.00 308.00
C 265.24 321.28 264.59 340.65 273.00 354.00
C 271.70 342.02 271.65 329.34 272.00 317.00
C 271.81 315.05 270.07 311.66 271.00 309.00
C 272.40 308.49 273.15 309.81 273.00 311.00
C 279.21 331.60 276.29 356.69 290.00 374.00
C 291.88 370.24 291.92 366.24 292.00 362.00
C 292.07 358.67 292.00 355.33 292.00 352.00
C 292.00 339.66 289.00 326.17 289.00 315.00
C 297.34 333.58 300.82 354.32 308.00 373.00
C 314.67 363.43 308.75 348.88 310.00 339.00
C 313.81 359.19 328.36 376.16 332.00 396.00
C 336.74 375.63 324.32 355.79 324.00 337.00
C 331.70 348.47 338.16 361.12 348.00 371.00
C 343.73 351.64 335.82 333.54 323.00 318.00
C 333.23 321.80 340.69 330.66 349.00 338.00
C 342.83 314.01 320.55 298.26 303.00 282.00
C 320.09 286.28 333.76 298.04 348.00 308.00
C 336.47 283.88 311.55 269.98 290.00 257.00
C 302.82 259.05 315.55 268.02 328.00 267.00
C 306.17 251.75 280.45 245.15 256.00 237.00
C 254.93 236.64 253.12 236.70 253.00 235.00
C 256.50 235.62 261.32 233.73 264.00 236.00
C 270.95 235.27 277.63 242.11 284.00 239.00
C 275.84 232.26 263.08 231.48 256.75 223.25 C 250.42 215.02 242.21 208.73 234.00 203.00
C 236.54 202.98 238.76 204.01 241.00 205.00
C 229.38 185.12 205.09 177.48 188.00 164.00
C 220.19 168.73 246.79 189.66 276.00 202.00
C 268.88 185.37 248.96 181.08 236.00 171.00
C 257.64 173.96 272.45 193.21 293.00 199.00
C 292.53 194.92 289.40 192.16 287.00 189.00
C 301.91 191.74 317.04 205.33 332.00 200.00
C 310.57 185.99 285.67 176.43 265.00 161.00
C 282.86 158.43 299.27 173.29 318.00 172.00
C 310.51 165.32 298.45 164.83 291.00 158.00
C 308.56 160.87 325.77 166.00 344.00 166.00
C 346.84 166.00 353.55 167.29 356.00 166.00
C 345.30 157.70 328.44 154.86 313.01 150.99 C 297.58 147.12 276.78 146.48 261.00 144.00
C 268.86 141.97 277.66 141.75 284.00 136.00
C 270.00 133.19 251.82 136.06 237.67 136.67 C 223.52 137.28 211.84 144.08 199.00 144.00
C 209.94 135.24 222.60 129.36 236.00 126.00
C 214.48 121.70 196.42 138.54 177.00 145.00
C 177.86 141.86 180.63 140.02 183.00 138.00
C 185.67 135.33 188.04 132.34 191.00 130.00
C 194.29 126.77 199.04 125.32 202.00 122.00
C 175.79 120.31 161.41 146.47 141.00 157.00
C 148.85 146.05 158.91 135.48 168.00 126.00
C 156.35 125.79 149.29 137.92 141.00 145.00
C 138.01 147.99 135.19 151.27 132.00 154.00
C 124.81 159.09 119.71 168.02 112.00 172.00
C 112.34 167.89 117.29 165.89 118.00 162.00
C 111.23 164.62 101.77 165.52 94.00 165.00
C 93.01 166.12 89.04 168.03 88.00 166.00
C 90.25 166.14 91.71 163.84 94.00 164.00
C 106.63 158.67 121.33 158.57 132.00 149.00
C 120.19 144.16 107.68 156.12 96.00 152.00
C 106.74 148.42 118.58 147.93 127.00 139.00
C 120.85 133.79 111.24 139.29 105.00 142.00
C 115.44 134.71 126.65 126.79 135.00 116.00
C 130.48 115.09 125.44 114.21 121.00 116.00
C 131.79 103.17 150.64 103.21 159.00 87.00
C 148.07 90.29 137.68 94.97 127.00 99.00
C 136.01 82.94 157.77 80.37 169.00 68.00
C 157.30 66.23 146.37 80.67 135.00 79.00
C 150.45 69.72 161.54 57.04 173.00 43.00
C 163.03 45.73 154.31 51.24 147.00 59.00
C 153.47 43.63 166.25 30.04 179.00 19.00
C 166.22 15.89 155.86 32.91 149.00 42.00
C 146.46 36.16 154.66 28.16 151.00 22.00
C 142.80 32.69 137.93 45.67 131.00 57.00
C 128.62 50.94 135.14 42.13 130.00 36.00
C 117.16 49.82 119.93 70.48 110.00 85.00
C 110.63 78.64 111.76 72.44 112.00 66.00
C 103.68 76.96 100.64 91.78 95.00 104.00
C 94.40 88.20 110.03 73.73 105.00 59.00
C 96.84 79.40 86.24 99.06 83.00 121.00
C 80.51 109.53 88.09 93.71 84.00 83.00
C 80.33 94.77 76.42 106.90 74.00 119.00
M 110.00 166.00 
C 107.36 173.32 99.82 174.07 93.00 174.00
C 97.52 169.92 103.88 167.02 110.00 166.00
M 100.00 179.00 
C 95.41 193.95 79.50 193.85 67.00 198.00
C 74.45 187.71 87.30 180.72 100.00 179.00
M 256.00 225.00 
C 241.12 225.83 226.94 216.50 215.77 206.23 C 204.60 195.96 190.67 190.80 179.00 182.00
C 206.86 191.41 231.90 208.08 256.00 225.00
M 222.00 217.00 
C 213.37 218.79 207.78 207.98 199.92 204.08 C 192.06 200.18 182.93 195.15 176.00 190.00
C 192.57 196.51 206.97 207.52 222.00 217.00
M 177.00 214.00 
C 161.75 212.73 150.47 198.50 135.00 196.00
C 150.03 194.25 164.62 206.07 177.00 214.00
M 160.00 214.00 
C 146.72 222.95 132.52 204.25 120.00 199.00
C 133.95 202.03 146.36 210.04 160.00 214.00
M 85.00 200.00 
C 78.50 211.68 67.41 218.00 56.00 224.00
C 64.52 214.63 73.38 204.41 85.00 200.00
M 200.00 214.00 
C 195.42 217.02 194.20 210.96 200.00 214.00
M 72.00 218.00 
C 67.23 231.32 55.32 237.76 42.00 239.00
C 49.90 230.43 64.31 228.82 72.00 218.00
M 119.00 226.00 
C 113.91 228.78 113.82 220.94 119.00 226.00
M 32.00 278.00 
C 31.13 279.45 30.16 281.00 29.00 282.00
C 28.86 280.19 29.44 277.92 31.00 277.00
C 33.14 272.43 35.97 267.30 40.00 264.00
C 38.53 269.14 33.46 272.85 32.00 278.00
M 94.00 294.00 
C 78.38 298.99 77.33 282.84 72.00 273.00
C 81.40 276.88 86.71 287.13 94.00 294.00
M 72.00 293.00 
C 69.73 293.64 67.29 294.92 65.00 293.00
C 62.75 291.11 63.13 284.81 60.00 283.00
C 66.05 284.46 71.96 288.19 76.00 293.00
C 74.67 293.00 73.33 293.00 72.00 293.00
M 113.00 348.00 
C 110.49 347.78 107.20 346.17 108.00 343.00
C 110.80 342.89 112.02 345.94 113.00 348.00
M 132.00 358.00 
C 128.23 356.44 122.37 354.56 124.00 349.00
C 128.63 349.30 130.03 354.53 132.00 358.00
M 139.00 351.00 
C 141.51 354.60 140.73 361.09 143.00 365.00
C 141.03 362.70 136.23 362.92 137.00 359.00
C 136.24 355.85 137.57 352.20 137.00 349.00
C 137.83 349.41 138.87 349.97 139.00 351.00
M 105.00 355.00 
C 102.08 354.87 98.56 353.56 97.00 351.00
C 99.53 352.84 105.82 350.10 105.00 355.00
M 119.00 360.00 
C 115.02 358.85 107.15 358.64 108.00 353.00
C 112.62 353.63 117.21 355.20 119.00 360.00
M 134.00 366.00 
C 139.69 360.91 145.77 368.79 146.00 375.00
C 139.28 369.50 126.30 367.21 124.00 359.00
C 127.87 359.48 134.43 360.74 134.00 366.00
M 157.00 368.00 
C 158.71 374.54 159.84 381.27 161.00 388.00
C 153.60 384.49 155.60 373.87 157.00 368.00
M 151.00 394.00 
C 143.85 387.45 135.31 382.69 128.00 377.00
C 136.17 380.90 149.82 383.42 151.00 394.00 Z"/>
</g>
<g fill="#9A9A9A" fill-opacity="1.00" stroke="None">
<path d="
M 74.00 119.00 
C 74.00 119.00 73.26 118.75 73.00 119.00
C 71.28 121.54 71.44 127.39 73.00 130.00
C 72.67 126.17 73.29 122.55 74.00 119.00 Z"/>
</g>
<g fill="#7C7C7C" fill-opacity="1.00" stroke="None">
<path d="
M 183.00 138.00 
C 185.81 135.60 188.29 132.51 191.00 130.00
C 188.04 132.34 185.67 135.33 183.00 138.00 Z"/>
</g>
<g fill="#757575" fill-opacity="1.00" stroke="None">
<path d="
M 132.00 154.00 
C 135.19 151.27 138.01 147.99 141.00 145.00
C 137.81 147.73 134.99 151.01 132.00 154.00 Z"/>
</g>
<g fill="#929292" fill-opacity="1.00" stroke="None">
<path d="
M 94.00 165.00 
C 94.00 165.00 93.87 164.04 94.00 164.00
C 91.71 163.84 90.25 166.14 88.00 166.00
C 89.04 168.03 93.01 166.12 94.00 165.00 Z"/>
</g>
<g fill="#DDDDDD" fill-opacity="1.00" stroke="None">
<path d="
M 110.00 166.00 
C 103.88 167.02 97.52 169.92 93.00 174.00
C 99.82 174.07 107.36 173.32 110.00 166.00 Z"/>
</g>
<g fill="#707070" fill-opacity="1.00" stroke="None">
<path d="
M 356.00 166.00 
C 353.55 167.29 346.84 166.00 344.00 166.00
C 346.79 166.27 353.24 168.76 356.00 166.00 Z"/>
</g>
<g fill="#EEEEEE" fill-opacity="1.00" stroke="None">
<path d="
M 100.00 179.00 
C 87.30 180.72 74.45 187.71 67.00 198.00
C 79.50 193.85 95.41 193.95 100.00 179.00 Z"/>
</g>
<g fill="#9D9D9D" fill-opacity="1.00" stroke="None">
<path d="
M 43.00 184.00 
C 44.04 185.17 43.65 187.27 45.00 188.00
C 45.97 186.02 44.10 183.27 44.00 182.00
C 43.93 182.55 43.00 183.99 43.00 184.00 Z"/>
</g>
<g fill="#E9E9E9" fill-opacity="1.00" stroke="None">
<path d="
M 256.00 225.00 
C 231.90 208.08 206.86 191.41 179.00 182.00
C 190.67 190.80 204.60 195.96 215.77 206.23 C 226.94 216.50 241.12 225.83 256.00 225.00 Z"/>
</g>
<g fill="#5D5D5D" fill-opacity="1.00" stroke="None">
<path d="
M 38.00 197.00 
C 40.57 194.43 38.25 189.61 38.00 187.00
C 38.00 189.27 39.09 195.08 38.00 197.00 Z"/>
</g>
<g fill="#B9B9B9" fill-opacity="1.00" stroke="None">
<path d="
M 222.00 217.00 
C 206.97 207.52 192.57 196.51 176.00 190.00
C 182.93 195.15 192.06 200.18 199.92 204.08 C 207.78 207.98 213.37 218.79 222.00 217.00 Z"/>
</g>
<g fill="#E2E2E2" fill-opacity="1.00" stroke="None">
<path d="
M 177.00 214.00 
C 164.62 206.07 150.03 194.25 135.00 196.00
C 150.47 198.50 161.75 212.73 177.00 214.00 Z"/>
</g>
<g fill="#E4E4E4" fill-opacity="1.00" stroke="None">
<path d="
M 160.00 214.00 
C 146.36 210.04 133.95 202.03 120.00 199.00
C 132.52 204.25 146.72 222.95 160.00 214.00 Z"/>
</g>
<g fill="#E9E9E9" fill-opacity="1.00" stroke="None">
<path d="
M 85.00 200.00 
C 73.38 204.41 64.52 214.63 56.00 224.00
C 67.41 218.00 78.50 211.68 85.00 200.00 Z"/>
</g>
<g fill="#BEBEBE" fill-opacity="1.00" stroke="None">
<path d="
M 200.00 214.00 
C 194.20 210.96 195.42 217.02 200.00 214.00 Z"/>
</g>
<g fill="#E8E8E8" fill-opacity="1.00" stroke="None">
<path d="
M 72.00 218.00 
C 64.31 228.82 49.90 230.43 42.00 239.00
C 55.32 237.76 67.23 231.32 72.00 218.00 Z"/>
</g>
<g fill="#B1B1B1" fill-opacity="1.00" stroke="None">
<path d="
M 119.00 226.00 
C 113.82 220.94 113.91 228.78 119.00 226.00 Z"/>
</g>
<g fill="#6F6F6F" fill-opacity="1.00" stroke="None">
<path d="
M 256.00 237.00 
C 257.40 237.14 261.64 235.84 264.00 236.00
C 261.32 233.73 256.50 235.62 253.00 235.00
C 253.12 236.70 254.93 236.64 256.00 237.00 Z"/>
</g>
<g fill="#787878" fill-opacity="1.00" stroke="None">
<path d="
M 31.00 277.00 
C 30.99 277.33 32.02 277.89 32.00 278.00
C 33.46 272.85 38.53 269.14 40.00 264.00
C 35.97 267.30 33.14 272.43 31.00 277.00 Z"/>
</g>
<g fill="#8F8F8F" fill-opacity="1.00" stroke="None">
<path d="
M 201.00 279.00 
C 201.08 278.32 201.98 277.17 202.00 277.00
C 201.54 274.65 200.53 272.57 201.00 270.00
C 198.30 271.98 200.80 276.91 201.00 279.00 Z"/>
</g>
<g fill="#A4A4A4" fill-opacity="1.00" stroke="None">
<path d="
M 184.00 277.00 
C 184.00 276.96 185.00 277.00 185.00 277.00
C 185.26 276.88 185.99 276.18 186.00 276.00
C 186.04 274.46 185.11 272.84 184.00 272.00
C 183.92 273.66 184.10 275.34 184.00 277.00 Z"/>
</g>
<g fill="#E7E7E7" fill-opacity="1.00" stroke="None">
<path d="
M 94.00 294.00 
C 86.71 287.13 81.40 276.88 72.00 273.00
C 77.33 282.84 78.38 298.99 94.00 294.00 Z"/>
</g>
<g fill="#474747" fill-opacity="1.00" stroke="None">
<path d="
M 32.00 278.00 
C 32.02 277.89 30.99 277.33 31.00 277.00
C 29.44 277.92 28.86 280.19 29.00 282.00
C 30.16 281.00 31.13 279.45 32.00 278.00 Z"/>
</g>
<g fill="#6C6C6C" fill-opacity="1.00" stroke="None">
<path d="
M 184.00 288.00 
C 184.42 285.06 184.49 280.52 185.00 277.00
C 185.00 277.00 184.00 276.96 184.00 277.00
C 183.78 280.65 184.14 284.34 184.00 288.00 Z"/>
</g>
<g fill="#EAEAEA" fill-opacity="1.00" stroke="None">
<path d="
M 65.00 293.00 
C 67.31 292.79 69.70 293.27 72.00 293.00
C 73.33 293.00 74.67 293.00 76.00 293.00
C 71.96 288.19 66.05 284.46 60.00 283.00
C 63.13 284.81 62.75 291.11 65.00 293.00 Z"/>
</g>
<g fill="#5B5B5B" fill-opacity="1.00" stroke="None">
<path d="
M 72.00 293.00 
C 69.70 293.27 67.31 292.79 65.00 293.00
C 67.29 294.92 69.73 293.64 72.00 293.00 Z"/>
</g>
<g fill="#8E8E8E" fill-opacity="1.00" stroke="None">
<path d="
M 272.00 317.00 
C 272.04 315.50 273.07 311.69 273.00 311.00
C 273.15 309.81 272.40 308.49 271.00 309.00
C 270.07 311.66 271.81 315.05 272.00 317.00 Z"/>
</g>
<g fill="#6F6F6F" fill-opacity="1.00" stroke="None">
<path d="
M 257.00 342.00 
C 257.70 338.86 257.30 336.07 257.00 333.00
C 257.00 335.95 257.30 339.07 257.00 342.00 Z"/>
</g>
<g fill="#DDDDDD" fill-opacity="1.00" stroke="None">
<path d="
M 113.00 348.00 
C 112.02 345.94 110.80 342.89 108.00 343.00
C 107.20 346.17 110.49 347.78 113.00 348.00 Z"/>
</g>
<g fill="#E1E1E1" fill-opacity="1.00" stroke="None">
<path d="
M 132.00 358.00 
C 130.03 354.53 128.63 349.30 124.00 349.00
C 122.37 354.56 128.23 356.44 132.00 358.00 Z"/>
</g>
<g fill="#5C5C5C" fill-opacity="1.00" stroke="None">
<path d="
M 137.00 359.00 
C 136.82 357.80 139.19 352.11 139.00 351.00
C 138.87 349.97 137.83 349.41 137.00 349.00
C 137.57 352.20 136.24 355.85 137.00 359.00 Z"/>
</g>
<g fill="#C2C2C2" fill-opacity="1.00" stroke="None">
<path d="
M 105.00 355.00 
C 105.82 350.10 99.53 352.84 97.00 351.00
C 98.56 353.56 102.08 354.87 105.00 355.00 Z"/>
</g>
<g fill="#DFDFDF" fill-opacity="1.00" stroke="None">
<path d="
M 137.00 359.00 
C 136.23 362.92 141.03 362.70 143.00 365.00
C 140.73 361.09 141.51 354.60 139.00 351.00
C 139.19 352.11 136.82 357.80 137.00 359.00 Z"/>
</g>
<g fill="#8F8F8F" fill-opacity="1.00" stroke="None">
<path d="
M 292.00 362.00 
C 292.38 358.83 292.31 355.20 292.00 352.00
C 292.00 355.33 292.07 358.67 292.00 362.00 Z"/>
</g>
<g fill="#DBDBDB" fill-opacity="1.00" stroke="None">
<path d="
M 119.00 360.00 
C 117.21 355.20 112.62 353.63 108.00 353.00
C 107.15 358.64 115.02 358.85 119.00 360.00 Z"/>
</g>
<g fill="#E3E3E3" fill-opacity="1.00" stroke="None">
<path d="
M 134.00 366.00 
C 134.43 360.74 127.87 359.48 124.00 359.00
C 126.30 367.21 139.28 369.50 146.00 375.00
C 145.77 368.79 139.69 360.91 134.00 366.00 Z"/>
</g>
<g fill="#777777" fill-opacity="1.00" stroke="None">
<path d="
M 164.00 370.00 
C 164.00 366.84 163.45 363.11 164.00 360.00
C 162.68 363.53 163.67 366.60 164.00 370.00 Z"/>
</g>
<g fill="#E0E0E0" fill-opacity="1.00" stroke="None">
<path d="
M 157.00 368.00 
C 155.60 373.87 153.60 384.49 161.00 388.00
C 159.84 381.27 158.71 374.54 157.00 368.00 Z"/>
</g>
<g fill="#D2D2D2" fill-opacity="1.00" stroke="None">
<path d="
M 151.00 394.00 
C 149.82 383.42 136.17 380.90 128.00 377.00
C 135.31 382.69 143.85 387.45 151.00 394.00 Z"/>
</g>
<g fill="#777777" fill-opacity="1.00" stroke="None">
<path d="
M 300.00 409.00 
C 296.97 405.45 293.60 402.07 290.00 399.00
C 293.21 402.21 296.75 405.75 300.00 409.00 Z"/>
</g>
<g fill="#525252" fill-opacity="1.00" stroke="None">
<path d="
M 225.00 408.00 
C 225.08 407.35 225.99 406.13 226.00 406.00
C 226.04 404.46 225.11 402.84 224.00 402.00
C 223.03 403.98 224.90 406.73 225.00 408.00 Z"/>
</g>
<g fill="#7A7A7A" fill-opacity="1.00" stroke="None">
<path d="
M 225.00 430.00 
C 225.42 425.66 225.43 420.40 225.00 416.00
C 225.00 420.67 225.00 425.33 225.00 430.00 Z"/>
</g>
<g fill="#797979" fill-opacity="1.00" stroke="None">
<path d="
M 45.00 458.00 
C 45.08 455.34 44.90 452.66 45.00 450.00
C 44.75 451.78 42.43 456.20 45.00 458.00 Z"/>
</g>
</svg>